<svg width="37" height="12" viewBox="0 0 37 12" fill="none" xmlns="http://www.w3.org/2000/svg">
<path d="M4.155 11C4.055 11 3.97 10.965 3.9 10.895C3.83 10.825 3.795 10.74 3.795 10.64V2.87L1.515 4.625C1.455 4.675 1.385 4.7 1.305 4.7C1.185 4.7 1.085 4.645 1.005 4.535L0.375 3.725C0.325 3.645 0.3 3.57 0.3 3.5C0.3 3.38 0.355 3.28 0.465 3.2L3.825 0.605C3.915 0.534999 4.04 0.499999 4.2 0.499999H5.52C5.63 0.499999 5.715 0.534999 5.775 0.605C5.845 0.665 5.88 0.749999 5.88 0.859999V10.64C5.88 10.74 5.845 10.825 5.775 10.895C5.715 10.965 5.63 11 5.52 11H4.155ZM11.5334 11.165C10.7034 11.165 9.98836 11.025 9.38836 10.745C8.79836 10.465 8.34336 10.095 8.02336 9.635C7.71336 9.175 7.54836 8.68 7.52836 8.15V8.12C7.52836 8.04 7.55836 7.975 7.61836 7.925C7.67836 7.875 7.75336 7.85 7.84336 7.85H9.23836C9.46836 7.85 9.61836 7.95 9.68836 8.15C9.82836 8.59 10.0584 8.915 10.3784 9.125C10.7084 9.335 11.0934 9.44 11.5334 9.44C12.0934 9.44 12.5584 9.27 12.9284 8.93C13.3084 8.59 13.4984 8.115 13.4984 7.505C13.4984 6.965 13.3084 6.525 12.9284 6.185C12.5584 5.845 12.0934 5.675 11.5334 5.675C11.2334 5.675 10.9884 5.715 10.7984 5.795C10.6084 5.875 10.4234 5.985 10.2434 6.125C10.1234 6.215 10.0284 6.28 9.95836 6.32C9.89836 6.35 9.82336 6.365 9.73336 6.365H8.35336C8.26336 6.365 8.18336 6.335 8.11336 6.275C8.05336 6.205 8.02336 6.125 8.02336 6.035L8.54836 0.904999C8.55836 0.784999 8.59836 0.689999 8.66836 0.62C8.74836 0.539999 8.84836 0.499999 8.96836 0.499999H14.6084C14.7084 0.499999 14.7934 0.534999 14.8634 0.605C14.9334 0.674999 14.9684 0.759999 14.9684 0.859999V1.865C14.9684 1.965 14.9334 2.05 14.8634 2.12C14.7934 2.19 14.7084 2.225 14.6084 2.225H10.2734L10.0334 4.67C10.5234 4.33 11.1784 4.16 11.9984 4.16C12.6484 4.16 13.2484 4.3 13.7984 4.58C14.3584 4.85 14.8034 5.245 15.1334 5.765C15.4634 6.275 15.6284 6.87 15.6284 7.55C15.6284 8.28 15.4584 8.92 15.1184 9.47C14.7784 10.01 14.2984 10.43 13.6784 10.73C13.0684 11.02 12.3534 11.165 11.5334 11.165ZM17.7751 11C17.6751 11 17.5901 10.965 17.5201 10.895C17.4501 10.825 17.4151 10.74 17.4151 10.64V0.875C17.4151 0.764999 17.4451 0.674999 17.5051 0.605C17.5751 0.534999 17.6651 0.499999 17.7751 0.499999H19.1401C19.2501 0.499999 19.3351 0.534999 19.3951 0.605C19.4651 0.674999 19.5001 0.764999 19.5001 0.875V4.745H23.9251V0.875C23.9251 0.764999 23.9551 0.674999 24.0151 0.605C24.0851 0.534999 24.1751 0.499999 24.2851 0.499999H25.6351C25.7451 0.499999 25.8351 0.534999 25.9051 0.605C25.9751 0.674999 26.0101 0.764999 26.0101 0.875V10.64C26.0101 10.75 25.9751 10.84 25.9051 10.91C25.8351 10.97 25.7451 11 25.6351 11H24.2851C24.1851 11 24.1001 10.965 24.0301 10.895C23.9601 10.825 23.9251 10.74 23.9251 10.64V6.62H19.5001V10.64C19.5001 10.74 19.4651 10.825 19.3951 10.895C19.3351 10.965 19.2501 11 19.1401 11H17.7751ZM31.9879 11.15C31.0979 11.15 30.3329 11.015 29.6929 10.745C29.0529 10.475 28.5679 10.12 28.2379 9.68C27.9079 9.24 27.7329 8.765 27.7129 8.255C27.7129 8.165 27.7429 8.09 27.8029 8.03C27.8629 7.97 27.9379 7.94 28.0279 7.94H29.3629C29.4829 7.94 29.5729 7.965 29.6329 8.015C29.7029 8.055 29.7679 8.125 29.8279 8.225C29.9279 8.565 30.1579 8.85 30.5179 9.08C30.8779 9.31 31.3679 9.425 31.9879 9.425C32.6979 9.425 33.2329 9.31 33.5929 9.08C33.9529 8.84 34.1329 8.51 34.1329 8.09C34.1329 7.81 34.0379 7.58 33.8479 7.4C33.6679 7.22 33.3929 7.065 33.0229 6.935C32.6629 6.805 32.1229 6.645 31.4029 6.455C30.2229 6.175 29.3579 5.805 28.8079 5.345C28.2679 4.875 27.9979 4.21 27.9979 3.35C27.9979 2.77 28.1529 2.255 28.4629 1.805C28.7829 1.355 29.2379 0.999999 29.8279 0.74C30.4279 0.48 31.1229 0.349999 31.9129 0.349999C32.7329 0.349999 33.4429 0.494999 34.0429 0.784999C34.6429 1.075 35.0979 1.44 35.4079 1.88C35.7279 2.31 35.8979 2.74 35.9179 3.17C35.9179 3.26 35.8879 3.335 35.8279 3.395C35.7679 3.455 35.6929 3.485 35.6029 3.485H34.2079C33.9979 3.485 33.8529 3.39 33.7729 3.2C33.7129 2.88 33.5129 2.615 33.1729 2.405C32.8329 2.185 32.4129 2.075 31.9129 2.075C31.3529 2.075 30.9129 2.18 30.5929 2.39C30.2729 2.6 30.1129 2.905 30.1129 3.305C30.1129 3.585 30.1929 3.815 30.3529 3.995C30.5129 4.175 30.7629 4.335 31.1029 4.475C31.4529 4.615 31.9529 4.77 32.6029 4.94C33.4829 5.14 34.1829 5.365 34.7029 5.615C35.2329 5.865 35.6229 6.18 35.8729 6.56C36.1229 6.94 36.2479 7.425 36.2479 8.015C36.2479 8.655 36.0679 9.215 35.7079 9.695C35.3579 10.165 34.8579 10.525 34.2079 10.775C33.5679 11.025 32.8279 11.15 31.9879 11.15Z" fill="#2E3235"/>
</svg>
