<svg width="55" height="55" viewBox="0 0 55 55" fill="none" xmlns="http://www.w3.org/2000/svg">
<path d="M11.0514 15.8207H11.0516C12.1755 15.8207 13.2743 15.4874 14.2088 14.863C15.1433 14.2385 15.8717 13.351 16.3018 12.3126C16.7319 11.2742 16.8444 10.1316 16.6252 9.02926C16.4059 7.92691 15.8647 6.91434 15.0699 6.1196C14.2752 5.32485 13.2626 4.78362 12.1603 4.56435C11.0579 4.34508 9.9153 4.45761 8.87691 4.88773C7.83852 5.31784 6.95099 6.04622 6.32657 6.98074C5.70214 7.91527 5.36885 9.01397 5.36885 10.1379L5.36885 10.1381C5.37035 11.6448 5.96953 13.0893 7.03489 14.1546C8.10025 15.22 9.54476 15.8192 11.0514 15.8207ZM11.0516 6.68274C11.735 6.68274 12.403 6.88538 12.9712 7.26504C13.5394 7.6447 13.9823 8.18432 14.2438 8.81567C14.5053 9.44702 14.5737 10.1417 14.4404 10.812C14.3071 11.4822 13.978 12.0979 13.4948 12.5811C13.0116 13.0643 12.3959 13.3934 11.7257 13.5267C11.0554 13.66 10.3607 13.5916 9.72937 13.3301C9.09802 13.0686 8.55839 12.6257 8.17874 12.0575C7.79908 11.4893 7.59643 10.8213 7.59643 10.1379C7.59643 9.22154 7.96046 8.34271 8.60843 7.69474C9.2564 7.04677 10.1352 6.68274 11.0516 6.68274Z" fill="white" stroke="white" stroke-width="0.4"/>
<mask id="path-2-outside-1" maskUnits="userSpaceOnUse" x="0" y="0" width="55" height="55" fill="black">
<rect fill="white" width="55" height="55"/>
<path d="M52.2108 7.39655H42.1207V5.56896C42.1207 4.84191 41.8319 4.14463 41.3178 3.63052C40.8036 3.11641 40.1064 2.82759 39.3793 2.82759H24.7586V1.91379C24.7586 1.67144 24.6623 1.43901 24.491 1.26764C24.3196 1.09627 24.0872 1 23.8448 1C23.6025 1 23.37 1.09627 23.1987 1.26764C23.0273 1.43901 22.931 1.67144 22.931 1.91379V17.4483H7.39655C5.70067 17.4502 4.07481 18.1248 2.87564 19.3239C1.67648 20.5231 1.00193 22.1489 1 23.8448V32.069C1 33.0384 1.3851 33.9681 2.07057 34.6536C2.75605 35.339 3.68576 35.7241 4.65517 35.7241V37.1816C4.66066 38.8493 4.66705 40.9529 4.66705 50.1977C4.6572 51.1514 5.00913 52.0733 5.65194 52.7779C6.29475 53.4824 7.18067 53.9171 8.13124 53.9945C8.62648 54.0185 9.12144 53.9417 9.58619 53.769C10.0509 53.5962 10.4758 53.331 10.8352 52.9893C10.9128 52.9162 10.9859 52.8395 11.0554 52.7609C11.3971 53.1506 11.8181 53.4627 12.2903 53.6764C12.7624 53.8901 13.2748 54.0005 13.7931 54C14.2627 54.0185 14.7313 53.9426 15.1711 53.777C15.6109 53.6113 16.0131 53.3592 16.3538 53.0355C16.6945 52.7118 16.9669 52.3231 17.1549 51.8923C17.3429 51.4616 17.4427 50.9975 17.4483 50.5276V25.6596C17.4516 25.4195 17.5494 25.1903 17.7204 25.0217C17.8914 24.8531 18.1219 24.7586 18.3621 24.7586H22.931V43.2026C22.3213 43.4182 21.8075 43.8423 21.4803 44.4001C21.1531 44.9579 21.0336 45.6134 21.1429 46.2508C21.2523 46.8882 21.5834 47.4663 22.0779 47.8832C22.5723 48.3 23.1981 48.5286 23.8448 48.5286C24.4915 48.5286 25.1174 48.3 25.6118 47.8832C26.1062 47.4663 26.4374 46.8882 26.5467 46.2508C26.6561 45.6134 26.5366 44.9579 26.2094 44.4001C25.8822 43.8423 25.3683 43.4182 24.7586 43.2026V24.7586H26.5862C27.5429 24.7788 28.4709 24.4311 29.1789 23.7872C29.8868 23.1434 30.3208 22.2524 30.3912 21.2981C30.4194 20.802 30.3453 20.3054 30.1735 19.8392C30.0016 19.3729 29.7358 18.947 29.3925 18.5878C29.0506 18.2285 28.6394 17.9423 28.1838 17.7464C27.7281 17.5506 27.2375 17.4491 26.7416 17.4483H24.7586V15.6207H40.2931V17.4483C40.2931 18.1753 40.5819 18.8726 41.096 19.3867C41.6101 19.9008 42.3074 20.1897 43.0345 20.1897H52.2108C52.6852 20.1892 53.14 20.0005 53.4754 19.6651C53.8109 19.3296 53.9995 18.8748 54 18.4004V9.18576C53.9995 8.71138 53.8109 8.25657 53.4754 7.92113C53.14 7.5857 52.6852 7.39704 52.2108 7.39655ZM23.8448 46.6897C23.6641 46.6897 23.4874 46.6361 23.3372 46.5357C23.1869 46.4352 23.0698 46.2925 23.0006 46.1255C22.9314 45.9586 22.9133 45.7748 22.9486 45.5976C22.9839 45.4203 23.0709 45.2575 23.1987 45.1297C23.3265 45.0019 23.4893 44.9149 23.6666 44.8796C23.8438 44.8444 24.0275 44.8625 24.1945 44.9316C24.3615 45.0008 24.5042 45.1179 24.6046 45.2682C24.705 45.4185 24.7586 45.5951 24.7586 45.7759C24.7586 46.0182 24.6623 46.2506 24.491 46.422C24.3196 46.5934 24.0872 46.6897 23.8448 46.6897ZM12.4745 19.2759L11.0517 23.0699L9.62895 19.2759H12.4745ZM28.0675 19.8461C28.2391 20.0259 28.372 20.239 28.4578 20.4723C28.5436 20.7056 28.5806 20.954 28.5664 21.2021C28.5144 21.6866 28.2817 22.1336 27.9146 22.4541C27.5476 22.7745 27.0733 22.9449 26.5862 22.931H18.3621C17.6364 22.931 16.9404 23.2187 16.4265 23.7311C15.9127 24.2434 15.6229 24.9386 15.6207 25.6642V50.5322C15.6207 52.1276 13.8132 52.177 13.7931 52.177C13.3097 52.175 12.8467 51.9816 12.5055 51.6391C12.1644 51.2966 11.9728 50.8328 11.9728 50.3494L11.9655 40.2931C11.9655 40.0507 11.8692 39.8183 11.6979 39.6469C11.5265 39.4756 11.2941 39.3793 11.0517 39.3793C10.8094 39.3793 10.5769 39.4756 10.4056 39.6469C10.2342 39.8183 10.1379 40.0507 10.1379 40.2931L10.1452 50.3448C10.1456 50.5927 10.0954 50.8381 9.99792 51.066C9.90042 51.2939 9.75757 51.4996 9.57806 51.6705C9.39855 51.8415 9.18615 51.9741 8.95376 52.0604C8.72137 52.1467 8.47385 52.1848 8.22628 52.1724C7.743 52.1223 7.29656 51.8913 6.97656 51.5257C6.65655 51.1601 6.48668 50.687 6.50103 50.2014C6.50103 40.9529 6.49464 38.8475 6.48915 37.1798L6.48276 34.8103V23.8448C6.48276 23.6025 6.38648 23.37 6.21511 23.1987C6.04375 23.0273 5.81132 22.931 5.56897 22.931C5.32661 22.931 5.09419 23.0273 4.92282 23.1987C4.75145 23.37 4.65517 23.6025 4.65517 23.8448V33.8965C4.17047 33.8965 3.70561 33.704 3.36287 33.3613C3.02013 33.0185 2.82759 32.5537 2.82759 32.069V23.8448C2.82904 22.6335 3.31087 21.4722 4.16741 20.6157C5.02394 19.7591 6.18523 19.2773 7.39655 19.2759H7.67709L10.1955 25.9941C10.2606 26.1686 10.3775 26.3192 10.5305 26.4254C10.6835 26.5317 10.8654 26.5886 11.0517 26.5886C11.238 26.5886 11.4199 26.5317 11.5729 26.4254C11.726 26.3192 11.8429 26.1686 11.9079 25.9941L14.4264 19.2759H26.7416C26.9898 19.2751 27.2356 19.3252 27.4637 19.4233C27.6918 19.5214 27.8973 19.6653 28.0675 19.8461ZM24.7586 13.7931V10.1379H27.5C27.7424 10.1379 27.9748 10.0417 28.1461 9.87029C28.3175 9.69892 28.4138 9.46649 28.4138 9.22414C28.4138 8.98178 28.3175 8.74936 28.1461 8.57799C27.9748 8.40662 27.7424 8.31034 27.5 8.31034H24.7586V4.65517H39.3793C39.6217 4.65517 39.8541 4.75145 40.0255 4.92282C40.1968 5.09419 40.2931 5.32661 40.2931 5.56896V13.7931H24.7586ZM43.0345 18.3621C42.7921 18.3621 42.5597 18.2658 42.3883 18.0944C42.217 17.9231 42.1207 17.6906 42.1207 17.4483V9.22414L52.1724 9.18941V12.8793H49.431C49.1887 12.8793 48.9563 12.9756 48.7849 13.147C48.6135 13.3183 48.5172 13.5507 48.5172 13.7931C48.5172 14.0355 48.6135 14.2679 48.7849 14.4393C48.9563 14.6106 49.1887 14.7069 49.431 14.7069H52.1724V18.3621H43.0345Z"/>
</mask>
<path d="M52.2108 7.39655H42.1207V5.56896C42.1207 4.84191 41.8319 4.14463 41.3178 3.63052C40.8036 3.11641 40.1064 2.82759 39.3793 2.82759H24.7586V1.91379C24.7586 1.67144 24.6623 1.43901 24.491 1.26764C24.3196 1.09627 24.0872 1 23.8448 1C23.6025 1 23.37 1.09627 23.1987 1.26764C23.0273 1.43901 22.931 1.67144 22.931 1.91379V17.4483H7.39655C5.70067 17.4502 4.07481 18.1248 2.87564 19.3239C1.67648 20.5231 1.00193 22.1489 1 23.8448V32.069C1 33.0384 1.3851 33.9681 2.07057 34.6536C2.75605 35.339 3.68576 35.7241 4.65517 35.7241V37.1816C4.66066 38.8493 4.66705 40.9529 4.66705 50.1977C4.6572 51.1514 5.00913 52.0733 5.65194 52.7779C6.29475 53.4824 7.18067 53.9171 8.13124 53.9945C8.62648 54.0185 9.12144 53.9417 9.58619 53.769C10.0509 53.5962 10.4758 53.331 10.8352 52.9893C10.9128 52.9162 10.9859 52.8395 11.0554 52.7609C11.3971 53.1506 11.8181 53.4627 12.2903 53.6764C12.7624 53.8901 13.2748 54.0005 13.7931 54C14.2627 54.0185 14.7313 53.9426 15.1711 53.777C15.6109 53.6113 16.0131 53.3592 16.3538 53.0355C16.6945 52.7118 16.9669 52.3231 17.1549 51.8923C17.3429 51.4616 17.4427 50.9975 17.4483 50.5276V25.6596C17.4516 25.4195 17.5494 25.1903 17.7204 25.0217C17.8914 24.8531 18.1219 24.7586 18.3621 24.7586H22.931V43.2026C22.3213 43.4182 21.8075 43.8423 21.4803 44.4001C21.1531 44.9579 21.0336 45.6134 21.1429 46.2508C21.2523 46.8882 21.5834 47.4663 22.0779 47.8832C22.5723 48.3 23.1981 48.5286 23.8448 48.5286C24.4915 48.5286 25.1174 48.3 25.6118 47.8832C26.1062 47.4663 26.4374 46.8882 26.5467 46.2508C26.6561 45.6134 26.5366 44.9579 26.2094 44.4001C25.8822 43.8423 25.3683 43.4182 24.7586 43.2026V24.7586H26.5862C27.5429 24.7788 28.4709 24.4311 29.1789 23.7872C29.8868 23.1434 30.3208 22.2524 30.3912 21.2981C30.4194 20.802 30.3453 20.3054 30.1735 19.8392C30.0016 19.3729 29.7358 18.947 29.3925 18.5878C29.0506 18.2285 28.6394 17.9423 28.1838 17.7464C27.7281 17.5506 27.2375 17.4491 26.7416 17.4483H24.7586V15.6207H40.2931V17.4483C40.2931 18.1753 40.5819 18.8726 41.096 19.3867C41.6101 19.9008 42.3074 20.1897 43.0345 20.1897H52.2108C52.6852 20.1892 53.14 20.0005 53.4754 19.6651C53.8109 19.3296 53.9995 18.8748 54 18.4004V9.18576C53.9995 8.71138 53.8109 8.25657 53.4754 7.92113C53.14 7.5857 52.6852 7.39704 52.2108 7.39655ZM23.8448 46.6897C23.6641 46.6897 23.4874 46.6361 23.3372 46.5357C23.1869 46.4352 23.0698 46.2925 23.0006 46.1255C22.9314 45.9586 22.9133 45.7748 22.9486 45.5976C22.9839 45.4203 23.0709 45.2575 23.1987 45.1297C23.3265 45.0019 23.4893 44.9149 23.6666 44.8796C23.8438 44.8444 24.0275 44.8625 24.1945 44.9316C24.3615 45.0008 24.5042 45.1179 24.6046 45.2682C24.705 45.4185 24.7586 45.5951 24.7586 45.7759C24.7586 46.0182 24.6623 46.2506 24.491 46.422C24.3196 46.5934 24.0872 46.6897 23.8448 46.6897ZM12.4745 19.2759L11.0517 23.0699L9.62895 19.2759H12.4745ZM28.0675 19.8461C28.2391 20.0259 28.372 20.239 28.4578 20.4723C28.5436 20.7056 28.5806 20.954 28.5664 21.2021C28.5144 21.6866 28.2817 22.1336 27.9146 22.4541C27.5476 22.7745 27.0733 22.9449 26.5862 22.931H18.3621C17.6364 22.931 16.9404 23.2187 16.4265 23.7311C15.9127 24.2434 15.6229 24.9386 15.6207 25.6642V50.5322C15.6207 52.1276 13.8132 52.177 13.7931 52.177C13.3097 52.175 12.8467 51.9816 12.5055 51.6391C12.1644 51.2966 11.9728 50.8328 11.9728 50.3494L11.9655 40.2931C11.9655 40.0507 11.8692 39.8183 11.6979 39.6469C11.5265 39.4756 11.2941 39.3793 11.0517 39.3793C10.8094 39.3793 10.5769 39.4756 10.4056 39.6469C10.2342 39.8183 10.1379 40.0507 10.1379 40.2931L10.1452 50.3448C10.1456 50.5927 10.0954 50.8381 9.99792 51.066C9.90042 51.2939 9.75757 51.4996 9.57806 51.6705C9.39855 51.8415 9.18615 51.9741 8.95376 52.0604C8.72137 52.1467 8.47385 52.1848 8.22628 52.1724C7.743 52.1223 7.29656 51.8913 6.97656 51.5257C6.65655 51.1601 6.48668 50.687 6.50103 50.2014C6.50103 40.9529 6.49464 38.8475 6.48915 37.1798L6.48276 34.8103V23.8448C6.48276 23.6025 6.38648 23.37 6.21511 23.1987C6.04375 23.0273 5.81132 22.931 5.56897 22.931C5.32661 22.931 5.09419 23.0273 4.92282 23.1987C4.75145 23.37 4.65517 23.6025 4.65517 23.8448V33.8965C4.17047 33.8965 3.70561 33.704 3.36287 33.3613C3.02013 33.0185 2.82759 32.5537 2.82759 32.069V23.8448C2.82904 22.6335 3.31087 21.4722 4.16741 20.6157C5.02394 19.7591 6.18523 19.2773 7.39655 19.2759H7.67709L10.1955 25.9941C10.2606 26.1686 10.3775 26.3192 10.5305 26.4254C10.6835 26.5317 10.8654 26.5886 11.0517 26.5886C11.238 26.5886 11.4199 26.5317 11.5729 26.4254C11.726 26.3192 11.8429 26.1686 11.9079 25.9941L14.4264 19.2759H26.7416C26.9898 19.2751 27.2356 19.3252 27.4637 19.4233C27.6918 19.5214 27.8973 19.6653 28.0675 19.8461ZM24.7586 13.7931V10.1379H27.5C27.7424 10.1379 27.9748 10.0417 28.1461 9.87029C28.3175 9.69892 28.4138 9.46649 28.4138 9.22414C28.4138 8.98178 28.3175 8.74936 28.1461 8.57799C27.9748 8.40662 27.7424 8.31034 27.5 8.31034H24.7586V4.65517H39.3793C39.6217 4.65517 39.8541 4.75145 40.0255 4.92282C40.1968 5.09419 40.2931 5.32661 40.2931 5.56896V13.7931H24.7586ZM43.0345 18.3621C42.7921 18.3621 42.5597 18.2658 42.3883 18.0944C42.217 17.9231 42.1207 17.6906 42.1207 17.4483V9.22414L52.1724 9.18941V12.8793H49.431C49.1887 12.8793 48.9563 12.9756 48.7849 13.147C48.6135 13.3183 48.5172 13.5507 48.5172 13.7931C48.5172 14.0355 48.6135 14.2679 48.7849 14.4393C48.9563 14.6106 49.1887 14.7069 49.431 14.7069H52.1724V18.3621H43.0345Z" fill="white"/>
<path d="M52.2108 7.39655H42.1207V5.56896C42.1207 4.84191 41.8319 4.14463 41.3178 3.63052C40.8036 3.11641 40.1064 2.82759 39.3793 2.82759H24.7586V1.91379C24.7586 1.67144 24.6623 1.43901 24.491 1.26764C24.3196 1.09627 24.0872 1 23.8448 1C23.6025 1 23.37 1.09627 23.1987 1.26764C23.0273 1.43901 22.931 1.67144 22.931 1.91379V17.4483H7.39655C5.70067 17.4502 4.07481 18.1248 2.87564 19.3239C1.67648 20.5231 1.00193 22.1489 1 23.8448V32.069C1 33.0384 1.3851 33.9681 2.07057 34.6536C2.75605 35.339 3.68576 35.7241 4.65517 35.7241V37.1816C4.66066 38.8493 4.66705 40.9529 4.66705 50.1977C4.6572 51.1514 5.00913 52.0733 5.65194 52.7779C6.29475 53.4824 7.18067 53.9171 8.13124 53.9945C8.62648 54.0185 9.12144 53.9417 9.58619 53.769C10.0509 53.5962 10.4758 53.331 10.8352 52.9893C10.9128 52.9162 10.9859 52.8395 11.0554 52.7609C11.3971 53.1506 11.8181 53.4627 12.2903 53.6764C12.7624 53.8901 13.2748 54.0005 13.7931 54C14.2627 54.0185 14.7313 53.9426 15.1711 53.777C15.6109 53.6113 16.0131 53.3592 16.3538 53.0355C16.6945 52.7118 16.9669 52.3231 17.1549 51.8923C17.3429 51.4616 17.4427 50.9975 17.4483 50.5276V25.6596C17.4516 25.4195 17.5494 25.1903 17.7204 25.0217C17.8914 24.8531 18.1219 24.7586 18.3621 24.7586H22.931V43.2026C22.3213 43.4182 21.8075 43.8423 21.4803 44.4001C21.1531 44.9579 21.0336 45.6134 21.1429 46.2508C21.2523 46.8882 21.5834 47.4663 22.0779 47.8832C22.5723 48.3 23.1981 48.5286 23.8448 48.5286C24.4915 48.5286 25.1174 48.3 25.6118 47.8832C26.1062 47.4663 26.4374 46.8882 26.5467 46.2508C26.6561 45.6134 26.5366 44.9579 26.2094 44.4001C25.8822 43.8423 25.3683 43.4182 24.7586 43.2026V24.7586H26.5862C27.5429 24.7788 28.4709 24.4311 29.1789 23.7872C29.8868 23.1434 30.3208 22.2524 30.3912 21.2981C30.4194 20.802 30.3453 20.3054 30.1735 19.8392C30.0016 19.3729 29.7358 18.947 29.3925 18.5878C29.0506 18.2285 28.6394 17.9423 28.1838 17.7464C27.7281 17.5506 27.2375 17.4491 26.7416 17.4483H24.7586V15.6207H40.2931V17.4483C40.2931 18.1753 40.5819 18.8726 41.096 19.3867C41.6101 19.9008 42.3074 20.1897 43.0345 20.1897H52.2108C52.6852 20.1892 53.14 20.0005 53.4754 19.6651C53.8109 19.3296 53.9995 18.8748 54 18.4004V9.18576C53.9995 8.71138 53.8109 8.25657 53.4754 7.92113C53.14 7.5857 52.6852 7.39704 52.2108 7.39655ZM23.8448 46.6897C23.6641 46.6897 23.4874 46.6361 23.3372 46.5357C23.1869 46.4352 23.0698 46.2925 23.0006 46.1255C22.9314 45.9586 22.9133 45.7748 22.9486 45.5976C22.9839 45.4203 23.0709 45.2575 23.1987 45.1297C23.3265 45.0019 23.4893 44.9149 23.6666 44.8796C23.8438 44.8444 24.0275 44.8625 24.1945 44.9316C24.3615 45.0008 24.5042 45.1179 24.6046 45.2682C24.705 45.4185 24.7586 45.5951 24.7586 45.7759C24.7586 46.0182 24.6623 46.2506 24.491 46.422C24.3196 46.5934 24.0872 46.6897 23.8448 46.6897ZM12.4745 19.2759L11.0517 23.0699L9.62895 19.2759H12.4745ZM28.0675 19.8461C28.2391 20.0259 28.372 20.239 28.4578 20.4723C28.5436 20.7056 28.5806 20.954 28.5664 21.2021C28.5144 21.6866 28.2817 22.1336 27.9146 22.4541C27.5476 22.7745 27.0733 22.9449 26.5862 22.931H18.3621C17.6364 22.931 16.9404 23.2187 16.4265 23.7311C15.9127 24.2434 15.6229 24.9386 15.6207 25.6642V50.5322C15.6207 52.1276 13.8132 52.177 13.7931 52.177C13.3097 52.175 12.8467 51.9816 12.5055 51.6391C12.1644 51.2966 11.9728 50.8328 11.9728 50.3494L11.9655 40.2931C11.9655 40.0507 11.8692 39.8183 11.6979 39.6469C11.5265 39.4756 11.2941 39.3793 11.0517 39.3793C10.8094 39.3793 10.5769 39.4756 10.4056 39.6469C10.2342 39.8183 10.1379 40.0507 10.1379 40.2931L10.1452 50.3448C10.1456 50.5927 10.0954 50.8381 9.99792 51.066C9.90042 51.2939 9.75757 51.4996 9.57806 51.6705C9.39855 51.8415 9.18615 51.9741 8.95376 52.0604C8.72137 52.1467 8.47385 52.1848 8.22628 52.1724C7.743 52.1223 7.29656 51.8913 6.97656 51.5257C6.65655 51.1601 6.48668 50.687 6.50103 50.2014C6.50103 40.9529 6.49464 38.8475 6.48915 37.1798L6.48276 34.8103V23.8448C6.48276 23.6025 6.38648 23.37 6.21511 23.1987C6.04375 23.0273 5.81132 22.931 5.56897 22.931C5.32661 22.931 5.09419 23.0273 4.92282 23.1987C4.75145 23.37 4.65517 23.6025 4.65517 23.8448V33.8965C4.17047 33.8965 3.70561 33.704 3.36287 33.3613C3.02013 33.0185 2.82759 32.5537 2.82759 32.069V23.8448C2.82904 22.6335 3.31087 21.4722 4.16741 20.6157C5.02394 19.7591 6.18523 19.2773 7.39655 19.2759H7.67709L10.1955 25.9941C10.2606 26.1686 10.3775 26.3192 10.5305 26.4254C10.6835 26.5317 10.8654 26.5886 11.0517 26.5886C11.238 26.5886 11.4199 26.5317 11.5729 26.4254C11.726 26.3192 11.8429 26.1686 11.9079 25.9941L14.4264 19.2759H26.7416C26.9898 19.2751 27.2356 19.3252 27.4637 19.4233C27.6918 19.5214 27.8973 19.6653 28.0675 19.8461ZM24.7586 13.7931V10.1379H27.5C27.7424 10.1379 27.9748 10.0417 28.1461 9.87029C28.3175 9.69892 28.4138 9.46649 28.4138 9.22414C28.4138 8.98178 28.3175 8.74936 28.1461 8.57799C27.9748 8.40662 27.7424 8.31034 27.5 8.31034H24.7586V4.65517H39.3793C39.6217 4.65517 39.8541 4.75145 40.0255 4.92282C40.1968 5.09419 40.2931 5.32661 40.2931 5.56896V13.7931H24.7586ZM43.0345 18.3621C42.7921 18.3621 42.5597 18.2658 42.3883 18.0944C42.217 17.9231 42.1207 17.6906 42.1207 17.4483V9.22414L52.1724 9.18941V12.8793H49.431C49.1887 12.8793 48.9563 12.9756 48.7849 13.147C48.6135 13.3183 48.5172 13.5507 48.5172 13.7931C48.5172 14.0355 48.6135 14.2679 48.7849 14.4393C48.9563 14.6106 49.1887 14.7069 49.431 14.7069H52.1724V18.3621H43.0345Z" stroke="white" stroke-width="0.8" mask="url(#path-2-outside-1)"/>
</svg>
