<svg width="64" height="58" viewBox="0 0 64 58" fill="none" xmlns="http://www.w3.org/2000/svg">
<path d="M38.0421 54.413V54.513H38.1421H59.3581C61.1739 54.513 62.6241 52.7824 62.6251 50.6901V50.69C62.6251 48.5986 61.1749 46.868 59.3591 46.868H38.1421H38.0421V46.968V48.968V49.068H38.1421H59.3591C59.6243 49.068 59.8889 49.2408 60.0922 49.5408C60.2942 49.8391 60.4251 50.2498 60.4251 50.69C60.4251 51.1303 60.2942 51.5412 60.0922 51.8397C59.8889 52.1401 59.6243 52.313 59.3591 52.313H38.1421H38.0421V52.413V54.413Z" fill="white" stroke="white" stroke-width="0.2"/>
<path d="M57.7871 49.0679H57.8871V48.9679V46.1509C57.8871 44.4017 57.349 42.6541 56.4239 41.3774C55.4591 39.9639 54.0304 39.1469 52.5031 39.1469H39.7471C39.008 39.1469 38.2819 39.3514 37.5911 39.7504L37.5044 39.8004L37.5546 39.887L38.5566 41.618L38.6067 41.7046L38.6932 41.6545C39.0486 41.4488 39.4025 41.3469 39.7471 41.3469H52.5041C53.2936 41.3469 54.0419 41.7898 54.6246 42.6424L54.6245 42.6424L54.6262 42.6447C55.2992 43.5725 55.6881 44.8512 55.6881 46.1509V46.8679H38.1421H38.0421V46.9679V48.9679V49.0679H38.1421H57.7871Z" fill="white" stroke="white" stroke-width="0.2"/>
<path d="M44.4388 30.3516L44.4385 30.3515L48.9589 40.247H49.0589V40.2468V31.4339V31.3339H48.9589H46.9589H46.8589V31.4339V39.147H45.3419V32.6635C45.6895 32.6914 45.9718 32.7091 46.034 32.7128L46.1337 32.7186L46.1397 32.619L46.2607 30.623L46.2668 30.5232L46.167 30.5171C45.8213 30.496 44.8448 30.4253 44.4388 30.3516Z" fill="white" stroke="white" stroke-width="0.2"/>
<path d="M45.9593 32.7149V32.7149H45.961H46.243H46.243H46.2431H46.2431H46.2431H46.2432H46.2432H46.2432H46.2433H46.2433H46.2433H46.2434H46.2434H46.2434H46.2435H46.2435H46.2436H46.2436H46.2436H46.2437H46.2437H46.2437H46.2438H46.2438H46.2438H46.2439H46.2439H46.2439H46.244H46.244H46.244H46.2441H46.2441H46.2441H46.2442H46.2442H46.2442H46.2443H46.2443H46.2443H46.2444H46.2444H46.2444H46.2445H46.2445H46.2446H46.2446H46.2446H46.2447H46.2447H46.2447H46.2448H46.2448H46.2448H46.2449H46.2449H46.2449H46.245H46.245H46.245H46.2451H46.2451H46.2451H46.2452H46.2452H46.2452H46.2453H46.2453H46.2453H46.2454H46.2454H46.2454H46.2455H46.2455H46.2455H46.2456H46.2456H46.2456H46.2457H46.2457H46.2457H46.2458H46.2458H46.2458H46.2459H46.2459H46.2459H46.246H46.246H46.246H46.2461H46.2461H46.2461H46.2462H46.2462H46.2462H46.2463H46.2463H46.2463H46.2464H46.2464H46.2464H46.2465H46.2465H46.2465H46.2466H46.2466H46.2466H46.2467H46.2467H46.2467H46.2468H46.2468H46.2468H46.2469H46.2469H46.2469H46.247H46.247H46.247H46.2471H46.2471H46.2471H46.2472H46.2472H46.2472H46.2473H46.2473H46.2473H46.2474H46.2474H46.2474H46.2475H46.2475H46.2475H46.2476H46.2476H46.2476H46.2477H46.2477H46.2477H46.2478H46.2478H46.2478H46.2479H46.2479H46.2479H46.248H46.248H46.248H46.2481H46.2481H46.2481H46.2482H46.2482H46.2482H46.2483H46.2483H46.2483H46.2484H46.2484H46.2484H46.2485H46.2485H46.2485H46.2485H46.2486H46.2486H46.2486H46.2487H46.2487H46.2487H46.2488H46.2488H46.2488H46.2489H46.2489H46.2489H46.249H46.249H46.249H46.2491H46.2491H46.2491H46.2492H46.2492H46.2492H46.2493H46.2493H46.2493H46.2494H46.2494H46.2494H46.2495H46.2495H46.2495H46.2496H46.2496H46.2496H46.2497H46.2497H46.2497H46.2497H46.2498H46.2498H46.2498H46.2499H46.2499H46.2499H46.25H46.25H46.25H46.2501H46.2501H46.2501H46.2502H46.2502H46.2502H46.2503H46.2503H46.2503H46.2504H46.2504H46.2504H46.2505H46.2505H46.2505H46.2506H46.2506H46.2506H46.2507H46.2507H46.2507H46.2508H46.2508H46.2508H46.2508H46.2509H46.2509H46.2509H46.251H46.251H46.251H46.2511H46.2511H46.2511H46.2512H46.2512H46.2512H46.2513H46.2513H46.2513H46.2514H46.2514H46.2514H46.2515H46.2515H46.2515H46.2516H46.2516H46.2516H46.2517H46.2517H46.2517H46.2517H46.2518H46.2518H46.2518H46.2519H46.2519H46.2519H46.252H46.252H46.252H46.2521H46.2521H46.2521H46.2522H46.2522H46.2522H46.2523H46.2523H46.2523H46.2524H46.2524H46.2524H46.2525H46.2525H46.2525H46.2526H46.2526H46.2526H46.2527H46.2527H46.2527H46.2527H46.2528H46.2528H46.2528H46.2529H46.2529H46.2529H46.253H46.253H46.253H46.2531H46.2531H46.2531H46.2532H46.2532H46.2532H46.2533H46.2533H46.2533H46.2534H46.2534H46.2534H46.2535H46.2535H46.2535H46.2536H46.2536H46.2536H46.2537H46.2537H46.2537H46.2538H46.2538H46.2538H46.2538H46.2539H46.2539H46.2539H46.254H46.254H46.254H46.2541H46.2541H46.2541H46.2542H46.2542H46.2542H46.2543H46.2543H46.2543H46.2544H46.2544H46.2544H46.2545H46.2545H46.2545H46.2546H46.2546H46.2546H46.2547H46.2547H46.2547H46.2548H46.2548H46.2548H46.2549H46.2549H46.2549H46.255H46.255H46.255H46.2551H46.2551H46.2551H46.2552H46.2552H46.2552H46.2553H46.2553H46.2553H46.2554H46.2554H46.2554H46.2555H46.2555H46.2555H46.2555H46.2556H46.2556H46.2556H46.2557H46.2557H46.2557H46.2558H46.2558H46.2558H46.2559H46.2559H46.2559H46.256H46.256H46.256H46.2561H46.2561H46.2561H46.2562H46.2562H46.2562H46.2563H46.2563H46.2563H46.2564H46.2564H46.2564H46.2565H46.2565H46.2565H46.2566H46.2566H46.2566H46.2567H46.2567H46.2567H46.2568H46.2568H46.2568H46.2569H46.2569H46.2569H46.257H46.257H46.257H46.2571H46.2571H46.2571H46.2572H46.2572H46.2572H46.2573H46.2573H46.2573H46.2574H46.2574H46.2574H46.2575H46.2575H46.2575H46.2576H46.2576H46.2576H46.2577H46.2577H46.2577H46.2578H46.2578H46.2579H46.2579H46.2579H46.258H46.258H46.258H46.2581H46.2581H46.2581H46.2582H46.2582H46.2582H46.2583H46.2583H46.2583H46.2584H46.2584H46.2584H46.2585H46.2585H46.2585H46.2586H46.2586H46.2586H46.2587H46.2587H46.2587H46.2588H46.2588H46.2588H46.2589H46.2589H46.2589H46.259H46.259H46.259H46.2591H46.2591H46.2592H46.2592H46.2592H46.2593H46.2593H46.2593H46.2594H46.2594H46.2594H46.2595H46.2595H46.2595H46.2596H46.2596H46.2596H46.2597H46.2597H46.2597H46.2598H46.2598H46.2599H46.2599H46.2599H46.26L46.26 32.715L46.2617 32.7149C49.3384 32.6635 52.2969 31.3871 54.3718 29.2195C56.5747 26.974 57.839 23.8972 57.839 20.7769V7.44495C57.839 6.83778 57.3473 6.34495 56.739 6.34495H35.417C34.8087 6.34495 34.317 6.83778 34.317 7.44495L34.317 20.7449L34.317 20.7465C34.3674 23.9511 35.5979 26.9437 37.7762 29.1636C39.9199 31.4018 42.8212 32.6625 45.9593 32.7149ZM39.3562 27.6328L39.3554 27.6319C37.5671 25.809 36.5578 23.3521 36.517 20.7282V8.54495H55.639V20.7779C55.639 23.3254 54.6045 25.8413 52.7916 27.6889L52.7907 27.6898C51.1149 29.4408 48.7259 30.4712 46.2331 30.5149H45.9778C43.4476 30.4732 41.0984 29.4522 39.3562 27.6328Z" fill="white" stroke="white" stroke-width="0.2"/>
<path d="M55.639 22.4601V22.5804L55.7573 22.5584L56.9403 22.3384L56.9403 22.3384C58.4368 22.0597 59.7762 21.4452 60.7942 20.5738C62.2587 19.3778 63.1 17.6522 63.1 15.8371C63.1 14.081 62.265 12.3612 60.8121 11.1171C59.7771 10.2303 58.4364 9.61556 56.9403 9.33675L56.8421 9.31844L56.8237 9.41671L56.4567 11.3827L56.4384 11.481L56.5367 11.4994C57.6604 11.7087 58.6434 12.1552 59.3809 12.788L59.381 12.788C60.3502 13.618 60.9 14.7305 60.9 15.8371C60.9 16.9845 60.3556 18.0909 59.3837 18.8856L59.3837 18.8856L59.382 18.8871C58.6434 19.5189 57.6603 19.9664 56.5367 20.1757L56.4383 20.1941L56.4567 20.2924L56.5196 20.6291H55.739H55.639V20.7291V22.4601Z" fill="white" stroke="white" stroke-width="0.2"/>
<path d="M36.402 22.5659L36.517 22.5833V22.467V20.776V20.676H36.417H35.6133L35.6659 20.33L35.6809 20.2311L35.582 20.2162C34.584 20.065 33.6106 19.6123 32.8418 18.9407L32.8418 18.9407C31.8914 18.111 31.35 16.9963 31.35 15.885C31.35 14.7338 31.8842 13.6263 32.84 12.8309L32.84 12.8309L32.8417 12.8294C33.5634 12.1998 34.5243 11.7545 35.6216 11.5463L35.7199 11.5276L35.7012 11.4294L35.3282 9.46438L35.3096 9.36616L35.2114 9.38478C33.7356 9.66458 32.415 10.2812 31.4141 11.1549C29.9768 12.3511 29.15 14.0745 29.15 15.885C29.15 17.6376 29.9716 19.3552 31.3952 20.5984L31.3953 20.5984C32.4765 21.5418 33.845 22.178 35.252 22.3919L35.252 22.3919L36.402 22.5659Z" fill="white" stroke="white" stroke-width="0.2"/>
<path d="M32.7981 8.545H59.3581C61.1739 8.545 62.6241 6.81442 62.6251 4.72205C62.6251 2.63057 61.1749 0.9 59.3591 0.9H32.7981C30.9823 0.9 29.5321 2.63057 29.5321 4.722C29.5321 6.81442 30.9823 8.545 32.7981 8.545ZM31.7321 4.722C31.7321 4.28228 31.863 3.87155 32.065 3.57319C32.2683 3.27294 32.5329 3.1 32.7981 3.1H59.3581C59.6234 3.1 59.8882 3.27278 60.0917 3.57288C60.2939 3.87109 60.4251 4.28181 60.4251 4.722C60.4251 5.16224 60.2942 5.57323 60.0921 5.8717C59.8888 6.17206 59.6243 6.345 59.3591 6.345H32.7981C32.5329 6.345 32.2684 6.17186 32.065 5.87134C31.863 5.57272 31.7321 5.16172 31.7321 4.722Z" fill="white" stroke="white" stroke-width="0.2"/>
<path d="M42.1039 25.0911L42.1039 25.091C41.7599 24.8514 41.5804 24.4369 41.6442 24.0219L42.1039 25.0911ZM42.1039 25.0911C42.292 25.2219 42.511 25.288 42.7311 25.288C42.9144 25.288 43.0997 25.242 43.2657 25.1448L46.4659 23.3634L49.7213 25.0399L49.7213 25.0399C50.0952 25.2324 50.5451 25.195 50.8816 24.9453C51.2184 24.6955 51.3833 24.2753 51.3074 23.8629L51.3074 23.8628L50.6288 20.1837L53.2156 17.5318L53.2157 17.5318C53.5062 17.2336 53.6028 16.797 53.4676 16.4035L53.4675 16.4032C53.3312 16.0106 52.9847 15.7267 52.571 15.6728L48.9485 15.1977L47.2753 11.879L47.2753 11.8788C47.0878 11.5083 46.7035 11.2429 46.2734 11.2741C45.8525 11.2828 45.4732 11.5288 45.2954 11.9108L45.2954 11.9108L43.7286 15.2819L40.1228 15.8763L40.1227 15.8763C39.7117 15.9445 39.3738 16.237 39.2505 16.6354C39.1273 17.0335 39.2395 17.4668 39.5387 17.755L39.5387 17.7551L42.2074 20.3221L41.6442 24.0218L42.1039 25.0911ZM44.1576 22.1355L44.4689 20.0901C44.4689 20.0901 44.4689 20.09 44.4689 20.09C44.5228 19.7369 44.4018 19.3794 44.1444 19.1319L44.1443 19.1319L42.6462 17.6921L44.6601 17.3597C44.6601 17.3597 44.6601 17.3597 44.6602 17.3597C45.0201 17.3013 45.3258 17.0679 45.4797 16.7383L45.4797 16.7381L46.3338 14.8992L47.2477 16.7079C47.2478 16.708 47.2478 16.708 47.2478 16.7081C47.4117 17.0336 47.7262 17.2568 48.0871 17.3041L50.109 17.5701L48.6585 19.0572L48.6584 19.0572C48.4089 19.3133 48.2988 19.6741 48.3637 20.0252L48.7397 22.0618L46.9518 21.1411L46.9515 21.1409C46.6262 20.9749 46.2359 20.9792 45.9134 21.1586L45.9621 21.246L45.9134 21.1586L44.1576 22.1355Z" fill="white" stroke="white" stroke-width="0.2"/>
<path d="M15.1075 30.693L15.2074 30.6934L15.2079 30.5934L15.2279 26.2769C15.2279 26.2769 15.2279 26.2768 15.2279 26.2767C15.2315 25.9054 15.522 25.611 15.8659 25.611H24.2949C24.6426 25.611 24.9329 25.908 24.9329 26.282V30.588V30.688H25.0329H27.0329H27.1329V30.588V26.282C27.1329 24.6999 25.8613 23.411 24.2949 23.411H15.8659C14.3138 23.411 13.0424 24.6885 13.0279 26.2611L13.0279 26.2615L13.0079 30.5835L13.0074 30.6835L13.1075 30.684L15.1075 30.693Z" fill="white" stroke="white" stroke-width="0.2"/>
<path d="M4.246 57.1H35.896C37.7424 57.1 39.242 55.579 39.241 53.712V32.877C39.241 31.01 37.7414 29.489 35.895 29.489H4.246C2.39956 29.489 0.9 31.01 0.9 32.877V53.712C0.9 55.579 2.39956 57.1 4.246 57.1ZM3.1 32.877C3.1 32.2191 3.61733 31.689 4.246 31.689H35.895C36.5237 31.689 37.041 32.2191 37.041 32.877V53.712C37.041 54.37 36.5246 54.9 35.895 54.9H4.246C3.61733 54.9 3.1 54.3699 3.1 53.712V32.877Z" fill="white" stroke="white" stroke-width="0.2"/>
<path d="M38.242 44.1589V44.0589H38.142H23.054H22.954V44.1589V46.1589V46.2589H23.054H38.142H38.242V46.1589V44.1589Z" fill="white" stroke="white" stroke-width="0.2"/>
<path d="M17.188 44.1589V44.0589H17.088H2H1.9V44.1589V46.1589V46.2589H2H17.088H17.188V46.1589V44.1589Z" fill="white" stroke="white" stroke-width="0.2"/>
<path d="M18.4591 49.509H21.6841C23.0449 49.509 24.1541 48.6641 24.1541 47.539V43.202C24.1541 42.077 23.0449 41.232 21.6841 41.232H18.4591C17.0983 41.232 15.9891 42.077 15.9891 43.202V47.539C15.9891 48.6641 17.0983 49.509 18.4591 49.509ZM18.4591 47.309C18.344 47.309 18.2538 47.2918 18.1891 47.272V43.469C18.2538 43.4493 18.344 43.432 18.4591 43.432H21.6841C21.7992 43.432 21.8894 43.4493 21.9541 43.469V47.272C21.8894 47.2918 21.7992 47.309 21.6841 47.309H18.4591Z" fill="white" stroke="white" stroke-width="0.2"/>
</svg>
