<svg width="49" height="66" viewBox="0 0 49 66" fill="none" xmlns="http://www.w3.org/2000/svg">
<path d="M12.5702 12.3967C12.5702 14.6705 13.2444 16.8933 14.5077 18.7839C15.771 20.6746 17.5665 22.1481 19.6673 23.0183C21.768 23.8884 24.0796 24.1161 26.3098 23.6725C28.5399 23.2289 30.5884 22.1339 32.1963 20.5261C33.8041 18.9183 34.8991 16.8697 35.3427 14.6396C35.7863 12.4095 35.5586 10.0979 34.6884 7.9971C33.8183 5.89636 32.3447 4.10082 30.4541 2.83754C28.5635 1.57427 26.3407 0.9 24.0669 0.9C21.0178 0.9 18.0935 2.11126 15.9375 4.26731C13.7814 6.42336 12.5702 9.34759 12.5702 12.3967ZM33.0842 12.3967C33.0842 14.1802 32.5554 15.9236 31.5645 17.4065C30.5737 18.8894 29.1654 20.0452 27.5177 20.7277C25.87 21.4102 24.0569 21.5887 22.3077 21.2408C20.5585 20.8929 18.9517 20.034 17.6906 18.7729C16.4295 17.5118 15.5707 15.9051 15.2228 14.1559C14.8748 12.4067 15.0534 10.5936 15.7359 8.94591C16.4184 7.2982 17.5742 5.88988 19.0571 4.89904C20.54 3.9082 22.2834 3.37934 24.0669 3.37934C26.4584 3.37934 28.752 4.32938 30.4431 6.02046C32.1342 7.71155 33.0842 10.0051 33.0842 12.3967Z" fill="white" stroke="white" stroke-width="0.2"/>
<path d="M34.1874 27.1124H34.1872H15.0977C13.8229 27.1124 12.6002 27.6189 11.6988 28.5203C10.7973 29.4218 10.2909 30.6444 10.2909 31.9193V39.6488H8.74385L3.95066 29.8261L8.8079 25.7822C9.29717 26.0342 9.83905 26.1681 10.39 26.1728L10.3908 26.1728C11.1471 26.1734 11.8834 25.9303 12.4907 25.4797C13.098 25.029 13.544 24.3947 13.7626 23.6706C13.9811 22.9466 13.9606 22.1715 13.704 21.4601C13.4475 20.7486 12.9686 20.1388 12.3383 19.7209C11.708 19.3029 10.9598 19.0992 10.2047 19.1398C9.44948 19.1804 8.72748 19.4633 8.14564 19.9464C7.5638 20.4295 7.15309 21.0872 6.97435 21.8221C6.80148 22.5328 6.85451 23.2791 7.12502 23.9573L0.935954 29.1187L0.875745 29.1689L0.910134 29.2393L5.99122 39.6488H2.41319H2.31319V39.7488V51.1455V51.2455H2.41319H7.05811L9.32352 64.838L9.33745 64.9216H9.42216H38.7117H38.7964L38.8103 64.838L41.0757 51.2455H48H48.1V51.1455V39.7488V39.6488H48H38.9826V31.9193C38.9826 30.6464 38.4778 29.4256 37.5789 28.5244C36.6799 27.6233 35.4603 27.1155 34.1874 27.1124ZM12.7702 31.9193C12.7702 31.302 13.0154 30.71 13.4519 30.2735C13.8884 29.837 14.4804 29.5918 15.0977 29.5918H34.1871C34.8024 29.5948 35.3914 29.8413 35.8255 30.2773C36.2596 30.7135 36.5033 31.3039 36.5033 31.9193V39.6488H12.7702V31.9193ZM38.5594 51.2455L36.6896 62.4422H11.4443L9.57444 51.2455H38.5594ZM45.6207 42.1281V48.7662H4.79253V42.1281H45.6207Z" fill="white" stroke="white" stroke-width="0.2"/>
</svg>
