<svg width="66" height="66" viewBox="0 0 66 66" fill="none" xmlns="http://www.w3.org/2000/svg">
<path d="M1.66184 43.0739L3.52675 44.5855C3.99708 44.9725 4.39276 45.4473 4.69316 45.9851L9.4402 54.285C11.3194 57.572 13.9964 60.2967 17.2073 62.1903C20.4182 64.084 24.052 65.0811 27.7502 65.0833H35.888C36.3376 65.0833 36.7688 64.899 37.0868 64.5709C37.4047 64.2428 37.5833 63.7977 37.5833 63.3337C37.5833 62.8697 37.4047 62.4247 37.0868 62.0966C36.7688 61.7685 36.3376 61.5842 35.888 61.5842H27.7502C24.6381 61.5811 21.5806 60.7403 18.8797 59.1448C16.1788 57.5493 13.9279 55.2543 12.3495 52.4865L7.60242 44.1866C7.08073 43.2829 6.39993 42.4877 5.5951 41.8422L3.69628 40.3236C3.59228 40.2388 3.50608 40.1332 3.44293 40.0129C3.37978 39.8927 3.34099 39.7605 3.32894 39.6243C3.31688 39.4881 3.33181 39.3509 3.37281 39.2208C3.41382 39.0908 3.48003 38.9707 3.56744 38.868C3.94812 38.4183 4.41271 38.0524 4.93347 37.7922C5.45422 37.5319 6.02046 37.3827 6.59836 37.3533C7.17626 37.3239 7.75397 37.415 8.297 37.6211C8.84003 37.8272 9.33724 38.1442 9.75893 38.553L18.3985 48.3505C18.7058 48.6756 19.1234 48.8646 19.5632 48.8777C20.003 48.8908 20.4305 48.727 20.7554 48.4208C21.0803 48.1146 21.2771 47.69 21.3043 47.2368C21.3314 46.7836 21.1868 46.3373 20.9009 45.9921L12.2138 36.1946L12.1324 36.1107C11.3842 35.3745 10.4999 34.8014 9.53233 34.4256C8.56477 34.0499 7.53376 33.8791 6.50084 33.9235C5.46792 33.9679 4.45426 34.2266 3.52034 34.6842C2.58642 35.1417 1.75139 35.7887 1.06507 36.5865C0.678836 37.0471 0.387058 37.5836 0.20736 38.1637C0.0276617 38.7438 -0.036229 39.3555 0.0195466 39.9619C0.0753222 40.5682 0.249607 41.1566 0.531874 41.6914C0.814142 42.2263 1.19854 42.6966 1.66184 43.0739Z" fill="white"/>
<path d="M39.4336 5.13092C38.5749 5.13129 37.7271 5.32076 36.9514 5.6856C36.8994 4.18775 36.2729 2.76589 35.1996 1.70985C34.1262 0.653815 32.6867 0.0431015 31.1746 0.00219557C29.6625 -0.0387104 28.1915 0.49327 27.0616 1.4897C25.9316 2.48613 25.2277 3.872 25.0934 5.36482C24.1858 4.91454 23.1768 4.70238 22.1629 4.7486C21.149 4.79482 20.1639 5.09788 19.3019 5.62883C18.4399 6.15978 17.7297 6.90087 17.2392 7.7813C16.7486 8.66173 16.4942 9.65208 16.5001 10.6577V35.9126C16.5001 36.3557 16.6778 36.7807 16.994 37.094C17.3102 37.4073 17.7392 37.5833 18.1864 37.5833C18.6336 37.5833 19.0625 37.4073 19.3788 37.094C19.695 36.7807 19.8727 36.3557 19.8727 35.9126V10.6577C19.8727 9.98065 20.1441 9.33131 20.6274 8.85255C21.1106 8.37379 21.7659 8.10483 22.4493 8.10483C23.1327 8.10483 23.7881 8.37379 24.2713 8.85255C24.7545 9.33131 25.026 9.98065 25.026 10.6577V28.8888C25.026 29.3319 25.2036 29.7569 25.5199 30.0702C25.8361 30.3835 26.265 30.5596 26.7122 30.5596C27.1595 30.5596 27.5884 30.3835 27.9046 30.0702C28.2209 29.7569 28.3985 29.3319 28.3985 28.8888V5.94624C28.3985 5.26917 28.67 4.61983 29.1532 4.14107C29.6364 3.66231 30.2918 3.39335 30.9752 3.39335C31.6585 3.39335 32.3139 3.66231 32.7971 4.14107C33.2803 4.61983 33.5518 5.26917 33.5518 5.94624V28.7886C33.5518 29.2317 33.7295 29.6566 34.0457 29.97C34.3619 30.2833 34.7909 30.4593 35.2381 30.4593C35.6853 30.4593 36.1142 30.2833 36.4305 29.97C36.7467 29.6566 36.9244 29.2317 36.9244 28.7886V10.9184C36.9244 10.2696 37.1845 9.6475 37.6474 9.1888C38.1104 8.73009 38.7384 8.47239 39.3931 8.47239C40.0478 8.47239 40.6758 8.73009 41.1387 9.1888C41.6017 9.6475 41.8618 10.2696 41.8618 10.9184V29.2296C41.8618 29.6728 42.0395 30.0977 42.3557 30.411C42.672 30.7244 43.1009 30.9004 43.5481 30.9004C43.9953 30.9004 44.4242 30.7244 44.7405 30.411C45.0567 30.0977 45.2344 29.6728 45.2344 29.2296V16.2914C45.2344 15.6924 45.4746 15.1178 45.9021 14.6942C46.3297 14.2706 46.9096 14.0326 47.5142 14.0326C48.1189 14.0326 48.6988 14.2706 49.1263 14.6942C49.5539 15.1178 49.7941 15.6924 49.7941 16.2914V31.3214C49.7941 31.7645 49.9718 32.1895 50.288 32.5028C50.6042 32.8161 51.0332 32.9921 51.4804 32.9921C51.9276 32.9921 52.3565 32.8161 52.6728 32.5028C52.989 32.1895 53.1667 31.7645 53.1667 31.3214V16.2914C53.1633 15.3643 52.9273 14.4524 52.48 13.638C52.0327 12.8236 51.3881 12.1321 50.6041 11.6258C49.8201 11.1195 48.9214 10.8142 47.9888 10.7373C47.0562 10.6605 46.119 10.8146 45.2614 11.1857V10.9184C45.2596 9.38628 44.6455 7.91727 43.5533 6.83268C42.4611 5.74809 40.9799 5.13622 39.4336 5.13092Z" fill="white"/>
<path d="M24.4212 39.4166H24.3336H22.7691C22.322 39.4166 21.8932 39.5807 21.577 39.8727C21.2609 40.1648 21.0833 40.5609 21.0833 40.9739C21.0833 41.3869 21.2609 41.783 21.577 42.075C21.8932 42.3671 22.322 42.5311 22.7691 42.5311H24.3336H24.3942C26.1025 42.5381 27.7524 43.1057 29.0495 44.1326C30.3465 45.1595 31.2061 46.5789 31.4748 48.1372C31.5029 48.3437 31.5756 48.5428 31.6884 48.7229C31.8013 48.903 31.9521 49.0604 32.1319 49.1857C32.3117 49.3111 32.5169 49.4019 32.7354 49.4527C32.9538 49.5036 33.1811 49.5135 33.4038 49.4819C33.6264 49.4502 33.84 49.3777 34.0317 49.2685C34.2235 49.1593 34.3897 49.0158 34.5204 48.8463C34.6511 48.6768 34.7438 48.4849 34.7928 48.2818C34.8419 48.0787 34.8463 47.8685 34.806 47.6638C34.4118 45.3762 33.1518 43.2919 31.2503 41.7817C29.3487 40.2716 26.9289 39.4335 24.4212 39.4166Z" fill="white"/>
<path d="M51.7828 36.6666C48.9739 36.6684 46.2286 37.5026 43.8937 39.064C41.5587 40.6253 39.739 42.8437 38.6643 45.4389C37.5896 48.034 37.3083 50.8895 37.8558 53.6444C38.4033 56.3994 39.7551 58.9303 41.7404 60.9174C43.3923 62.5707 45.4266 63.7911 47.663 64.4702C49.8993 65.1494 52.2687 65.2663 54.5611 64.8108C56.8535 64.3552 58.9981 63.3412 60.8048 61.8585C62.6115 60.3759 64.0246 58.4704 64.9189 56.3111C65.8131 54.1517 66.1608 51.805 65.9312 49.4791C65.7016 47.1532 64.9017 44.9199 63.6026 42.977C62.3034 41.0342 60.545 39.4418 58.4832 38.3411C56.4215 37.2403 54.12 36.6652 51.7828 36.6666ZM59.3697 58.4826C58.3711 59.4824 57.1852 60.2755 55.8798 60.8167C54.5744 61.3578 53.1752 61.6363 51.7621 61.6363C50.349 61.6363 48.9497 61.3578 47.6444 60.8167C46.339 60.2755 45.1531 59.4824 44.1544 58.4826C42.6495 56.9779 41.6245 55.0607 41.2092 52.9735C40.7939 50.8863 41.0069 48.7228 41.8212 46.7566C42.6356 44.7904 44.0147 43.1099 45.7841 41.9275C47.5536 40.7451 49.6339 40.1141 51.7621 40.1141C53.8902 40.1141 55.9706 40.7451 57.74 41.9275C59.5095 43.1099 60.8886 44.7904 61.7029 46.7566C62.5172 48.7228 62.7302 50.8863 62.3149 52.9735C61.8996 55.0607 60.8747 56.9779 59.3697 58.4826Z" fill="white"/>
<path d="M56.35 46.3122C56.1988 46.1604 56.0192 46.04 55.8215 45.9578C55.6238 45.8757 55.4118 45.8334 55.1977 45.8334C54.9836 45.8334 54.7716 45.8757 54.5738 45.9578C54.3761 46.04 54.1965 46.1604 54.0453 46.3122L51.7926 48.5549L49.5335 46.3122C49.2225 46.0447 48.8221 45.9046 48.4125 45.9199C48.0028 45.9352 47.614 46.1047 47.3237 46.3945C47.0334 46.6844 46.863 47.0732 46.8466 47.4834C46.8302 47.8936 46.969 48.2948 47.2352 48.607L49.4879 50.8757L47.2352 53.1119C46.927 53.4171 46.7525 53.8323 46.75 54.2664C46.7476 54.7004 46.9174 55.1176 47.2222 55.4263C47.527 55.7349 47.9417 55.9096 48.3751 55.9121C48.8086 55.9145 49.2252 55.7445 49.5335 55.4393L51.7926 53.164L54.0388 55.4393C54.1914 55.5913 54.3724 55.7116 54.5715 55.7935C54.7706 55.8755 54.9838 55.9173 55.199 55.9167C55.4142 55.9161 55.6272 55.873 55.8259 55.79C56.0245 55.707 56.2048 55.5856 56.3566 55.4328C56.5083 55.2799 56.6285 55.0987 56.7103 54.8994C56.7921 54.7 56.8339 54.4865 56.8333 54.271C56.8327 54.0555 56.7897 53.8422 56.7068 53.6433C56.6239 53.4444 56.5027 53.2638 56.35 53.1119L54.0909 50.8757L56.35 48.607C56.6522 48.3018 56.8217 47.8894 56.8217 47.4596C56.8217 47.0298 56.6522 46.6174 56.35 46.3122Z" fill="white"/>
</svg>
