<svg width="32" height="49" viewBox="0 0 32 49" fill="none" xmlns="http://www.w3.org/2000/svg">
<mask id="path-1-outside-1" maskUnits="userSpaceOnUse" x="0" y="0" width="32" height="49" fill="black">
<rect fill="white" width="32" height="49"/>
<path fill-rule="evenodd" clip-rule="evenodd" d="M13.7362 1.00008C13.5707 1.00264 13.413 1.07051 13.2977 1.18878C13.1824 1.30705 13.119 1.46605 13.1213 1.63086V6.42629C13.1202 6.50864 13.1356 6.59038 13.1666 6.66676C13.1975 6.74314 13.2433 6.81265 13.3014 6.87125C13.3595 6.92985 13.4287 6.97637 13.5051 7.00813C13.5814 7.03989 13.6632 7.05624 13.7459 7.05624C13.8286 7.05624 13.9105 7.03989 13.9868 7.00813C14.0631 6.97637 14.1323 6.92985 14.1904 6.87125C14.2486 6.81265 14.2944 6.74314 14.3253 6.66676C14.3562 6.59038 14.3716 6.50864 14.3706 6.42629V1.63086C14.3718 1.54762 14.3562 1.46499 14.3247 1.38787C14.2932 1.31074 14.2465 1.24069 14.1873 1.18187C14.1282 1.12305 14.0578 1.07665 13.9803 1.04542C13.9028 1.0142 13.8198 0.998776 13.7362 1.00008ZM5.82969 3.4843C5.70561 3.48621 5.58492 3.52487 5.48299 3.59536C5.38107 3.66584 5.30254 3.76496 5.25741 3.88007C5.21228 3.99518 5.2026 4.12107 5.2296 4.24168C5.25661 4.36229 5.31907 4.47216 5.40903 4.55728L8.85922 7.90358C8.91768 7.96202 8.98723 8.00829 9.06381 8.03971C9.1404 8.07114 9.2225 8.08707 9.30533 8.08661C9.38816 8.08614 9.47007 8.06927 9.54629 8.03698C9.62252 8.00469 9.69153 7.95763 9.74932 7.89854C9.80711 7.83944 9.85252 7.76949 9.88291 7.69276C9.9133 7.61603 9.92806 7.53404 9.92633 7.45157C9.92461 7.36911 9.90643 7.2878 9.87285 7.2124C9.83928 7.13699 9.79098 7.06899 9.73077 7.01234L6.28059 3.66604C6.22145 3.60725 6.15107 3.56088 6.07362 3.52966C5.99617 3.49844 5.91322 3.48301 5.82967 3.48429L5.82969 3.4843ZM21.5767 3.4843C21.4147 3.48687 21.26 3.55204 21.1453 3.66605L17.6952 7.01236C17.6349 7.069 17.5866 7.13701 17.5531 7.21241C17.5195 7.28782 17.5013 7.36912 17.4996 7.45159C17.4979 7.53406 17.5126 7.61604 17.543 7.69278C17.5734 7.76951 17.6188 7.83946 17.6766 7.89855C17.7344 7.95765 17.8034 8.00471 17.8796 8.03699C17.9559 8.06928 18.0378 8.08615 18.1206 8.08662C18.2034 8.08709 18.2855 8.07115 18.3621 8.03973C18.4387 8.00831 18.5082 7.96203 18.5667 7.9036L22.0169 4.55729C22.1081 4.47103 22.171 4.35938 22.1974 4.23695C22.2238 4.11451 22.2125 3.98699 22.1649 3.87106C22.1173 3.75513 22.0358 3.65619 21.9308 3.58719C21.8259 3.51819 21.7025 3.48234 21.5767 3.48432L21.5767 3.4843ZM13.7757 8.49137C12.141 8.49137 10.7666 9.75673 10.7715 11.3517L10.8194 27.9424L5.57134 22.9759C5.05258 22.4852 4.38192 22.2366 3.71984 22.2372C3.05777 22.2379 2.40349 22.4886 1.91812 22.9973L1.63703 23.2917C1.15008 23.8021 0.955365 24.4754 1.00849 25.1083C1.06158 25.7411 1.33445 26.3434 1.74342 26.8596L10.5029 37.9183C10.5076 37.9245 10.5367 37.9633 10.5761 38.0213C10.6186 38.0838 10.665 38.1798 10.6484 38.135C10.6409 38.1151 10.6748 38.258 10.6874 38.3663C10.6993 38.4688 10.7035 38.5422 10.704 38.551V40.4404H9.24487C8.74916 40.4404 8.36097 40.7599 8.13905 41.1169C7.9171 41.4739 7.80818 41.9035 7.80818 42.3687V46.0717C7.80818 46.5369 7.9171 46.9665 8.13905 47.3235C8.36099 47.6806 8.74915 48 9.24487 48H29.5633C30.059 48 30.4472 47.6806 30.6691 47.3235C30.8911 46.9665 31 46.5369 31 46.0717V42.3687C31 41.9035 30.8911 41.4739 30.6691 41.1169C30.4472 40.7599 30.059 40.4404 29.5633 40.4404H28.1969C28.1752 39.9308 28.1265 38.6206 28.2447 37.9727C28.3318 37.4951 28.3988 37.4279 28.5853 37.0611C28.7719 36.6943 29.0282 36.1279 29.3486 34.9472C29.7207 33.5757 29.7664 30.8164 29.7721 28.2596C29.7779 25.7027 29.7048 23.437 29.7048 23.437C29.8 21.8465 28.4371 20.5844 26.9056 20.5844C26.2011 20.5844 25.5614 20.8545 25.0707 21.2939C24.6231 20.3342 23.6885 19.6572 22.5857 19.6572C21.8902 19.6572 21.2618 19.9273 20.7792 20.3667C20.3297 19.4123 19.3978 18.7397 18.2991 18.7397C17.7344 18.7397 17.2139 18.9188 16.7795 19.2208V11.3505C16.7795 9.75771 15.4101 8.49206 13.7754 8.49206L13.7757 8.49137ZM13.7757 9.73543C14.7776 9.73543 15.5305 10.4645 15.5305 11.3498V24.8866C15.5295 24.9689 15.5449 25.0507 15.5758 25.127C15.6067 25.2034 15.6525 25.2729 15.7107 25.3315C15.7688 25.3901 15.838 25.4367 15.9143 25.4684C15.9906 25.5002 16.0725 25.5165 16.1552 25.5165C16.2379 25.5165 16.3197 25.5002 16.3961 25.4684C16.4724 25.4367 16.5416 25.3901 16.5997 25.3315C16.6578 25.2729 16.7036 25.2034 16.7346 25.127C16.7655 25.0507 16.7809 24.9689 16.7798 24.8866V22.4208C16.7807 22.4062 16.781 22.3917 16.7808 22.3771V21.6482C16.7808 20.6932 17.4706 19.9833 18.2995 19.9833C19.1283 19.9833 19.8191 20.6932 19.8191 21.6482V22.4568C19.819 22.4701 19.8193 22.4834 19.8201 22.4966C19.8196 22.5195 19.8172 22.5417 19.8172 22.5647V25.7876C19.8161 25.8699 19.8315 25.9517 19.8624 26.028C19.8933 26.1044 19.9392 26.1739 19.9973 26.2325C20.0554 26.2911 20.1246 26.3377 20.2009 26.3694C20.2772 26.4012 20.3591 26.4175 20.4418 26.4175C20.5245 26.4175 20.6064 26.4012 20.6827 26.3694C20.759 26.3377 20.8282 26.2911 20.8863 26.2325C20.9444 26.1739 20.9903 26.1044 21.0212 26.028C21.0521 25.9517 21.0675 25.8699 21.0664 25.7876V22.5647C21.0664 21.6097 21.7573 20.9007 22.5861 20.9007C23.4149 20.9007 24.1057 21.6097 24.1057 22.5647V23.4112C24.1058 23.4203 24.1062 23.4294 24.1067 23.4384C24.1067 23.4443 24.1057 23.45 24.1057 23.4559V26.6293C24.1047 26.7116 24.1201 26.7934 24.151 26.8697C24.1819 26.9461 24.2277 27.0156 24.2859 27.0742C24.344 27.1328 24.4132 27.1793 24.4895 27.2111C24.5658 27.2429 24.6477 27.2592 24.7304 27.2592C24.8131 27.2592 24.8949 27.2429 24.9712 27.2111C25.0476 27.1793 25.1168 27.1328 25.1749 27.0742C25.233 27.0156 25.2788 26.9461 25.3097 26.8697C25.3407 26.7934 25.3561 26.7116 25.355 26.6293V23.4559C25.355 22.5304 26.0491 21.828 26.9059 21.828C27.7606 21.828 28.5343 22.5448 28.4587 23.4015C28.4565 23.4264 28.4559 23.4514 28.4567 23.4763C28.4567 23.4763 28.5288 25.7243 28.5231 28.2562C28.5174 30.7881 28.3956 33.6933 28.1434 34.6223C27.8396 35.7423 27.6367 36.173 27.471 36.4991C27.3052 36.8251 27.1264 37.1463 27.0161 37.7509C26.8638 38.5869 26.8998 39.7877 26.9342 40.4402H11.9532V38.5255C11.9532 38.5138 11.9529 38.5022 11.9522 38.4905C11.9522 38.4905 11.946 38.3696 11.9288 38.2223C11.9116 38.075 11.8985 37.9143 11.8195 37.7023C11.8195 37.702 11.8195 37.7017 11.8195 37.7013C11.7499 37.5148 11.675 37.4191 11.6106 37.3242C11.5462 37.2294 11.4896 37.1551 11.4896 37.1551C11.4877 37.1525 11.4857 37.1499 11.4837 37.1473L2.72421 26.0887C2.44383 25.7347 2.28099 25.341 2.2528 25.005C2.22461 24.669 2.30223 24.4008 2.54267 24.1488C2.54267 24.1484 2.54267 24.1481 2.54267 24.1478L2.82376 23.8533C3.30771 23.3461 4.13412 23.3325 4.71039 23.8776L10.3177 29.1832C10.3465 29.2325 10.3741 29.2827 10.4202 29.3397C10.5474 29.497 10.8163 29.7383 11.2156 29.7188C11.4257 29.7082 11.6112 29.5964 11.7124 29.4933C11.8141 29.3898 11.8625 29.2947 11.8998 29.2105C11.9744 29.042 12.0019 28.899 12.0238 28.7644C12.0675 28.495 12.0696 28.2531 12.0696 28.2531C12.0697 28.2483 12.0697 28.2434 12.0696 28.2386L12.0208 11.3488C12.0208 11.3485 12.0208 11.3481 12.0208 11.3478C12.0181 10.4648 12.7738 9.73542 13.7757 9.73542L13.7757 9.73543ZM3.79485 11.7123C3.71215 11.7113 3.63008 11.7266 3.55337 11.7574C3.47667 11.7882 3.40687 11.8338 3.34802 11.8917C3.28918 11.9496 3.24245 12.0185 3.21056 12.0945C3.17867 12.1705 3.16225 12.252 3.16225 12.3344C3.16225 12.4167 3.17867 12.4982 3.21056 12.5742C3.24245 12.6502 3.28918 12.7191 3.34802 12.777C3.40687 12.8349 3.47667 12.8805 3.55337 12.9113C3.63008 12.9421 3.71215 12.9574 3.79485 12.9564H8.61046C8.69315 12.9574 8.77523 12.9421 8.85194 12.9113C8.92864 12.8805 8.99844 12.8349 9.05728 12.777C9.11613 12.7191 9.16285 12.6502 9.19474 12.5742C9.22663 12.4982 9.24305 12.4167 9.24305 12.3344C9.24305 12.252 9.22663 12.1705 9.19474 12.0945C9.16285 12.0185 9.11613 11.9496 9.05728 11.8917C8.99844 11.8338 8.92864 11.7882 8.85194 11.7574C8.77523 11.7266 8.69315 11.7113 8.61046 11.7123H3.79485ZM18.8558 11.7123C18.7731 11.7113 18.691 11.7266 18.6143 11.7574C18.5376 11.7882 18.4678 11.8338 18.409 11.8917C18.3501 11.9496 18.3034 12.0185 18.2715 12.0945C18.2396 12.1705 18.2232 12.252 18.2232 12.3344C18.2232 12.4167 18.2396 12.4982 18.2715 12.5742C18.3034 12.6502 18.3501 12.7191 18.409 12.777C18.4678 12.8349 18.5376 12.8805 18.6143 12.9113C18.691 12.9421 18.7731 12.9574 18.8558 12.9564H23.6714C23.7541 12.9574 23.8362 12.9421 23.9129 12.9113C23.9896 12.8805 24.0594 12.8349 24.1182 12.777C24.1771 12.7191 24.2238 12.6502 24.2557 12.5742C24.2876 12.4982 24.304 12.4167 24.304 12.3344C24.304 12.252 24.2876 12.1705 24.2557 12.0945C24.2238 12.0185 24.1771 11.9496 24.1182 11.8917C24.0594 11.8338 23.9896 11.7882 23.9129 11.7574C23.8362 11.7266 23.7541 11.7113 23.6714 11.7123H18.8558ZM9.24525 41.6841H29.5637C29.5178 41.6841 29.536 41.6564 29.6076 41.7716C29.6792 41.8868 29.7511 42.1098 29.7511 42.3683V46.0713C29.7511 46.3298 29.6792 46.5539 29.6076 46.6691C29.5718 46.7267 29.549 46.7483 29.5412 46.7556H9.26778C9.26002 46.7483 9.23721 46.7267 9.20141 46.6691C9.1298 46.5539 9.05794 46.3298 9.05794 46.0713V42.3683C9.05794 42.1098 9.1298 41.8868 9.20141 41.7716C9.27302 41.6564 9.29117 41.6841 9.24533 41.6841H9.24525Z"/>
</mask>
<path fill-rule="evenodd" clip-rule="evenodd" d="M13.7362 1.00008C13.5707 1.00264 13.413 1.07051 13.2977 1.18878C13.1824 1.30705 13.119 1.46605 13.1213 1.63086V6.42629C13.1202 6.50864 13.1356 6.59038 13.1666 6.66676C13.1975 6.74314 13.2433 6.81265 13.3014 6.87125C13.3595 6.92985 13.4287 6.97637 13.5051 7.00813C13.5814 7.03989 13.6632 7.05624 13.7459 7.05624C13.8286 7.05624 13.9105 7.03989 13.9868 7.00813C14.0631 6.97637 14.1323 6.92985 14.1904 6.87125C14.2486 6.81265 14.2944 6.74314 14.3253 6.66676C14.3562 6.59038 14.3716 6.50864 14.3706 6.42629V1.63086C14.3718 1.54762 14.3562 1.46499 14.3247 1.38787C14.2932 1.31074 14.2465 1.24069 14.1873 1.18187C14.1282 1.12305 14.0578 1.07665 13.9803 1.04542C13.9028 1.0142 13.8198 0.998776 13.7362 1.00008ZM5.82969 3.4843C5.70561 3.48621 5.58492 3.52487 5.48299 3.59536C5.38107 3.66584 5.30254 3.76496 5.25741 3.88007C5.21228 3.99518 5.2026 4.12107 5.2296 4.24168C5.25661 4.36229 5.31907 4.47216 5.40903 4.55728L8.85922 7.90358C8.91768 7.96202 8.98723 8.00829 9.06381 8.03971C9.1404 8.07114 9.2225 8.08707 9.30533 8.08661C9.38816 8.08614 9.47007 8.06927 9.54629 8.03698C9.62252 8.00469 9.69153 7.95763 9.74932 7.89854C9.80711 7.83944 9.85252 7.76949 9.88291 7.69276C9.9133 7.61603 9.92806 7.53404 9.92633 7.45157C9.92461 7.36911 9.90643 7.2878 9.87285 7.2124C9.83928 7.13699 9.79098 7.06899 9.73077 7.01234L6.28059 3.66604C6.22145 3.60725 6.15107 3.56088 6.07362 3.52966C5.99617 3.49844 5.91322 3.48301 5.82967 3.48429L5.82969 3.4843ZM21.5767 3.4843C21.4147 3.48687 21.26 3.55204 21.1453 3.66605L17.6952 7.01236C17.6349 7.069 17.5866 7.13701 17.5531 7.21241C17.5195 7.28782 17.5013 7.36912 17.4996 7.45159C17.4979 7.53406 17.5126 7.61604 17.543 7.69278C17.5734 7.76951 17.6188 7.83946 17.6766 7.89855C17.7344 7.95765 17.8034 8.00471 17.8796 8.03699C17.9559 8.06928 18.0378 8.08615 18.1206 8.08662C18.2034 8.08709 18.2855 8.07115 18.3621 8.03973C18.4387 8.00831 18.5082 7.96203 18.5667 7.9036L22.0169 4.55729C22.1081 4.47103 22.171 4.35938 22.1974 4.23695C22.2238 4.11451 22.2125 3.98699 22.1649 3.87106C22.1173 3.75513 22.0358 3.65619 21.9308 3.58719C21.8259 3.51819 21.7025 3.48234 21.5767 3.48432L21.5767 3.4843ZM13.7757 8.49137C12.141 8.49137 10.7666 9.75673 10.7715 11.3517L10.8194 27.9424L5.57134 22.9759C5.05258 22.4852 4.38192 22.2366 3.71984 22.2372C3.05777 22.2379 2.40349 22.4886 1.91812 22.9973L1.63703 23.2917C1.15008 23.8021 0.955365 24.4754 1.00849 25.1083C1.06158 25.7411 1.33445 26.3434 1.74342 26.8596L10.5029 37.9183C10.5076 37.9245 10.5367 37.9633 10.5761 38.0213C10.6186 38.0838 10.665 38.1798 10.6484 38.135C10.6409 38.1151 10.6748 38.258 10.6874 38.3663C10.6993 38.4688 10.7035 38.5422 10.704 38.551V40.4404H9.24487C8.74916 40.4404 8.36097 40.7599 8.13905 41.1169C7.9171 41.4739 7.80818 41.9035 7.80818 42.3687V46.0717C7.80818 46.5369 7.9171 46.9665 8.13905 47.3235C8.36099 47.6806 8.74915 48 9.24487 48H29.5633C30.059 48 30.4472 47.6806 30.6691 47.3235C30.8911 46.9665 31 46.5369 31 46.0717V42.3687C31 41.9035 30.8911 41.4739 30.6691 41.1169C30.4472 40.7599 30.059 40.4404 29.5633 40.4404H28.1969C28.1752 39.9308 28.1265 38.6206 28.2447 37.9727C28.3318 37.4951 28.3988 37.4279 28.5853 37.0611C28.7719 36.6943 29.0282 36.1279 29.3486 34.9472C29.7207 33.5757 29.7664 30.8164 29.7721 28.2596C29.7779 25.7027 29.7048 23.437 29.7048 23.437C29.8 21.8465 28.4371 20.5844 26.9056 20.5844C26.2011 20.5844 25.5614 20.8545 25.0707 21.2939C24.6231 20.3342 23.6885 19.6572 22.5857 19.6572C21.8902 19.6572 21.2618 19.9273 20.7792 20.3667C20.3297 19.4123 19.3978 18.7397 18.2991 18.7397C17.7344 18.7397 17.2139 18.9188 16.7795 19.2208V11.3505C16.7795 9.75771 15.4101 8.49206 13.7754 8.49206L13.7757 8.49137ZM13.7757 9.73543C14.7776 9.73543 15.5305 10.4645 15.5305 11.3498V24.8866C15.5295 24.9689 15.5449 25.0507 15.5758 25.127C15.6067 25.2034 15.6525 25.2729 15.7107 25.3315C15.7688 25.3901 15.838 25.4367 15.9143 25.4684C15.9906 25.5002 16.0725 25.5165 16.1552 25.5165C16.2379 25.5165 16.3197 25.5002 16.3961 25.4684C16.4724 25.4367 16.5416 25.3901 16.5997 25.3315C16.6578 25.2729 16.7036 25.2034 16.7346 25.127C16.7655 25.0507 16.7809 24.9689 16.7798 24.8866V22.4208C16.7807 22.4062 16.781 22.3917 16.7808 22.3771V21.6482C16.7808 20.6932 17.4706 19.9833 18.2995 19.9833C19.1283 19.9833 19.8191 20.6932 19.8191 21.6482V22.4568C19.819 22.4701 19.8193 22.4834 19.8201 22.4966C19.8196 22.5195 19.8172 22.5417 19.8172 22.5647V25.7876C19.8161 25.8699 19.8315 25.9517 19.8624 26.028C19.8933 26.1044 19.9392 26.1739 19.9973 26.2325C20.0554 26.2911 20.1246 26.3377 20.2009 26.3694C20.2772 26.4012 20.3591 26.4175 20.4418 26.4175C20.5245 26.4175 20.6064 26.4012 20.6827 26.3694C20.759 26.3377 20.8282 26.2911 20.8863 26.2325C20.9444 26.1739 20.9903 26.1044 21.0212 26.028C21.0521 25.9517 21.0675 25.8699 21.0664 25.7876V22.5647C21.0664 21.6097 21.7573 20.9007 22.5861 20.9007C23.4149 20.9007 24.1057 21.6097 24.1057 22.5647V23.4112C24.1058 23.4203 24.1062 23.4294 24.1067 23.4384C24.1067 23.4443 24.1057 23.45 24.1057 23.4559V26.6293C24.1047 26.7116 24.1201 26.7934 24.151 26.8697C24.1819 26.9461 24.2277 27.0156 24.2859 27.0742C24.344 27.1328 24.4132 27.1793 24.4895 27.2111C24.5658 27.2429 24.6477 27.2592 24.7304 27.2592C24.8131 27.2592 24.8949 27.2429 24.9712 27.2111C25.0476 27.1793 25.1168 27.1328 25.1749 27.0742C25.233 27.0156 25.2788 26.9461 25.3097 26.8697C25.3407 26.7934 25.3561 26.7116 25.355 26.6293V23.4559C25.355 22.5304 26.0491 21.828 26.9059 21.828C27.7606 21.828 28.5343 22.5448 28.4587 23.4015C28.4565 23.4264 28.4559 23.4514 28.4567 23.4763C28.4567 23.4763 28.5288 25.7243 28.5231 28.2562C28.5174 30.7881 28.3956 33.6933 28.1434 34.6223C27.8396 35.7423 27.6367 36.173 27.471 36.4991C27.3052 36.8251 27.1264 37.1463 27.0161 37.7509C26.8638 38.5869 26.8998 39.7877 26.9342 40.4402H11.9532V38.5255C11.9532 38.5138 11.9529 38.5022 11.9522 38.4905C11.9522 38.4905 11.946 38.3696 11.9288 38.2223C11.9116 38.075 11.8985 37.9143 11.8195 37.7023C11.8195 37.702 11.8195 37.7017 11.8195 37.7013C11.7499 37.5148 11.675 37.4191 11.6106 37.3242C11.5462 37.2294 11.4896 37.1551 11.4896 37.1551C11.4877 37.1525 11.4857 37.1499 11.4837 37.1473L2.72421 26.0887C2.44383 25.7347 2.28099 25.341 2.2528 25.005C2.22461 24.669 2.30223 24.4008 2.54267 24.1488C2.54267 24.1484 2.54267 24.1481 2.54267 24.1478L2.82376 23.8533C3.30771 23.3461 4.13412 23.3325 4.71039 23.8776L10.3177 29.1832C10.3465 29.2325 10.3741 29.2827 10.4202 29.3397C10.5474 29.497 10.8163 29.7383 11.2156 29.7188C11.4257 29.7082 11.6112 29.5964 11.7124 29.4933C11.8141 29.3898 11.8625 29.2947 11.8998 29.2105C11.9744 29.042 12.0019 28.899 12.0238 28.7644C12.0675 28.495 12.0696 28.2531 12.0696 28.2531C12.0697 28.2483 12.0697 28.2434 12.0696 28.2386L12.0208 11.3488C12.0208 11.3485 12.0208 11.3481 12.0208 11.3478C12.0181 10.4648 12.7738 9.73542 13.7757 9.73542L13.7757 9.73543ZM3.79485 11.7123C3.71215 11.7113 3.63008 11.7266 3.55337 11.7574C3.47667 11.7882 3.40687 11.8338 3.34802 11.8917C3.28918 11.9496 3.24245 12.0185 3.21056 12.0945C3.17867 12.1705 3.16225 12.252 3.16225 12.3344C3.16225 12.4167 3.17867 12.4982 3.21056 12.5742C3.24245 12.6502 3.28918 12.7191 3.34802 12.777C3.40687 12.8349 3.47667 12.8805 3.55337 12.9113C3.63008 12.9421 3.71215 12.9574 3.79485 12.9564H8.61046C8.69315 12.9574 8.77523 12.9421 8.85194 12.9113C8.92864 12.8805 8.99844 12.8349 9.05728 12.777C9.11613 12.7191 9.16285 12.6502 9.19474 12.5742C9.22663 12.4982 9.24305 12.4167 9.24305 12.3344C9.24305 12.252 9.22663 12.1705 9.19474 12.0945C9.16285 12.0185 9.11613 11.9496 9.05728 11.8917C8.99844 11.8338 8.92864 11.7882 8.85194 11.7574C8.77523 11.7266 8.69315 11.7113 8.61046 11.7123H3.79485ZM18.8558 11.7123C18.7731 11.7113 18.691 11.7266 18.6143 11.7574C18.5376 11.7882 18.4678 11.8338 18.409 11.8917C18.3501 11.9496 18.3034 12.0185 18.2715 12.0945C18.2396 12.1705 18.2232 12.252 18.2232 12.3344C18.2232 12.4167 18.2396 12.4982 18.2715 12.5742C18.3034 12.6502 18.3501 12.7191 18.409 12.777C18.4678 12.8349 18.5376 12.8805 18.6143 12.9113C18.691 12.9421 18.7731 12.9574 18.8558 12.9564H23.6714C23.7541 12.9574 23.8362 12.9421 23.9129 12.9113C23.9896 12.8805 24.0594 12.8349 24.1182 12.777C24.1771 12.7191 24.2238 12.6502 24.2557 12.5742C24.2876 12.4982 24.304 12.4167 24.304 12.3344C24.304 12.252 24.2876 12.1705 24.2557 12.0945C24.2238 12.0185 24.1771 11.9496 24.1182 11.8917C24.0594 11.8338 23.9896 11.7882 23.9129 11.7574C23.8362 11.7266 23.7541 11.7113 23.6714 11.7123H18.8558ZM9.24525 41.6841H29.5637C29.5178 41.6841 29.536 41.6564 29.6076 41.7716C29.6792 41.8868 29.7511 42.1098 29.7511 42.3683V46.0713C29.7511 46.3298 29.6792 46.5539 29.6076 46.6691C29.5718 46.7267 29.549 46.7483 29.5412 46.7556H9.26778C9.26002 46.7483 9.23721 46.7267 9.20141 46.6691C9.1298 46.5539 9.05794 46.3298 9.05794 46.0713V42.3683C9.05794 42.1098 9.1298 41.8868 9.20141 41.7716C9.27302 41.6564 9.29117 41.6841 9.24533 41.6841H9.24525Z" fill="#F2B111"/>
<path fill-rule="evenodd" clip-rule="evenodd" d="M13.7362 1.00008C13.5707 1.00264 13.413 1.07051 13.2977 1.18878C13.1824 1.30705 13.119 1.46605 13.1213 1.63086V6.42629C13.1202 6.50864 13.1356 6.59038 13.1666 6.66676C13.1975 6.74314 13.2433 6.81265 13.3014 6.87125C13.3595 6.92985 13.4287 6.97637 13.5051 7.00813C13.5814 7.03989 13.6632 7.05624 13.7459 7.05624C13.8286 7.05624 13.9105 7.03989 13.9868 7.00813C14.0631 6.97637 14.1323 6.92985 14.1904 6.87125C14.2486 6.81265 14.2944 6.74314 14.3253 6.66676C14.3562 6.59038 14.3716 6.50864 14.3706 6.42629V1.63086C14.3718 1.54762 14.3562 1.46499 14.3247 1.38787C14.2932 1.31074 14.2465 1.24069 14.1873 1.18187C14.1282 1.12305 14.0578 1.07665 13.9803 1.04542C13.9028 1.0142 13.8198 0.998776 13.7362 1.00008ZM5.82969 3.4843C5.70561 3.48621 5.58492 3.52487 5.48299 3.59536C5.38107 3.66584 5.30254 3.76496 5.25741 3.88007C5.21228 3.99518 5.2026 4.12107 5.2296 4.24168C5.25661 4.36229 5.31907 4.47216 5.40903 4.55728L8.85922 7.90358C8.91768 7.96202 8.98723 8.00829 9.06381 8.03971C9.1404 8.07114 9.2225 8.08707 9.30533 8.08661C9.38816 8.08614 9.47007 8.06927 9.54629 8.03698C9.62252 8.00469 9.69153 7.95763 9.74932 7.89854C9.80711 7.83944 9.85252 7.76949 9.88291 7.69276C9.9133 7.61603 9.92806 7.53404 9.92633 7.45157C9.92461 7.36911 9.90643 7.2878 9.87285 7.2124C9.83928 7.13699 9.79098 7.06899 9.73077 7.01234L6.28059 3.66604C6.22145 3.60725 6.15107 3.56088 6.07362 3.52966C5.99617 3.49844 5.91322 3.48301 5.82967 3.48429L5.82969 3.4843ZM21.5767 3.4843C21.4147 3.48687 21.26 3.55204 21.1453 3.66605L17.6952 7.01236C17.6349 7.069 17.5866 7.13701 17.5531 7.21241C17.5195 7.28782 17.5013 7.36912 17.4996 7.45159C17.4979 7.53406 17.5126 7.61604 17.543 7.69278C17.5734 7.76951 17.6188 7.83946 17.6766 7.89855C17.7344 7.95765 17.8034 8.00471 17.8796 8.03699C17.9559 8.06928 18.0378 8.08615 18.1206 8.08662C18.2034 8.08709 18.2855 8.07115 18.3621 8.03973C18.4387 8.00831 18.5082 7.96203 18.5667 7.9036L22.0169 4.55729C22.1081 4.47103 22.171 4.35938 22.1974 4.23695C22.2238 4.11451 22.2125 3.98699 22.1649 3.87106C22.1173 3.75513 22.0358 3.65619 21.9308 3.58719C21.8259 3.51819 21.7025 3.48234 21.5767 3.48432L21.5767 3.4843ZM13.7757 8.49137C12.141 8.49137 10.7666 9.75673 10.7715 11.3517L10.8194 27.9424L5.57134 22.9759C5.05258 22.4852 4.38192 22.2366 3.71984 22.2372C3.05777 22.2379 2.40349 22.4886 1.91812 22.9973L1.63703 23.2917C1.15008 23.8021 0.955365 24.4754 1.00849 25.1083C1.06158 25.7411 1.33445 26.3434 1.74342 26.8596L10.5029 37.9183C10.5076 37.9245 10.5367 37.9633 10.5761 38.0213C10.6186 38.0838 10.665 38.1798 10.6484 38.135C10.6409 38.1151 10.6748 38.258 10.6874 38.3663C10.6993 38.4688 10.7035 38.5422 10.704 38.551V40.4404H9.24487C8.74916 40.4404 8.36097 40.7599 8.13905 41.1169C7.9171 41.4739 7.80818 41.9035 7.80818 42.3687V46.0717C7.80818 46.5369 7.9171 46.9665 8.13905 47.3235C8.36099 47.6806 8.74915 48 9.24487 48H29.5633C30.059 48 30.4472 47.6806 30.6691 47.3235C30.8911 46.9665 31 46.5369 31 46.0717V42.3687C31 41.9035 30.8911 41.4739 30.6691 41.1169C30.4472 40.7599 30.059 40.4404 29.5633 40.4404H28.1969C28.1752 39.9308 28.1265 38.6206 28.2447 37.9727C28.3318 37.4951 28.3988 37.4279 28.5853 37.0611C28.7719 36.6943 29.0282 36.1279 29.3486 34.9472C29.7207 33.5757 29.7664 30.8164 29.7721 28.2596C29.7779 25.7027 29.7048 23.437 29.7048 23.437C29.8 21.8465 28.4371 20.5844 26.9056 20.5844C26.2011 20.5844 25.5614 20.8545 25.0707 21.2939C24.6231 20.3342 23.6885 19.6572 22.5857 19.6572C21.8902 19.6572 21.2618 19.9273 20.7792 20.3667C20.3297 19.4123 19.3978 18.7397 18.2991 18.7397C17.7344 18.7397 17.2139 18.9188 16.7795 19.2208V11.3505C16.7795 9.75771 15.4101 8.49206 13.7754 8.49206L13.7757 8.49137ZM13.7757 9.73543C14.7776 9.73543 15.5305 10.4645 15.5305 11.3498V24.8866C15.5295 24.9689 15.5449 25.0507 15.5758 25.127C15.6067 25.2034 15.6525 25.2729 15.7107 25.3315C15.7688 25.3901 15.838 25.4367 15.9143 25.4684C15.9906 25.5002 16.0725 25.5165 16.1552 25.5165C16.2379 25.5165 16.3197 25.5002 16.3961 25.4684C16.4724 25.4367 16.5416 25.3901 16.5997 25.3315C16.6578 25.2729 16.7036 25.2034 16.7346 25.127C16.7655 25.0507 16.7809 24.9689 16.7798 24.8866V22.4208C16.7807 22.4062 16.781 22.3917 16.7808 22.3771V21.6482C16.7808 20.6932 17.4706 19.9833 18.2995 19.9833C19.1283 19.9833 19.8191 20.6932 19.8191 21.6482V22.4568C19.819 22.4701 19.8193 22.4834 19.8201 22.4966C19.8196 22.5195 19.8172 22.5417 19.8172 22.5647V25.7876C19.8161 25.8699 19.8315 25.9517 19.8624 26.028C19.8933 26.1044 19.9392 26.1739 19.9973 26.2325C20.0554 26.2911 20.1246 26.3377 20.2009 26.3694C20.2772 26.4012 20.3591 26.4175 20.4418 26.4175C20.5245 26.4175 20.6064 26.4012 20.6827 26.3694C20.759 26.3377 20.8282 26.2911 20.8863 26.2325C20.9444 26.1739 20.9903 26.1044 21.0212 26.028C21.0521 25.9517 21.0675 25.8699 21.0664 25.7876V22.5647C21.0664 21.6097 21.7573 20.9007 22.5861 20.9007C23.4149 20.9007 24.1057 21.6097 24.1057 22.5647V23.4112C24.1058 23.4203 24.1062 23.4294 24.1067 23.4384C24.1067 23.4443 24.1057 23.45 24.1057 23.4559V26.6293C24.1047 26.7116 24.1201 26.7934 24.151 26.8697C24.1819 26.9461 24.2277 27.0156 24.2859 27.0742C24.344 27.1328 24.4132 27.1793 24.4895 27.2111C24.5658 27.2429 24.6477 27.2592 24.7304 27.2592C24.8131 27.2592 24.8949 27.2429 24.9712 27.2111C25.0476 27.1793 25.1168 27.1328 25.1749 27.0742C25.233 27.0156 25.2788 26.9461 25.3097 26.8697C25.3407 26.7934 25.3561 26.7116 25.355 26.6293V23.4559C25.355 22.5304 26.0491 21.828 26.9059 21.828C27.7606 21.828 28.5343 22.5448 28.4587 23.4015C28.4565 23.4264 28.4559 23.4514 28.4567 23.4763C28.4567 23.4763 28.5288 25.7243 28.5231 28.2562C28.5174 30.7881 28.3956 33.6933 28.1434 34.6223C27.8396 35.7423 27.6367 36.173 27.471 36.4991C27.3052 36.8251 27.1264 37.1463 27.0161 37.7509C26.8638 38.5869 26.8998 39.7877 26.9342 40.4402H11.9532V38.5255C11.9532 38.5138 11.9529 38.5022 11.9522 38.4905C11.9522 38.4905 11.946 38.3696 11.9288 38.2223C11.9116 38.075 11.8985 37.9143 11.8195 37.7023C11.8195 37.702 11.8195 37.7017 11.8195 37.7013C11.7499 37.5148 11.675 37.4191 11.6106 37.3242C11.5462 37.2294 11.4896 37.1551 11.4896 37.1551C11.4877 37.1525 11.4857 37.1499 11.4837 37.1473L2.72421 26.0887C2.44383 25.7347 2.28099 25.341 2.2528 25.005C2.22461 24.669 2.30223 24.4008 2.54267 24.1488C2.54267 24.1484 2.54267 24.1481 2.54267 24.1478L2.82376 23.8533C3.30771 23.3461 4.13412 23.3325 4.71039 23.8776L10.3177 29.1832C10.3465 29.2325 10.3741 29.2827 10.4202 29.3397C10.5474 29.497 10.8163 29.7383 11.2156 29.7188C11.4257 29.7082 11.6112 29.5964 11.7124 29.4933C11.8141 29.3898 11.8625 29.2947 11.8998 29.2105C11.9744 29.042 12.0019 28.899 12.0238 28.7644C12.0675 28.495 12.0696 28.2531 12.0696 28.2531C12.0697 28.2483 12.0697 28.2434 12.0696 28.2386L12.0208 11.3488C12.0208 11.3485 12.0208 11.3481 12.0208 11.3478C12.0181 10.4648 12.7738 9.73542 13.7757 9.73542L13.7757 9.73543ZM3.79485 11.7123C3.71215 11.7113 3.63008 11.7266 3.55337 11.7574C3.47667 11.7882 3.40687 11.8338 3.34802 11.8917C3.28918 11.9496 3.24245 12.0185 3.21056 12.0945C3.17867 12.1705 3.16225 12.252 3.16225 12.3344C3.16225 12.4167 3.17867 12.4982 3.21056 12.5742C3.24245 12.6502 3.28918 12.7191 3.34802 12.777C3.40687 12.8349 3.47667 12.8805 3.55337 12.9113C3.63008 12.9421 3.71215 12.9574 3.79485 12.9564H8.61046C8.69315 12.9574 8.77523 12.9421 8.85194 12.9113C8.92864 12.8805 8.99844 12.8349 9.05728 12.777C9.11613 12.7191 9.16285 12.6502 9.19474 12.5742C9.22663 12.4982 9.24305 12.4167 9.24305 12.3344C9.24305 12.252 9.22663 12.1705 9.19474 12.0945C9.16285 12.0185 9.11613 11.9496 9.05728 11.8917C8.99844 11.8338 8.92864 11.7882 8.85194 11.7574C8.77523 11.7266 8.69315 11.7113 8.61046 11.7123H3.79485ZM18.8558 11.7123C18.7731 11.7113 18.691 11.7266 18.6143 11.7574C18.5376 11.7882 18.4678 11.8338 18.409 11.8917C18.3501 11.9496 18.3034 12.0185 18.2715 12.0945C18.2396 12.1705 18.2232 12.252 18.2232 12.3344C18.2232 12.4167 18.2396 12.4982 18.2715 12.5742C18.3034 12.6502 18.3501 12.7191 18.409 12.777C18.4678 12.8349 18.5376 12.8805 18.6143 12.9113C18.691 12.9421 18.7731 12.9574 18.8558 12.9564H23.6714C23.7541 12.9574 23.8362 12.9421 23.9129 12.9113C23.9896 12.8805 24.0594 12.8349 24.1182 12.777C24.1771 12.7191 24.2238 12.6502 24.2557 12.5742C24.2876 12.4982 24.304 12.4167 24.304 12.3344C24.304 12.252 24.2876 12.1705 24.2557 12.0945C24.2238 12.0185 24.1771 11.9496 24.1182 11.8917C24.0594 11.8338 23.9896 11.7882 23.9129 11.7574C23.8362 11.7266 23.7541 11.7113 23.6714 11.7123H18.8558ZM9.24525 41.6841H29.5637C29.5178 41.6841 29.536 41.6564 29.6076 41.7716C29.6792 41.8868 29.7511 42.1098 29.7511 42.3683V46.0713C29.7511 46.3298 29.6792 46.5539 29.6076 46.6691C29.5718 46.7267 29.549 46.7483 29.5412 46.7556H9.26778C9.26002 46.7483 9.23721 46.7267 9.20141 46.6691C9.1298 46.5539 9.05794 46.3298 9.05794 46.0713V42.3683C9.05794 42.1098 9.1298 41.8868 9.20141 41.7716C9.27302 41.6564 9.29117 41.6841 9.24533 41.6841H9.24525Z" stroke="#F2B111" stroke-width="0.4" mask="url(#path-1-outside-1)"/>
</svg>
