<svg width="40" height="30" viewBox="0 0 40 30" fill="none" xmlns="http://www.w3.org/2000/svg">
<mask id="path-1-outside-1" maskUnits="userSpaceOnUse" x="0" y="0" width="40" height="30" fill="black">
<rect fill="white" width="40" height="30"/>
<path d="M36.1404 13.1932C36.3561 12.6076 36.4665 11.9885 36.4666 11.3645C36.4666 8.51107 34.1937 6.18968 31.3999 6.18968H31.3622C31.0554 3.63427 28.9172 1.64878 26.3333 1.64878C25.3457 1.64998 24.3806 1.94396 23.5601 2.49356C23.0956 2.02062 22.5416 1.64496 21.9304 1.38852C21.3191 1.13208 20.6629 1 20 1C19.3371 1 18.6809 1.13208 18.0696 1.38852C17.4584 1.64496 16.9044 2.02062 16.4399 2.49356C15.6194 1.94396 14.6543 1.64998 13.6667 1.64878C11.0828 1.64878 8.94459 3.63467 8.63783 6.19039H8.60006C5.80629 6.19039 3.53343 8.51178 3.53343 11.3652C3.53351 11.9892 3.64393 12.6083 3.85959 13.1939C2.99531 13.6257 2.26929 14.291 1.76388 15.1143C1.25847 15.9377 0.993874 16.8863 1.00011 17.8524C1.00011 20.2789 2.61755 22.3276 4.86239 22.8807C4.82089 23.1489 4.80006 23.4199 4.80009 23.6913C4.80009 26.5447 7.07295 28.8661 9.86672 28.8661C11.1685 28.8676 12.419 28.3589 13.35 27.449C14.2292 28.3067 15.3939 28.8098 16.621 28.8619C17.8482 28.914 19.0513 28.5114 20 27.7313C20.9487 28.5114 22.1518 28.914 23.379 28.8619C24.6061 28.8098 25.7708 28.3067 26.65 27.449C27.581 28.3589 28.8315 28.8676 30.1333 28.8661C32.927 28.8661 35.1999 26.5447 35.1999 23.6913C35.1999 23.4199 35.1791 23.1489 35.1376 22.8807C37.3824 22.3276 38.9999 20.2789 38.9999 17.8524C39.0063 16.8861 38.7417 15.9375 38.2363 15.1139C37.7309 14.2904 37.0048 13.625 36.1404 13.1932ZM34.317 21.7405C33.7612 21.7983 33.1996 21.7303 32.6737 21.5414C32.1478 21.3525 31.6713 21.0476 31.2794 20.6493L30.3819 21.5432C31.3058 22.4793 32.5622 23.0123 33.8774 23.0258C33.9144 23.2457 33.9331 23.4683 33.9333 23.6913C33.9333 25.8462 32.2286 27.5995 30.1333 27.5995C29.5553 27.5986 28.9854 27.4639 28.4682 27.206C27.951 26.948 27.5005 26.5738 27.152 26.1127C27.0929 26.0358 27.0168 25.9735 26.9298 25.9306C26.8427 25.8877 26.747 25.8654 26.65 25.8654C26.5529 25.8654 26.4572 25.8877 26.3701 25.9306C26.2831 25.9735 26.207 26.0358 26.1479 26.1127C25.8216 26.5463 25.4045 26.9035 24.9259 27.1592C24.4472 27.415 23.9185 27.5632 23.3767 27.5935C22.8348 27.6237 22.2929 27.5354 21.7888 27.3346C21.2846 27.1337 20.8304 26.8253 20.4577 26.4307C20.3986 26.3689 20.3276 26.3197 20.2489 26.2861C20.1702 26.2524 20.0856 26.2351 20 26.2351C19.9144 26.2351 19.8298 26.2524 19.7511 26.2861C19.6724 26.3197 19.6014 26.3689 19.5423 26.4307C19.1696 26.8253 18.7154 27.1337 18.2112 27.3346C17.7071 27.5354 17.1652 27.6237 16.6233 27.5935C16.0815 27.5632 15.5528 27.415 15.0741 27.1592C14.5955 26.9035 14.1784 26.5463 13.8521 26.1127C13.8041 26.0506 13.7449 25.998 13.6775 25.9576L13.7182 25.93C13.202 25.1664 12.9659 24.2477 13.05 23.3299C13.1341 22.412 13.5331 21.5515 14.1794 20.8944L13.2821 20.0005C12.4547 20.8391 11.9328 21.9313 11.8002 23.102C11.6675 24.2726 11.9317 25.4539 12.5505 26.4565C12.2031 26.8178 11.7863 27.1053 11.3252 27.3017C10.864 27.4981 10.368 27.5994 9.86672 27.5995C7.77135 27.5995 6.06674 25.8462 6.06674 23.6913C6.06656 23.3053 6.12207 22.9212 6.23157 22.551C6.25799 22.4617 6.2644 22.3676 6.25033 22.2756C6.23627 22.1835 6.20207 22.0957 6.15019 22.0184C6.09831 21.9411 6.03001 21.8761 5.95017 21.8282C5.87032 21.7803 5.7809 21.7506 5.68825 21.7412C3.73768 21.5432 2.26677 19.8713 2.26677 17.8524C2.26677 16.1489 3.32569 14.654 4.90173 14.1322C4.98923 14.1032 5.06935 14.0555 5.1365 13.9924C5.20366 13.9293 5.25623 13.8523 5.29055 13.7668C5.32487 13.6813 5.34011 13.5893 5.33521 13.4972C5.33031 13.4052 5.30539 13.3154 5.26218 13.234C4.95823 12.6578 4.7996 12.0161 4.80009 11.3646C4.80009 9.20971 6.50469 7.45649 8.60006 7.45649C8.78162 7.45676 8.96291 7.47023 9.14251 7.49679C9.14584 7.49734 9.14924 7.49726 9.15256 7.49774C9.9739 7.6217 10.7306 8.01567 11.3031 8.61747C10.5827 9.33122 10.0879 10.241 9.88042 11.2337L11.1197 11.4955C11.2818 10.7181 11.6766 10.0084 12.2518 9.4609C12.6167 9.10928 13.0496 8.83602 13.524 8.65792C13.9984 8.47982 14.5043 8.40064 15.0104 8.42525L15.0711 7.1601C14.104 7.11154 13.1439 7.34814 12.31 7.84053C11.6639 7.12519 10.8251 6.61135 9.89435 6.3606C10.1178 4.42284 11.7237 2.91544 13.6667 2.91544C14.5656 2.9175 15.4337 3.24335 16.1119 3.83329C16.177 3.88964 16.2529 3.93213 16.3349 3.95817C16.4169 3.98422 16.5034 3.99326 16.5891 3.98475C16.6747 3.97625 16.7578 3.95037 16.8331 3.9087C16.9084 3.86704 16.9744 3.81046 17.0271 3.74241C17.3463 3.32109 17.7515 2.97252 18.2157 2.71985C18.6799 2.46719 19.1926 2.31622 19.7197 2.27697C20.2468 2.23773 20.7762 2.3111 21.2728 2.49223C21.7693 2.67336 22.2216 2.95809 22.5997 3.3275C21.7392 4.28833 21.2644 5.53338 21.2667 6.82316H22.5333C22.5313 6.25884 22.6503 5.70064 22.8822 5.18619C23.1141 4.67173 23.4537 4.21297 23.8779 3.84081C23.8812 3.83804 23.8848 3.83567 23.8881 3.8329C24.5664 3.2431 25.4344 2.91739 26.3333 2.91544C28.2759 2.91544 29.8815 4.42261 30.1053 6.36218C29.2173 6.6045 28.412 7.08387 27.7756 7.74893L28.6909 8.62443C29.2656 8.02169 30.0234 7.62575 30.8464 7.49821C30.8501 7.49774 30.8538 7.49774 30.8575 7.49718C31.0371 7.47062 31.2184 7.45715 31.3999 7.45689C33.4953 7.45689 35.1999 9.2101 35.1999 11.365C35.2004 12.0165 35.0418 12.6582 34.7378 13.2344C34.6946 13.3158 34.6697 13.4056 34.6648 13.4976C34.6599 13.5897 34.6751 13.6816 34.7094 13.7672C34.7438 13.8527 34.7963 13.9297 34.8635 13.9928C34.9307 14.0559 35.0108 14.1036 35.0983 14.1326C36.6743 14.6539 37.7332 16.1489 37.7332 17.8524C37.7332 19.8694 36.2649 21.5399 34.317 21.7405Z"/>
</mask>
<path d="M36.1404 13.1932C36.3561 12.6076 36.4665 11.9885 36.4666 11.3645C36.4666 8.51107 34.1937 6.18968 31.3999 6.18968H31.3622C31.0554 3.63427 28.9172 1.64878 26.3333 1.64878C25.3457 1.64998 24.3806 1.94396 23.5601 2.49356C23.0956 2.02062 22.5416 1.64496 21.9304 1.38852C21.3191 1.13208 20.6629 1 20 1C19.3371 1 18.6809 1.13208 18.0696 1.38852C17.4584 1.64496 16.9044 2.02062 16.4399 2.49356C15.6194 1.94396 14.6543 1.64998 13.6667 1.64878C11.0828 1.64878 8.94459 3.63467 8.63783 6.19039H8.60006C5.80629 6.19039 3.53343 8.51178 3.53343 11.3652C3.53351 11.9892 3.64393 12.6083 3.85959 13.1939C2.99531 13.6257 2.26929 14.291 1.76388 15.1143C1.25847 15.9377 0.993874 16.8863 1.00011 17.8524C1.00011 20.2789 2.61755 22.3276 4.86239 22.8807C4.82089 23.1489 4.80006 23.4199 4.80009 23.6913C4.80009 26.5447 7.07295 28.8661 9.86672 28.8661C11.1685 28.8676 12.419 28.3589 13.35 27.449C14.2292 28.3067 15.3939 28.8098 16.621 28.8619C17.8482 28.914 19.0513 28.5114 20 27.7313C20.9487 28.5114 22.1518 28.914 23.379 28.8619C24.6061 28.8098 25.7708 28.3067 26.65 27.449C27.581 28.3589 28.8315 28.8676 30.1333 28.8661C32.927 28.8661 35.1999 26.5447 35.1999 23.6913C35.1999 23.4199 35.1791 23.1489 35.1376 22.8807C37.3824 22.3276 38.9999 20.2789 38.9999 17.8524C39.0063 16.8861 38.7417 15.9375 38.2363 15.1139C37.7309 14.2904 37.0048 13.625 36.1404 13.1932ZM34.317 21.7405C33.7612 21.7983 33.1996 21.7303 32.6737 21.5414C32.1478 21.3525 31.6713 21.0476 31.2794 20.6493L30.3819 21.5432C31.3058 22.4793 32.5622 23.0123 33.8774 23.0258C33.9144 23.2457 33.9331 23.4683 33.9333 23.6913C33.9333 25.8462 32.2286 27.5995 30.1333 27.5995C29.5553 27.5986 28.9854 27.4639 28.4682 27.206C27.951 26.948 27.5005 26.5738 27.152 26.1127C27.0929 26.0358 27.0168 25.9735 26.9298 25.9306C26.8427 25.8877 26.747 25.8654 26.65 25.8654C26.5529 25.8654 26.4572 25.8877 26.3701 25.9306C26.2831 25.9735 26.207 26.0358 26.1479 26.1127C25.8216 26.5463 25.4045 26.9035 24.9259 27.1592C24.4472 27.415 23.9185 27.5632 23.3767 27.5935C22.8348 27.6237 22.2929 27.5354 21.7888 27.3346C21.2846 27.1337 20.8304 26.8253 20.4577 26.4307C20.3986 26.3689 20.3276 26.3197 20.2489 26.2861C20.1702 26.2524 20.0856 26.2351 20 26.2351C19.9144 26.2351 19.8298 26.2524 19.7511 26.2861C19.6724 26.3197 19.6014 26.3689 19.5423 26.4307C19.1696 26.8253 18.7154 27.1337 18.2112 27.3346C17.7071 27.5354 17.1652 27.6237 16.6233 27.5935C16.0815 27.5632 15.5528 27.415 15.0741 27.1592C14.5955 26.9035 14.1784 26.5463 13.8521 26.1127C13.8041 26.0506 13.7449 25.998 13.6775 25.9576L13.7182 25.93C13.202 25.1664 12.9659 24.2477 13.05 23.3299C13.1341 22.412 13.5331 21.5515 14.1794 20.8944L13.2821 20.0005C12.4547 20.8391 11.9328 21.9313 11.8002 23.102C11.6675 24.2726 11.9317 25.4539 12.5505 26.4565C12.2031 26.8178 11.7863 27.1053 11.3252 27.3017C10.864 27.4981 10.368 27.5994 9.86672 27.5995C7.77135 27.5995 6.06674 25.8462 6.06674 23.6913C6.06656 23.3053 6.12207 22.9212 6.23157 22.551C6.25799 22.4617 6.2644 22.3676 6.25033 22.2756C6.23627 22.1835 6.20207 22.0957 6.15019 22.0184C6.09831 21.9411 6.03001 21.8761 5.95017 21.8282C5.87032 21.7803 5.7809 21.7506 5.68825 21.7412C3.73768 21.5432 2.26677 19.8713 2.26677 17.8524C2.26677 16.1489 3.32569 14.654 4.90173 14.1322C4.98923 14.1032 5.06935 14.0555 5.1365 13.9924C5.20366 13.9293 5.25623 13.8523 5.29055 13.7668C5.32487 13.6813 5.34011 13.5893 5.33521 13.4972C5.33031 13.4052 5.30539 13.3154 5.26218 13.234C4.95823 12.6578 4.7996 12.0161 4.80009 11.3646C4.80009 9.20971 6.50469 7.45649 8.60006 7.45649C8.78162 7.45676 8.96291 7.47023 9.14251 7.49679C9.14584 7.49734 9.14924 7.49726 9.15256 7.49774C9.9739 7.6217 10.7306 8.01567 11.3031 8.61747C10.5827 9.33122 10.0879 10.241 9.88042 11.2337L11.1197 11.4955C11.2818 10.7181 11.6766 10.0084 12.2518 9.4609C12.6167 9.10928 13.0496 8.83602 13.524 8.65792C13.9984 8.47982 14.5043 8.40064 15.0104 8.42525L15.0711 7.1601C14.104 7.11154 13.1439 7.34814 12.31 7.84053C11.6639 7.12519 10.8251 6.61135 9.89435 6.3606C10.1178 4.42284 11.7237 2.91544 13.6667 2.91544C14.5656 2.9175 15.4337 3.24335 16.1119 3.83329C16.177 3.88964 16.2529 3.93213 16.3349 3.95817C16.4169 3.98422 16.5034 3.99326 16.5891 3.98475C16.6747 3.97625 16.7578 3.95037 16.8331 3.9087C16.9084 3.86704 16.9744 3.81046 17.0271 3.74241C17.3463 3.32109 17.7515 2.97252 18.2157 2.71985C18.6799 2.46719 19.1926 2.31622 19.7197 2.27697C20.2468 2.23773 20.7762 2.3111 21.2728 2.49223C21.7693 2.67336 22.2216 2.95809 22.5997 3.3275C21.7392 4.28833 21.2644 5.53338 21.2667 6.82316H22.5333C22.5313 6.25884 22.6503 5.70064 22.8822 5.18619C23.1141 4.67173 23.4537 4.21297 23.8779 3.84081C23.8812 3.83804 23.8848 3.83567 23.8881 3.8329C24.5664 3.2431 25.4344 2.91739 26.3333 2.91544C28.2759 2.91544 29.8815 4.42261 30.1053 6.36218C29.2173 6.6045 28.412 7.08387 27.7756 7.74893L28.6909 8.62443C29.2656 8.02169 30.0234 7.62575 30.8464 7.49821C30.8501 7.49774 30.8538 7.49774 30.8575 7.49718C31.0371 7.47062 31.2184 7.45715 31.3999 7.45689C33.4953 7.45689 35.1999 9.2101 35.1999 11.365C35.2004 12.0165 35.0418 12.6582 34.7378 13.2344C34.6946 13.3158 34.6697 13.4056 34.6648 13.4976C34.6599 13.5897 34.6751 13.6816 34.7094 13.7672C34.7438 13.8527 34.7963 13.9297 34.8635 13.9928C34.9307 14.0559 35.0108 14.1036 35.0983 14.1326C36.6743 14.6539 37.7332 16.1489 37.7332 17.8524C37.7332 19.8694 36.2649 21.5399 34.317 21.7405Z" fill="#F2B111"/>
<path d="M36.1404 13.1932C36.3561 12.6076 36.4665 11.9885 36.4666 11.3645C36.4666 8.51107 34.1937 6.18968 31.3999 6.18968H31.3622C31.0554 3.63427 28.9172 1.64878 26.3333 1.64878C25.3457 1.64998 24.3806 1.94396 23.5601 2.49356C23.0956 2.02062 22.5416 1.64496 21.9304 1.38852C21.3191 1.13208 20.6629 1 20 1C19.3371 1 18.6809 1.13208 18.0696 1.38852C17.4584 1.64496 16.9044 2.02062 16.4399 2.49356C15.6194 1.94396 14.6543 1.64998 13.6667 1.64878C11.0828 1.64878 8.94459 3.63467 8.63783 6.19039H8.60006C5.80629 6.19039 3.53343 8.51178 3.53343 11.3652C3.53351 11.9892 3.64393 12.6083 3.85959 13.1939C2.99531 13.6257 2.26929 14.291 1.76388 15.1143C1.25847 15.9377 0.993874 16.8863 1.00011 17.8524C1.00011 20.2789 2.61755 22.3276 4.86239 22.8807C4.82089 23.1489 4.80006 23.4199 4.80009 23.6913C4.80009 26.5447 7.07295 28.8661 9.86672 28.8661C11.1685 28.8676 12.419 28.3589 13.35 27.449C14.2292 28.3067 15.3939 28.8098 16.621 28.8619C17.8482 28.914 19.0513 28.5114 20 27.7313C20.9487 28.5114 22.1518 28.914 23.379 28.8619C24.6061 28.8098 25.7708 28.3067 26.65 27.449C27.581 28.3589 28.8315 28.8676 30.1333 28.8661C32.927 28.8661 35.1999 26.5447 35.1999 23.6913C35.1999 23.4199 35.1791 23.1489 35.1376 22.8807C37.3824 22.3276 38.9999 20.2789 38.9999 17.8524C39.0063 16.8861 38.7417 15.9375 38.2363 15.1139C37.7309 14.2904 37.0048 13.625 36.1404 13.1932ZM34.317 21.7405C33.7612 21.7983 33.1996 21.7303 32.6737 21.5414C32.1478 21.3525 31.6713 21.0476 31.2794 20.6493L30.3819 21.5432C31.3058 22.4793 32.5622 23.0123 33.8774 23.0258C33.9144 23.2457 33.9331 23.4683 33.9333 23.6913C33.9333 25.8462 32.2286 27.5995 30.1333 27.5995C29.5553 27.5986 28.9854 27.4639 28.4682 27.206C27.951 26.948 27.5005 26.5738 27.152 26.1127C27.0929 26.0358 27.0168 25.9735 26.9298 25.9306C26.8427 25.8877 26.747 25.8654 26.65 25.8654C26.5529 25.8654 26.4572 25.8877 26.3701 25.9306C26.2831 25.9735 26.207 26.0358 26.1479 26.1127C25.8216 26.5463 25.4045 26.9035 24.9259 27.1592C24.4472 27.415 23.9185 27.5632 23.3767 27.5935C22.8348 27.6237 22.2929 27.5354 21.7888 27.3346C21.2846 27.1337 20.8304 26.8253 20.4577 26.4307C20.3986 26.3689 20.3276 26.3197 20.2489 26.2861C20.1702 26.2524 20.0856 26.2351 20 26.2351C19.9144 26.2351 19.8298 26.2524 19.7511 26.2861C19.6724 26.3197 19.6014 26.3689 19.5423 26.4307C19.1696 26.8253 18.7154 27.1337 18.2112 27.3346C17.7071 27.5354 17.1652 27.6237 16.6233 27.5935C16.0815 27.5632 15.5528 27.415 15.0741 27.1592C14.5955 26.9035 14.1784 26.5463 13.8521 26.1127C13.8041 26.0506 13.7449 25.998 13.6775 25.9576L13.7182 25.93C13.202 25.1664 12.9659 24.2477 13.05 23.3299C13.1341 22.412 13.5331 21.5515 14.1794 20.8944L13.2821 20.0005C12.4547 20.8391 11.9328 21.9313 11.8002 23.102C11.6675 24.2726 11.9317 25.4539 12.5505 26.4565C12.2031 26.8178 11.7863 27.1053 11.3252 27.3017C10.864 27.4981 10.368 27.5994 9.86672 27.5995C7.77135 27.5995 6.06674 25.8462 6.06674 23.6913C6.06656 23.3053 6.12207 22.9212 6.23157 22.551C6.25799 22.4617 6.2644 22.3676 6.25033 22.2756C6.23627 22.1835 6.20207 22.0957 6.15019 22.0184C6.09831 21.9411 6.03001 21.8761 5.95017 21.8282C5.87032 21.7803 5.7809 21.7506 5.68825 21.7412C3.73768 21.5432 2.26677 19.8713 2.26677 17.8524C2.26677 16.1489 3.32569 14.654 4.90173 14.1322C4.98923 14.1032 5.06935 14.0555 5.1365 13.9924C5.20366 13.9293 5.25623 13.8523 5.29055 13.7668C5.32487 13.6813 5.34011 13.5893 5.33521 13.4972C5.33031 13.4052 5.30539 13.3154 5.26218 13.234C4.95823 12.6578 4.7996 12.0161 4.80009 11.3646C4.80009 9.20971 6.50469 7.45649 8.60006 7.45649C8.78162 7.45676 8.96291 7.47023 9.14251 7.49679C9.14584 7.49734 9.14924 7.49726 9.15256 7.49774C9.9739 7.6217 10.7306 8.01567 11.3031 8.61747C10.5827 9.33122 10.0879 10.241 9.88042 11.2337L11.1197 11.4955C11.2818 10.7181 11.6766 10.0084 12.2518 9.4609C12.6167 9.10928 13.0496 8.83602 13.524 8.65792C13.9984 8.47982 14.5043 8.40064 15.0104 8.42525L15.0711 7.1601C14.104 7.11154 13.1439 7.34814 12.31 7.84053C11.6639 7.12519 10.8251 6.61135 9.89435 6.3606C10.1178 4.42284 11.7237 2.91544 13.6667 2.91544C14.5656 2.9175 15.4337 3.24335 16.1119 3.83329C16.177 3.88964 16.2529 3.93213 16.3349 3.95817C16.4169 3.98422 16.5034 3.99326 16.5891 3.98475C16.6747 3.97625 16.7578 3.95037 16.8331 3.9087C16.9084 3.86704 16.9744 3.81046 17.0271 3.74241C17.3463 3.32109 17.7515 2.97252 18.2157 2.71985C18.6799 2.46719 19.1926 2.31622 19.7197 2.27697C20.2468 2.23773 20.7762 2.3111 21.2728 2.49223C21.7693 2.67336 22.2216 2.95809 22.5997 3.3275C21.7392 4.28833 21.2644 5.53338 21.2667 6.82316H22.5333C22.5313 6.25884 22.6503 5.70064 22.8822 5.18619C23.1141 4.67173 23.4537 4.21297 23.8779 3.84081C23.8812 3.83804 23.8848 3.83567 23.8881 3.8329C24.5664 3.2431 25.4344 2.91739 26.3333 2.91544C28.2759 2.91544 29.8815 4.42261 30.1053 6.36218C29.2173 6.6045 28.412 7.08387 27.7756 7.74893L28.6909 8.62443C29.2656 8.02169 30.0234 7.62575 30.8464 7.49821C30.8501 7.49774 30.8538 7.49774 30.8575 7.49718C31.0371 7.47062 31.2184 7.45715 31.3999 7.45689C33.4953 7.45689 35.1999 9.2101 35.1999 11.365C35.2004 12.0165 35.0418 12.6582 34.7378 13.2344C34.6946 13.3158 34.6697 13.4056 34.6648 13.4976C34.6599 13.5897 34.6751 13.6816 34.7094 13.7672C34.7438 13.8527 34.7963 13.9297 34.8635 13.9928C34.9307 14.0559 35.0108 14.1036 35.0983 14.1326C36.6743 14.6539 37.7332 16.1489 37.7332 17.8524C37.7332 19.8694 36.2649 21.5399 34.317 21.7405Z" stroke="#F2B111" stroke-width="0.4" mask="url(#path-1-outside-1)"/>
<path d="M23.8001 13.6716C23.8046 13.174 23.6809 12.6836 23.4409 12.2477C23.2009 11.8118 22.8527 11.4451 22.4298 11.1828L22.4298 11.1828L23.0423 10.1901L23.8001 13.6716ZM23.8001 13.6716C23.8001 15.27 22.5374 16.5705 20.9853 16.5705L23.8001 13.6716ZM24.9936 14.8837C25.4932 14.5338 26.0987 14.367 26.7077 14.4121C27.3281 14.458 27.9126 14.7209 28.3585 15.1547L28.4307 15.2249L28.5004 15.1523L29.3774 14.2383L29.4462 14.1666L29.3749 14.0973C28.973 13.7071 28.4954 13.4033 27.9717 13.2047C27.4479 13.0061 26.8891 12.9168 26.3295 12.9423C26.3295 12.9423 26.3295 12.9423 26.3294 12.9423L26.334 13.0422L24.9936 14.8837Z" fill="#F2B111" stroke="#F2B111" stroke-width="0.2"/>
<path d="M12.4077 15.8067L12.4079 15.8068C13.0986 16.1087 13.867 16.1849 14.6035 16.0245L14.7014 16.0032L14.7225 16.1011L14.9904 17.3389L15.0115 17.4365L14.9139 17.4578C13.8774 17.6839 12.796 17.577 11.8238 17.1523C11.7563 17.123 11.6899 17.0919 11.6245 17.0598C11.4496 17.5933 11.1668 18.0856 10.7933 18.5059L10.7932 18.506C9.99776 19.3984 8.87526 19.8777 7.61072 19.8777C7.6107 19.8777 7.61069 19.8777 7.61067 19.8777L12.4077 15.8067ZM12.4077 15.8067C11.9493 15.6074 11.5357 15.318 11.1913 14.9557C10.847 14.5934 10.5789 14.1656 10.4031 13.6977L10.3677 13.6034L10.2737 13.6396L9.09123 14.0939L8.99817 14.1297L9.03364 14.2228C9.31571 14.9637 9.76171 15.6309 10.338 16.1747M12.4077 15.8067L10.338 16.1747M10.338 16.1747C10.256 16.6773 10.0344 17.1471 9.69812 17.5304L10.338 16.1747Z" fill="#F2B111" stroke="#F2B111" stroke-width="0.2"/>
<path d="M19.8264 23.6287C20.2337 23.7283 20.6515 23.7787 21.0708 23.779C22.003 23.7832 22.9181 23.5297 23.7152 23.0463C24.5123 22.5628 25.1602 21.8684 25.5872 21.0397L25.5873 21.0395L25.7191 20.7827L25.7647 20.6937L25.6758 20.648L24.5489 20.0697L24.4599 20.0241L24.4143 20.113L24.2825 20.3699C24.2825 20.3699 24.2825 20.3699 24.2825 20.3699C23.5341 21.8281 21.8059 22.6014 20.1737 22.2037L20.0765 22.18L20.0528 22.2772L19.7529 23.5079L19.7293 23.605L19.8264 23.6287Z" fill="#F2B111" stroke="#F2B111" stroke-width="0.2"/>
</svg>
