<svg width="42" height="39" viewBox="0 0 42 39" fill="none" xmlns="http://www.w3.org/2000/svg">
<path d="M14.9874 32.6005L14.9876 32.6009C15.098 32.9318 15.406 33.1385 15.7312 33.1385C15.8139 33.1385 15.8984 33.1237 15.9772 33.1004L15.9772 33.1004L15.9805 33.0993L26.5145 29.5854C26.5146 29.5854 26.5146 29.5854 26.5147 29.5854C26.8789 29.4653 27.1053 29.0968 27.0419 28.7164C26.9795 28.3386 26.6537 28.0597 26.2696 28.0597L15.7308 28.0597L15.7307 28.0597C15.2991 28.0601 14.95 28.4093 14.95 28.8421C14.95 29.2739 15.299 29.6241 15.7312 29.6241H21.4461L15.4871 31.613C15.487 31.613 15.4868 31.6131 15.4867 31.6131C15.074 31.7474 14.8536 32.1935 14.9874 32.6005Z" fill="#F2B111" stroke="#F2B111" stroke-width="0.2"/>
<path d="M25.7129 35.3144L25.7129 35.3144C26.0199 35.0079 26.5141 35.0078 26.8212 35.3141C27.1286 35.6168 27.1278 36.1157 26.8214 36.4215L26.8213 36.4217C26.7305 36.512 24.7858 38.4056 21.002 38.4056C17.213 38.4056 15.2694 36.512 15.1789 36.4215M25.7129 35.3144L15.2496 36.3508M25.7129 35.3144L25.7105 35.3168C25.7106 35.3168 25.7105 35.3169 25.7102 35.3172C25.6831 35.3433 24.127 36.8412 21.0024 36.8412C19.4488 36.8412 18.2848 36.4762 17.5047 36.1023L26.514 33.0992L26.5143 33.0991C26.9265 32.9604 27.1464 32.5153 27.013 32.1076L27.0126 32.1065C26.8728 31.6956 26.4323 31.4733 26.0193 31.6132C26.0192 31.6132 26.0192 31.6132 26.0191 31.6133L15.486 35.1227L25.7129 35.3144ZM15.1789 36.4215L15.2496 36.3508M15.1789 36.4215C15.1789 36.4215 15.179 36.4216 15.179 36.4216L15.2496 36.3508M15.1789 36.4215C14.9871 36.2305 14.9058 35.9528 14.9687 35.6877M15.2496 36.3508C15.082 36.184 15.0112 35.9416 15.066 35.7108M14.9687 35.6877C14.9686 35.6878 14.9686 35.6878 14.9686 35.6879L15.066 35.7108M14.9687 35.6877C14.9687 35.6877 14.9687 35.6877 14.9687 35.6877L15.066 35.7108M14.9687 35.6877C15.0306 35.4245 15.2267 35.2089 15.486 35.1227L15.066 35.7108" fill="#F2B111" stroke="#F2B111" stroke-width="0.2"/>
<path d="M12.845 20.8745L12.8451 20.8747L12.8474 20.8781C13.4162 21.7207 13.9423 22.5 14.3269 23.2391C14.712 23.9793 14.95 24.6696 14.95 25.3323C14.95 25.7638 15.299 26.1139 15.7312 26.1139C16.1623 26.1139 16.5176 25.7648 16.5176 25.3323C16.5176 24.4156 16.2239 23.5284 15.7822 22.6491C15.3454 21.7795 14.7601 20.9106 14.1629 20.0242L14.1445 19.9968L14.1445 19.9968C12.7065 17.8669 11.246 15.6956 11.246 13.0363C11.246 7.66157 15.6232 3.28431 21.0028 3.28431C26.3783 3.28431 30.7548 7.66193 30.7548 13.0363C30.7548 15.6896 29.2965 17.8566 27.8659 19.9825L27.8563 19.9968L27.8562 19.9969L27.8551 19.9985C27.2517 20.8939 26.6605 21.7713 26.2207 22.6494C25.7803 23.5287 25.488 24.4159 25.488 25.3323C25.488 25.7639 25.8375 26.1139 26.2696 26.1139C26.7011 26.1139 27.052 25.7641 27.052 25.3323C27.052 24.6696 27.2896 23.9793 27.6743 23.2391C28.059 22.4989 28.5856 21.7186 29.1553 20.8747L29.1553 20.8745L29.1633 20.8627C30.6321 18.6805 32.3188 16.1745 32.3188 13.0363C32.3188 6.79747 27.2404 1.72031 21.0024 1.72031C14.7588 1.72031 9.68198 6.79746 9.68198 13.0363C9.68198 16.1751 11.3693 18.682 12.8384 20.8648L12.845 20.8745Z" fill="#F2B111" stroke="#F2B111" stroke-width="0.2"/>
<path d="M21.784 6.01159C21.784 5.58 21.4337 5.22959 21.0024 5.22959C16.6964 5.22959 13.192 8.73433 13.192 13.0356C13.192 13.4716 13.5419 13.822 13.9736 13.822C14.4096 13.822 14.76 13.4721 14.76 13.0356C14.76 9.59806 17.56 6.79759 21.0024 6.79759C21.4344 6.79759 21.784 6.44242 21.784 6.01159Z" fill="#F2B111" stroke="#F2B111" stroke-width="0.2"/>
<path d="M4.82001 1.28408L4.73942 1.22487C4.48442 1.57193 4.56291 2.06001 4.91123 2.3184L4.91122 2.3184L4.91204 2.31899L9.17484 5.41499L9.17515 5.41522C9.31454 5.51563 9.47759 5.56368 9.63561 5.56368C9.87926 5.56368 10.1153 5.45358 10.2686 5.24195C10.5225 4.89217 10.4455 4.40295 10.0961 4.14845L10.096 4.1484L5.83282 1.0484L5.83271 1.04833C5.48175 0.793835 4.99305 0.875728 4.7391 1.22531L4.82001 1.28408ZM4.82001 1.28408C5.04201 0.978481 5.46841 0.907681 5.77401 1.12928L4.97081 2.23808C4.66561 2.01168 4.59841 1.58568 4.82001 1.28408Z" fill="#F2B111" stroke="#F2B111" stroke-width="0.2"/>
<path d="M32.826 5.41531L32.8264 5.41499L37.0888 2.31899L37.0888 2.31899L37.0896 2.31843C37.4382 2.06014 37.5169 1.57213 37.2607 1.22502C37.0071 0.875615 36.5181 0.793955 36.1673 1.04833L36.1672 1.0484L31.904 4.1484L31.904 4.14845C31.5544 4.40303 31.478 4.89233 31.7319 5.24204L31.732 5.24218C31.886 5.45348 32.1214 5.56368 32.3648 5.56368C32.5237 5.56368 32.6863 5.51562 32.826 5.41531Z" fill="#F2B111" stroke="#F2B111" stroke-width="0.2"/>
<path d="M40.3188 12.254H35.0508C34.6156 12.254 34.2652 12.6036 34.2652 13.0356C34.2652 13.472 34.6151 13.822 35.0508 13.822H40.3188C40.7501 13.822 41.1 13.4716 41.1 13.0356C41.1 12.6044 40.7497 12.254 40.3188 12.254Z" fill="#F2B111" stroke="#F2B111" stroke-width="0.2"/>
<path d="M1.68206 12.2545C1.25079 12.2541 0.9 12.6045 0.9 13.0361C0.9 13.4722 1.25043 13.8225 1.682 13.8225H6.9536L6.95371 13.8225C7.38594 13.822 7.736 13.4718 7.736 13.0361C7.736 12.6043 7.38551 12.2545 6.9536 12.2545H1.68206ZM1.68206 12.2545C1.68207 12.2545 1.68209 12.2545 1.68211 12.2545L1.682 12.3545V12.2545H1.68206Z" fill="#F2B111" stroke="#F2B111" stroke-width="0.2"/>
<path d="M32.8264 20.6617L32.8262 20.6615C32.4752 20.408 31.9858 20.4835 31.7318 20.8347C31.4781 21.1848 31.5544 21.6737 31.904 21.9279L31.9041 21.9279L36.1673 25.0239L36.1674 25.024C36.3058 25.1243 36.4687 25.177 36.628 25.177C36.8691 25.177 37.1086 25.0617 37.261 24.8514C37.5161 24.5012 37.4392 24.0118 37.0887 23.7576L32.8264 20.6617Z" fill="#F2B111" stroke="#F2B111" stroke-width="0.2"/>
<path d="M4.91209 23.7576C4.56152 24.0119 4.48521 24.5012 4.73904 24.8513L4.73933 24.8517C4.89301 25.0615 5.13101 25.177 5.372 25.177C5.53602 25.177 5.69483 25.1242 5.83276 25.0239C5.83277 25.0239 5.83279 25.0239 5.8328 25.0239L10.096 21.9279C10.4461 21.6737 10.5224 21.1847 10.2686 20.8347L10.2685 20.8347C10.0139 20.4837 9.52451 20.4078 9.17484 20.6617L9.17483 20.6617L4.91209 23.7576ZM4.91209 23.7576L4.9708 23.8386M4.91209 23.7576L4.91203 23.7577L4.9708 23.8386M4.9708 23.8386L9.2336 20.7426L5.774 24.943C5.6524 25.0314 5.514 25.077 5.372 25.077C5.1628 25.077 4.9548 24.9766 4.82 24.7926C4.5984 24.487 4.6652 24.0602 4.9708 23.8386Z" fill="#F2B111" stroke="#F2B111" stroke-width="0.2"/>
</svg>
