<svg width="39" height="39" viewBox="0 0 39 39" fill="none" xmlns="http://www.w3.org/2000/svg">
<path d="M15.7742 14.0773L15.7744 14.0773C18.1591 14.0746 20.1196 12.1141 20.1223 9.72941V9.72924L20.1223 5.09556L20.1223 5.09538C20.1196 2.71072 18.1591 0.750236 15.7744 0.747461H15.7742L14.7394 0.747461L14.7392 0.747461C12.3545 0.750236 10.394 2.71072 10.3913 5.09538V5.09556L10.3913 9.72924L10.3913 9.72941C10.394 12.1141 12.3545 14.0746 14.7392 14.0773H14.7394L15.7742 14.0773ZM11.8819 9.72904V5.09576C11.884 3.5295 13.1732 2.24025 14.7395 2.23813C14.7395 2.23813 14.7395 2.23813 14.7396 2.23813H15.774C15.7741 2.23813 15.7741 2.23813 15.7741 2.23813C17.3404 2.24025 18.6296 3.5295 18.6317 5.09576V9.72904C18.6296 11.2953 17.3403 12.5846 15.774 12.5867H14.7396C13.1733 12.5846 11.884 11.2953 11.8819 9.72904Z" fill="#F2B111" stroke="#F2B111" stroke-width="0.3"/>
<path d="M27.0894 20.9742L27.0894 20.9996L27.0978 21.0236L27.3955 21.8729L27.4422 22.0064L27.5782 21.9675L28.2728 21.7691L28.3513 21.7467L28.3751 21.6686L28.5735 21.0177L28.5801 20.9962L28.58 20.9738C28.5762 17.5882 25.792 14.8045 22.4064 14.8012H22.4062L8.10434 14.8012L8.10417 14.8012C4.71884 14.805 1.93541 17.5885 1.93154 20.9738V20.974V33.984C1.93154 34.3935 2.26739 34.7293 2.67688 34.7293H11.7319H11.8819V34.5793V33.3887V33.2387H11.7319H3.42221L3.42221 20.9742C3.42538 18.4072 5.53759 16.295 8.10452 16.2918L22.4061 16.2918C24.9733 16.2944 27.0862 18.4069 27.0894 20.9742Z" fill="#F2B111" stroke="#F2B111" stroke-width="0.3"/>
<path d="M33.0746 37.871H33.0748C33.413 37.8706 33.7101 37.6405 33.7953 37.3133L33.7953 37.3132L37.8188 21.8097L37.8188 21.8096C37.8346 21.7487 37.8425 21.686 37.8425 21.6232C37.8425 21.2137 37.5065 20.8778 37.0972 20.8778H37.0972H37.0971H37.0971H37.0971H37.0971H37.0971H8.28391H8.28391H8.28391H8.28391H8.28391H8.28391H8.28391H8.28391H8.28391H8.2839H8.2839H8.2839H8.2839H8.2839H8.2839H8.2839H8.2839H8.2839H8.2839H8.2839H8.2839H8.2839H8.2839H8.2839H8.2839H8.2839H8.2839H8.2839H8.28389H8.28389H8.28389H8.28389H8.28389H8.28389H8.28389H8.28389H8.28389H8.28389H8.28389H8.28389H8.28389H8.28389H8.28389H8.28389H8.28389H8.28389H8.28388H8.28388H8.28388H8.28388H8.28388H8.28388H8.28388H8.28388H8.28388H8.28388H8.28388H8.28388H8.28388H8.28388H8.28388H8.28388H8.28388H8.28388H8.28388H8.28387H8.28387H8.28387H8.28387H8.28387H8.28387H8.28387H8.28387H8.28387H8.28387H8.28387H8.28387H8.28387H8.28387H8.28387H8.28387H8.28386H8.28386H8.28386H8.28386H8.28386H8.28386H8.28386H8.28386H8.28386H8.28386H8.28386H8.28386H8.28386H8.28385H8.28385H8.28385H8.28385H8.28385H8.28385H8.28385H8.28385H8.28385H8.28385H8.28385H8.28385H8.28385H8.28384H8.28384H8.28384H8.28384H8.28384H8.28384H8.28384H8.28384H8.28384H8.28384H8.28384H8.28384H8.28384H8.28384H8.28384H8.28384H8.28383H8.28383H8.28383H8.28383H8.28383H8.28383H8.28383H8.28383H8.28383H8.28383H8.28383H8.28383H8.28383H8.28383H8.28383H8.28383H8.28383H8.28383H8.28383H8.28383H8.28382H8.28382H8.28382H8.28382H8.28382H8.28382H8.28382H8.28382H8.28382H8.28382H8.28382H8.28382H8.28382H8.28382H8.28382H8.28382H8.28382H8.28382H8.28382H8.28381H8.28381H8.28381H8.28381H8.28381H8.28381H8.28381H8.28381C7.87444 20.8778 7.53848 21.2137 7.53848 21.6232C7.53848 21.686 7.54643 21.7487 7.56223 21.8096L7.56224 21.8097L11.5857 37.3132L11.5857 37.3133C11.6709 37.6405 11.968 37.8706 12.3062 37.871H12.3064H33.0746ZM32.4962 36.3803H12.8838L9.24777 22.3685H36.1322L32.4962 36.3803Z" fill="#F2B111" stroke="#F2B111" stroke-width="0.3"/>
<path d="M20.1022 29.2493C20.1022 30.8121 21.2482 32.1101 22.6901 32.1101C24.1329 32.1101 25.279 30.8111 25.279 29.2493C25.279 27.6876 24.134 26.3886 22.6901 26.3886C21.2462 26.3886 20.1022 27.6866 20.1022 29.2493ZM21.5929 29.2493C21.5929 28.4647 22.1117 27.8792 22.6901 27.8792C23.2696 27.8792 23.7883 28.4647 23.7883 29.2493C23.7883 30.0338 23.2686 30.6194 22.6901 30.6194C22.1117 30.6194 21.5929 30.034 21.5929 29.2493Z" fill="#F2B111" stroke="#F2B111" stroke-width="0.3"/>
<path d="M1.59533 37.8641H37.4047C37.8141 37.8641 38.15 37.5283 38.15 37.1188C38.15 36.7093 37.8141 36.3734 37.4047 36.3734H1.59533C1.18585 36.3734 0.85 36.7093 0.85 37.1188C0.85 37.5283 1.18585 37.8641 1.59533 37.8641Z" fill="#F2B111" stroke="#F2B111" stroke-width="0.3"/>
</svg>
