<svg width="31" height="30" viewBox="0 0 31 30" fill="none" xmlns="http://www.w3.org/2000/svg">
<path d="M5.39964 28.4174L5.39964 28.4174L0.943219 7.22842L5.39964 28.4174ZM5.39964 28.4174C5.4394 28.6063 5.54259 28.7754 5.6918 28.8955C5.84081 29.0154 6.02636 29.0789 6.21661 29.0748H24.7834C24.9736 29.0789 25.1592 29.0154 25.3082 28.8955C25.4574 28.7754 25.5606 28.6063 25.6004 28.4174L25.6004 28.4174M5.39964 28.4174L25.6004 28.4174M25.6004 28.4174L30.0568 7.22842L25.6004 28.4174ZM7.25488 6.22226V4.78376C7.25488 3.7608 7.65371 2.77946 8.36407 2.0557C9.07447 1.33189 10.0383 0.925 11.0436 0.925H19.9564C20.9617 0.925 21.9255 1.33189 22.6359 2.0557C23.3463 2.77946 23.7451 3.7608 23.7451 4.78376V6.22226H29.2398C29.3632 6.21958 29.4856 6.24536 29.5978 6.29763C29.7102 6.35001 29.8094 6.42761 29.888 6.52449C29.9666 6.62137 30.0226 6.73502 30.0518 6.8569C30.0809 6.97875 30.0827 7.10574 30.0568 7.22837L7.25488 6.22226ZM7.25488 6.22226H1.76019C1.63676 6.21958 1.51437 6.24536 1.40219 6.29763C1.28975 6.35001 1.19055 6.42761 1.11197 6.52449C1.03339 6.62137 0.977448 6.73502 0.948249 6.8569C0.919056 6.97875 0.917333 7.10574 0.943207 7.22837L7.25488 6.22226ZM22.9274 7.88576H28.2273L24.1217 27.4113H6.87826L2.77275 7.88576H22.9274ZM8.89035 4.78376C8.89035 4.20109 9.11754 3.64257 9.52151 3.23098C9.92543 2.81944 10.473 2.5885 11.0436 2.5885H19.9564C20.527 2.5885 21.0746 2.81944 21.4785 3.23098C21.8825 3.64257 22.1096 4.20109 22.1096 4.78376V6.22226H8.89035V4.78376Z" fill="#F2B111" stroke="#F2B111" stroke-width="0.15"/>
</svg>
