<svg width="46" height="45" viewBox="0 0 46 45" fill="none" xmlns="http://www.w3.org/2000/svg">
<mask id="path-1-outside-1" maskUnits="userSpaceOnUse" x="0" y="-0.466797" width="46" height="45" fill="black">
<rect fill="white" y="-0.466797" width="46" height="45"/>
<path d="M40.6596 0.539551C40.5554 0.558554 40.4588 0.606865 40.3811 0.678821L37.3693 3.35977C37.275 3.44669 37.2135 3.56352 37.1953 3.69054L36.5337 7.38119L31.9378 11.9597C29.234 9.41274 25.5821 7.90047 21.8755 7.83382C18.1 7.76594 14.3619 9.19907 11.5522 11.7334C8.7423 14.2677 6.94643 17.8433 6.60807 21.6216C6.2697 25.3999 7.39248 29.2956 9.70682 32.2931C12.0212 35.2906 15.4852 37.3407 19.212 37.951C22.939 38.5612 26.8634 37.7223 30.0054 35.6182C33.1475 33.5142 35.4515 30.1867 36.3248 26.496C37.198 22.8053 36.5866 18.828 34.7232 15.5285C34.7026 15.4455 34.6632 15.3683 34.6081 15.303C34.5531 15.2377 34.4838 15.1859 34.4057 15.1518C34.3276 15.1176 34.2427 15.102 34.1576 15.106C34.0725 15.1101 33.9895 15.1337 33.915 15.1751C33.8404 15.2166 33.7763 15.2746 33.7277 15.3449C33.679 15.4152 33.6471 15.4957 33.6343 15.5803C33.6216 15.665 33.6284 15.7514 33.6542 15.833C33.68 15.9145 33.7241 15.989 33.7831 16.0508C35.5034 19.0969 35.9996 22.845 35.1932 26.2523C34.387 29.6596 32.2621 32.7182 29.3613 34.6607C26.4606 36.6031 22.8094 37.435 19.3687 36.8716C15.9281 36.3083 12.6966 34.3641 10.5599 31.5968C8.42316 28.8295 7.37505 25.2315 7.68741 21.7434C7.9999 18.2553 9.68937 14.8913 12.2833 12.5516C14.8773 10.2119 18.3899 8.90273 21.8755 8.96539C25.2843 9.02668 28.6598 10.4081 31.1544 12.7431L28.5605 15.3196C26.7198 13.6463 24.2713 12.6785 21.7885 12.6386C19.268 12.5982 16.7635 13.5029 14.8598 15.1629C12.9561 16.8229 11.6928 19.1785 11.3781 21.6912C11.0632 24.2039 11.6839 26.8163 13.1189 28.8984C14.5539 30.9805 16.7602 32.4883 19.212 33.0765C21.6638 33.6647 24.3071 33.3252 26.5237 32.119C28.7401 30.9129 30.5141 28.8631 31.3633 26.4786C32.2125 24.0941 32.141 21.4249 31.1892 19.0799C31.1341 18.9407 31.0262 18.8293 30.8892 18.7701C30.7523 18.7108 30.5975 18.7087 30.459 18.7641C30.3205 18.8195 30.2096 18.9279 30.1506 19.0655C30.0917 19.2031 30.0896 19.3585 30.1447 19.4977C30.9899 21.5802 31.0382 23.9955 30.284 26.113C29.5298 28.2305 27.9698 30.0557 26.0014 31.1267C24.0331 32.1978 21.6505 32.5196 19.4731 31.9972C17.2957 31.4749 15.3159 30.1033 14.0416 28.2543C12.7672 26.4053 12.1953 24.0793 12.4748 21.8479C12.7544 19.6165 13.883 17.4727 15.5736 15.9985C17.2641 14.5244 19.5154 13.6995 21.7537 13.7354C23.9385 13.7705 26.1283 14.641 27.7597 16.103L25.1658 18.6969C24.1719 17.8669 22.9604 17.4351 21.7363 17.4086C20.5044 17.382 19.2522 17.7787 18.2197 18.575C16.1547 20.1678 15.4827 22.9942 16.5833 25.3644C17.684 27.7347 20.274 29.0121 22.8156 28.4458C25.3572 27.8795 27.1852 25.6123 27.1852 22.9969C27.1852 22.8484 27.1265 22.7061 27.0221 22.6011C26.9176 22.4961 26.7759 22.4372 26.6281 22.4372C26.4804 22.4372 26.3387 22.4961 26.2342 22.6011C26.1298 22.7061 26.0711 22.8484 26.0711 22.9969C26.0711 25.0951 24.6109 26.9122 22.5719 27.3665C20.5329 27.8208 18.476 26.7959 17.593 24.8944C16.71 22.9929 17.2594 20.7406 18.9161 19.4629C20.536 18.2135 22.7701 18.2358 24.365 19.4977L21.3011 22.5616C21.2402 22.6107 21.1903 22.672 21.1547 22.7416C21.1191 22.8112 21.0985 22.8875 21.0943 22.9656C21.0901 23.0437 21.1024 23.1218 21.1304 23.1948C21.1584 23.2678 21.2014 23.3341 21.2567 23.3894C21.312 23.4447 21.3783 23.4877 21.4513 23.5157C21.5243 23.5437 21.6024 23.556 21.6805 23.5518C21.7585 23.5476 21.8349 23.527 21.9045 23.4914C21.9741 23.4558 22.0354 23.4059 22.0845 23.345L32.2512 13.2131H32.2686C32.3557 13.1636 32.4278 13.0915 32.4775 13.0042C32.4776 12.9984 32.4776 12.9926 32.4775 12.9868L37.2997 8.19941L41.0078 7.7816C41.1243 7.76927 41.2339 7.72054 41.3211 7.64232L44.3154 4.96138C44.3886 4.9002 44.4448 4.82127 44.4788 4.73214C44.5127 4.64301 44.5232 4.54666 44.5092 4.45232C44.4952 4.35798 44.4572 4.26881 44.3989 4.19334C44.3406 4.11788 44.2639 4.05864 44.1762 4.0213L42.0175 3.08123L41.2689 0.905135C41.2258 0.782796 41.1413 0.679338 41.0301 0.6126C40.9189 0.545862 40.7878 0.520027 40.6596 0.539551ZM21.9452 1.98448C21.8705 1.98445 21.7967 1.99942 21.7279 2.0285C21.6592 2.05758 21.597 2.10018 21.545 2.15377C21.493 2.20735 21.4524 2.27083 21.4254 2.34044C21.3985 2.41005 21.3858 2.48436 21.3881 2.55897V4.16057C21.3871 4.23439 21.4007 4.30768 21.4282 4.37619C21.4558 4.44469 21.4966 4.50704 21.5485 4.55961C21.6003 4.61218 21.6621 4.65393 21.7302 4.68242C21.7983 4.71092 21.8714 4.72559 21.9452 4.72559C22.019 4.72559 22.0921 4.71092 22.1602 4.68242C22.2283 4.65393 22.2901 4.61218 22.3419 4.55961C22.3937 4.50704 22.4346 4.44469 22.4621 4.37619C22.4897 4.30768 22.5033 4.23439 22.5023 4.16057V2.55897C22.5046 2.48436 22.4919 2.41005 22.4649 2.34044C22.438 2.27083 22.3973 2.20735 22.3454 2.15377C22.2934 2.10018 22.2312 2.05758 22.1625 2.0285C22.0937 1.99942 22.0198 1.98445 21.9452 1.98448ZM40.5029 2.05411L41.06 3.69054C41.084 3.76301 41.1227 3.82976 41.1736 3.88666C41.2245 3.94356 41.2866 3.98939 41.3559 4.0213L42.9401 4.70024L40.7118 6.70225L37.7349 7.01561L38.2572 4.07353L40.5029 2.05411ZM1.5073 22.4398C1.35955 22.4536 1.22336 22.5256 1.12868 22.6399C1.034 22.7541 0.988593 22.9013 1.00244 23.0491C1.0163 23.1968 1.08827 23.333 1.20254 23.4277C1.31681 23.5224 1.464 23.5678 1.61175 23.5539H3.21336C3.28718 23.555 3.36047 23.5413 3.42897 23.5138C3.49747 23.4863 3.55982 23.4454 3.61239 23.3936C3.66497 23.3417 3.70671 23.28 3.7352 23.2119C3.7637 23.1438 3.77837 23.0707 3.77837 22.9969C3.77837 22.923 3.7637 22.8499 3.7352 22.7818C3.70671 22.7137 3.66497 22.652 3.61239 22.6001C3.55982 22.5483 3.49747 22.5074 3.42897 22.4799C3.36047 22.4524 3.28718 22.4387 3.21336 22.4398H1.61175C1.57701 22.4365 1.54204 22.4365 1.5073 22.4398ZM40.59 22.4398C40.4422 22.4536 40.306 22.5256 40.2113 22.6399C40.1167 22.7541 40.0713 22.9013 40.0851 23.0491C40.099 23.1968 40.1709 23.333 40.2852 23.4277C40.3995 23.5224 40.5467 23.5678 40.6944 23.5539H42.296C42.3698 23.555 42.4431 23.5413 42.5116 23.5138C42.5801 23.4863 42.6425 23.4454 42.6951 23.3936C42.7476 23.3417 42.7894 23.28 42.8179 23.2119C42.8464 23.1438 42.861 23.0707 42.861 22.9969C42.861 22.923 42.8464 22.8499 42.8179 22.7818C42.7894 22.7137 42.7476 22.652 42.6951 22.6001C42.6425 22.5483 42.5801 22.5074 42.5116 22.4799C42.4431 22.4524 42.3698 22.4387 42.296 22.4398H40.6944C40.6597 22.4365 40.6247 22.4365 40.59 22.4398ZM21.8407 41.2586C21.7117 41.2833 21.5956 41.3527 21.5128 41.4546C21.4299 41.5565 21.3858 41.6844 21.3881 41.8157V43.4347C21.3871 43.5086 21.4007 43.5819 21.4282 43.6504C21.4558 43.7189 21.4966 43.7812 21.5485 43.8338C21.6003 43.8863 21.6621 43.9281 21.7302 43.9566C21.7983 43.9851 21.8714 43.9998 21.9452 43.9998C22.019 43.9998 22.0921 43.9851 22.1602 43.9566C22.2283 43.9281 22.2901 43.8863 22.3419 43.8338C22.3937 43.7812 22.4346 43.7189 22.4621 43.6504C22.4897 43.5819 22.5033 43.5086 22.5023 43.4347V41.8157C22.5037 41.7329 22.4867 41.6508 22.4524 41.5754C22.4181 41.4999 22.3675 41.4331 22.3041 41.3797C22.2407 41.3264 22.1662 41.2878 22.0861 41.2669C22.0059 41.2459 21.9221 41.2431 21.8407 41.2586Z"/>
</mask>
<path d="M40.6596 0.539551C40.5554 0.558554 40.4588 0.606865 40.3811 0.678821L37.3693 3.35977C37.275 3.44669 37.2135 3.56352 37.1953 3.69054L36.5337 7.38119L31.9378 11.9597C29.234 9.41274 25.5821 7.90047 21.8755 7.83382C18.1 7.76594 14.3619 9.19907 11.5522 11.7334C8.7423 14.2677 6.94643 17.8433 6.60807 21.6216C6.2697 25.3999 7.39248 29.2956 9.70682 32.2931C12.0212 35.2906 15.4852 37.3407 19.212 37.951C22.939 38.5612 26.8634 37.7223 30.0054 35.6182C33.1475 33.5142 35.4515 30.1867 36.3248 26.496C37.198 22.8053 36.5866 18.828 34.7232 15.5285C34.7026 15.4455 34.6632 15.3683 34.6081 15.303C34.5531 15.2377 34.4838 15.1859 34.4057 15.1518C34.3276 15.1176 34.2427 15.102 34.1576 15.106C34.0725 15.1101 33.9895 15.1337 33.915 15.1751C33.8404 15.2166 33.7763 15.2746 33.7277 15.3449C33.679 15.4152 33.6471 15.4957 33.6343 15.5803C33.6216 15.665 33.6284 15.7514 33.6542 15.833C33.68 15.9145 33.7241 15.989 33.7831 16.0508C35.5034 19.0969 35.9996 22.845 35.1932 26.2523C34.387 29.6596 32.2621 32.7182 29.3613 34.6607C26.4606 36.6031 22.8094 37.435 19.3687 36.8716C15.9281 36.3083 12.6966 34.3641 10.5599 31.5968C8.42316 28.8295 7.37505 25.2315 7.68741 21.7434C7.9999 18.2553 9.68937 14.8913 12.2833 12.5516C14.8773 10.2119 18.3899 8.90273 21.8755 8.96539C25.2843 9.02668 28.6598 10.4081 31.1544 12.7431L28.5605 15.3196C26.7198 13.6463 24.2713 12.6785 21.7885 12.6386C19.268 12.5982 16.7635 13.5029 14.8598 15.1629C12.9561 16.8229 11.6928 19.1785 11.3781 21.6912C11.0632 24.2039 11.6839 26.8163 13.1189 28.8984C14.5539 30.9805 16.7602 32.4883 19.212 33.0765C21.6638 33.6647 24.3071 33.3252 26.5237 32.119C28.7401 30.9129 30.5141 28.8631 31.3633 26.4786C32.2125 24.0941 32.141 21.4249 31.1892 19.0799C31.1341 18.9407 31.0262 18.8293 30.8892 18.7701C30.7523 18.7108 30.5975 18.7087 30.459 18.7641C30.3205 18.8195 30.2096 18.9279 30.1506 19.0655C30.0917 19.2031 30.0896 19.3585 30.1447 19.4977C30.9899 21.5802 31.0382 23.9955 30.284 26.113C29.5298 28.2305 27.9698 30.0557 26.0014 31.1267C24.0331 32.1978 21.6505 32.5196 19.4731 31.9972C17.2957 31.4749 15.3159 30.1033 14.0416 28.2543C12.7672 26.4053 12.1953 24.0793 12.4748 21.8479C12.7544 19.6165 13.883 17.4727 15.5736 15.9985C17.2641 14.5244 19.5154 13.6995 21.7537 13.7354C23.9385 13.7705 26.1283 14.641 27.7597 16.103L25.1658 18.6969C24.1719 17.8669 22.9604 17.4351 21.7363 17.4086C20.5044 17.382 19.2522 17.7787 18.2197 18.575C16.1547 20.1678 15.4827 22.9942 16.5833 25.3644C17.684 27.7347 20.274 29.0121 22.8156 28.4458C25.3572 27.8795 27.1852 25.6123 27.1852 22.9969C27.1852 22.8484 27.1265 22.7061 27.0221 22.6011C26.9176 22.4961 26.7759 22.4372 26.6281 22.4372C26.4804 22.4372 26.3387 22.4961 26.2342 22.6011C26.1298 22.7061 26.0711 22.8484 26.0711 22.9969C26.0711 25.0951 24.6109 26.9122 22.5719 27.3665C20.5329 27.8208 18.476 26.7959 17.593 24.8944C16.71 22.9929 17.2594 20.7406 18.9161 19.4629C20.536 18.2135 22.7701 18.2358 24.365 19.4977L21.3011 22.5616C21.2402 22.6107 21.1903 22.672 21.1547 22.7416C21.1191 22.8112 21.0985 22.8875 21.0943 22.9656C21.0901 23.0437 21.1024 23.1218 21.1304 23.1948C21.1584 23.2678 21.2014 23.3341 21.2567 23.3894C21.312 23.4447 21.3783 23.4877 21.4513 23.5157C21.5243 23.5437 21.6024 23.556 21.6805 23.5518C21.7585 23.5476 21.8349 23.527 21.9045 23.4914C21.9741 23.4558 22.0354 23.4059 22.0845 23.345L32.2512 13.2131H32.2686C32.3557 13.1636 32.4278 13.0915 32.4775 13.0042C32.4776 12.9984 32.4776 12.9926 32.4775 12.9868L37.2997 8.19941L41.0078 7.7816C41.1243 7.76927 41.2339 7.72054 41.3211 7.64232L44.3154 4.96138C44.3886 4.9002 44.4448 4.82127 44.4788 4.73214C44.5127 4.64301 44.5232 4.54666 44.5092 4.45232C44.4952 4.35798 44.4572 4.26881 44.3989 4.19334C44.3406 4.11788 44.2639 4.05864 44.1762 4.0213L42.0175 3.08123L41.2689 0.905135C41.2258 0.782796 41.1413 0.679338 41.0301 0.6126C40.9189 0.545862 40.7878 0.520027 40.6596 0.539551ZM21.9452 1.98448C21.8705 1.98445 21.7967 1.99942 21.7279 2.0285C21.6592 2.05758 21.597 2.10018 21.545 2.15377C21.493 2.20735 21.4524 2.27083 21.4254 2.34044C21.3985 2.41005 21.3858 2.48436 21.3881 2.55897V4.16057C21.3871 4.23439 21.4007 4.30768 21.4282 4.37619C21.4558 4.44469 21.4966 4.50704 21.5485 4.55961C21.6003 4.61218 21.6621 4.65393 21.7302 4.68242C21.7983 4.71092 21.8714 4.72559 21.9452 4.72559C22.019 4.72559 22.0921 4.71092 22.1602 4.68242C22.2283 4.65393 22.2901 4.61218 22.3419 4.55961C22.3937 4.50704 22.4346 4.44469 22.4621 4.37619C22.4897 4.30768 22.5033 4.23439 22.5023 4.16057V2.55897C22.5046 2.48436 22.4919 2.41005 22.4649 2.34044C22.438 2.27083 22.3973 2.20735 22.3454 2.15377C22.2934 2.10018 22.2312 2.05758 22.1625 2.0285C22.0937 1.99942 22.0198 1.98445 21.9452 1.98448ZM40.5029 2.05411L41.06 3.69054C41.084 3.76301 41.1227 3.82976 41.1736 3.88666C41.2245 3.94356 41.2866 3.98939 41.3559 4.0213L42.9401 4.70024L40.7118 6.70225L37.7349 7.01561L38.2572 4.07353L40.5029 2.05411ZM1.5073 22.4398C1.35955 22.4536 1.22336 22.5256 1.12868 22.6399C1.034 22.7541 0.988593 22.9013 1.00244 23.0491C1.0163 23.1968 1.08827 23.333 1.20254 23.4277C1.31681 23.5224 1.464 23.5678 1.61175 23.5539H3.21336C3.28718 23.555 3.36047 23.5413 3.42897 23.5138C3.49747 23.4863 3.55982 23.4454 3.61239 23.3936C3.66497 23.3417 3.70671 23.28 3.7352 23.2119C3.7637 23.1438 3.77837 23.0707 3.77837 22.9969C3.77837 22.923 3.7637 22.8499 3.7352 22.7818C3.70671 22.7137 3.66497 22.652 3.61239 22.6001C3.55982 22.5483 3.49747 22.5074 3.42897 22.4799C3.36047 22.4524 3.28718 22.4387 3.21336 22.4398H1.61175C1.57701 22.4365 1.54204 22.4365 1.5073 22.4398ZM40.59 22.4398C40.4422 22.4536 40.306 22.5256 40.2113 22.6399C40.1167 22.7541 40.0713 22.9013 40.0851 23.0491C40.099 23.1968 40.1709 23.333 40.2852 23.4277C40.3995 23.5224 40.5467 23.5678 40.6944 23.5539H42.296C42.3698 23.555 42.4431 23.5413 42.5116 23.5138C42.5801 23.4863 42.6425 23.4454 42.6951 23.3936C42.7476 23.3417 42.7894 23.28 42.8179 23.2119C42.8464 23.1438 42.861 23.0707 42.861 22.9969C42.861 22.923 42.8464 22.8499 42.8179 22.7818C42.7894 22.7137 42.7476 22.652 42.6951 22.6001C42.6425 22.5483 42.5801 22.5074 42.5116 22.4799C42.4431 22.4524 42.3698 22.4387 42.296 22.4398H40.6944C40.6597 22.4365 40.6247 22.4365 40.59 22.4398ZM21.8407 41.2586C21.7117 41.2833 21.5956 41.3527 21.5128 41.4546C21.4299 41.5565 21.3858 41.6844 21.3881 41.8157V43.4347C21.3871 43.5086 21.4007 43.5819 21.4282 43.6504C21.4558 43.7189 21.4966 43.7812 21.5485 43.8338C21.6003 43.8863 21.6621 43.9281 21.7302 43.9566C21.7983 43.9851 21.8714 43.9998 21.9452 43.9998C22.019 43.9998 22.0921 43.9851 22.1602 43.9566C22.2283 43.9281 22.2901 43.8863 22.3419 43.8338C22.3937 43.7812 22.4346 43.7189 22.4621 43.6504C22.4897 43.5819 22.5033 43.5086 22.5023 43.4347V41.8157C22.5037 41.7329 22.4867 41.6508 22.4524 41.5754C22.4181 41.4999 22.3675 41.4331 22.3041 41.3797C22.2407 41.3264 22.1662 41.2878 22.0861 41.2669C22.0059 41.2459 21.9221 41.2431 21.8407 41.2586Z" fill="#F2B111"/>
<path d="M40.6596 0.539551C40.5554 0.558554 40.4588 0.606865 40.3811 0.678821L37.3693 3.35977C37.275 3.44669 37.2135 3.56352 37.1953 3.69054L36.5337 7.38119L31.9378 11.9597C29.234 9.41274 25.5821 7.90047 21.8755 7.83382C18.1 7.76594 14.3619 9.19907 11.5522 11.7334C8.7423 14.2677 6.94643 17.8433 6.60807 21.6216C6.2697 25.3999 7.39248 29.2956 9.70682 32.2931C12.0212 35.2906 15.4852 37.3407 19.212 37.951C22.939 38.5612 26.8634 37.7223 30.0054 35.6182C33.1475 33.5142 35.4515 30.1867 36.3248 26.496C37.198 22.8053 36.5866 18.828 34.7232 15.5285C34.7026 15.4455 34.6632 15.3683 34.6081 15.303C34.5531 15.2377 34.4838 15.1859 34.4057 15.1518C34.3276 15.1176 34.2427 15.102 34.1576 15.106C34.0725 15.1101 33.9895 15.1337 33.915 15.1751C33.8404 15.2166 33.7763 15.2746 33.7277 15.3449C33.679 15.4152 33.6471 15.4957 33.6343 15.5803C33.6216 15.665 33.6284 15.7514 33.6542 15.833C33.68 15.9145 33.7241 15.989 33.7831 16.0508C35.5034 19.0969 35.9996 22.845 35.1932 26.2523C34.387 29.6596 32.2621 32.7182 29.3613 34.6607C26.4606 36.6031 22.8094 37.435 19.3687 36.8716C15.9281 36.3083 12.6966 34.3641 10.5599 31.5968C8.42316 28.8295 7.37505 25.2315 7.68741 21.7434C7.9999 18.2553 9.68937 14.8913 12.2833 12.5516C14.8773 10.2119 18.3899 8.90273 21.8755 8.96539C25.2843 9.02668 28.6598 10.4081 31.1544 12.7431L28.5605 15.3196C26.7198 13.6463 24.2713 12.6785 21.7885 12.6386C19.268 12.5982 16.7635 13.5029 14.8598 15.1629C12.9561 16.8229 11.6928 19.1785 11.3781 21.6912C11.0632 24.2039 11.6839 26.8163 13.1189 28.8984C14.5539 30.9805 16.7602 32.4883 19.212 33.0765C21.6638 33.6647 24.3071 33.3252 26.5237 32.119C28.7401 30.9129 30.5141 28.8631 31.3633 26.4786C32.2125 24.0941 32.141 21.4249 31.1892 19.0799C31.1341 18.9407 31.0262 18.8293 30.8892 18.7701C30.7523 18.7108 30.5975 18.7087 30.459 18.7641C30.3205 18.8195 30.2096 18.9279 30.1506 19.0655C30.0917 19.2031 30.0896 19.3585 30.1447 19.4977C30.9899 21.5802 31.0382 23.9955 30.284 26.113C29.5298 28.2305 27.9698 30.0557 26.0014 31.1267C24.0331 32.1978 21.6505 32.5196 19.4731 31.9972C17.2957 31.4749 15.3159 30.1033 14.0416 28.2543C12.7672 26.4053 12.1953 24.0793 12.4748 21.8479C12.7544 19.6165 13.883 17.4727 15.5736 15.9985C17.2641 14.5244 19.5154 13.6995 21.7537 13.7354C23.9385 13.7705 26.1283 14.641 27.7597 16.103L25.1658 18.6969C24.1719 17.8669 22.9604 17.4351 21.7363 17.4086C20.5044 17.382 19.2522 17.7787 18.2197 18.575C16.1547 20.1678 15.4827 22.9942 16.5833 25.3644C17.684 27.7347 20.274 29.0121 22.8156 28.4458C25.3572 27.8795 27.1852 25.6123 27.1852 22.9969C27.1852 22.8484 27.1265 22.7061 27.0221 22.6011C26.9176 22.4961 26.7759 22.4372 26.6281 22.4372C26.4804 22.4372 26.3387 22.4961 26.2342 22.6011C26.1298 22.7061 26.0711 22.8484 26.0711 22.9969C26.0711 25.0951 24.6109 26.9122 22.5719 27.3665C20.5329 27.8208 18.476 26.7959 17.593 24.8944C16.71 22.9929 17.2594 20.7406 18.9161 19.4629C20.536 18.2135 22.7701 18.2358 24.365 19.4977L21.3011 22.5616C21.2402 22.6107 21.1903 22.672 21.1547 22.7416C21.1191 22.8112 21.0985 22.8875 21.0943 22.9656C21.0901 23.0437 21.1024 23.1218 21.1304 23.1948C21.1584 23.2678 21.2014 23.3341 21.2567 23.3894C21.312 23.4447 21.3783 23.4877 21.4513 23.5157C21.5243 23.5437 21.6024 23.556 21.6805 23.5518C21.7585 23.5476 21.8349 23.527 21.9045 23.4914C21.9741 23.4558 22.0354 23.4059 22.0845 23.345L32.2512 13.2131H32.2686C32.3557 13.1636 32.4278 13.0915 32.4775 13.0042C32.4776 12.9984 32.4776 12.9926 32.4775 12.9868L37.2997 8.19941L41.0078 7.7816C41.1243 7.76927 41.2339 7.72054 41.3211 7.64232L44.3154 4.96138C44.3886 4.9002 44.4448 4.82127 44.4788 4.73214C44.5127 4.64301 44.5232 4.54666 44.5092 4.45232C44.4952 4.35798 44.4572 4.26881 44.3989 4.19334C44.3406 4.11788 44.2639 4.05864 44.1762 4.0213L42.0175 3.08123L41.2689 0.905135C41.2258 0.782796 41.1413 0.679338 41.0301 0.6126C40.9189 0.545862 40.7878 0.520027 40.6596 0.539551ZM21.9452 1.98448C21.8705 1.98445 21.7967 1.99942 21.7279 2.0285C21.6592 2.05758 21.597 2.10018 21.545 2.15377C21.493 2.20735 21.4524 2.27083 21.4254 2.34044C21.3985 2.41005 21.3858 2.48436 21.3881 2.55897V4.16057C21.3871 4.23439 21.4007 4.30768 21.4282 4.37619C21.4558 4.44469 21.4966 4.50704 21.5485 4.55961C21.6003 4.61218 21.6621 4.65393 21.7302 4.68242C21.7983 4.71092 21.8714 4.72559 21.9452 4.72559C22.019 4.72559 22.0921 4.71092 22.1602 4.68242C22.2283 4.65393 22.2901 4.61218 22.3419 4.55961C22.3937 4.50704 22.4346 4.44469 22.4621 4.37619C22.4897 4.30768 22.5033 4.23439 22.5023 4.16057V2.55897C22.5046 2.48436 22.4919 2.41005 22.4649 2.34044C22.438 2.27083 22.3973 2.20735 22.3454 2.15377C22.2934 2.10018 22.2312 2.05758 22.1625 2.0285C22.0937 1.99942 22.0198 1.98445 21.9452 1.98448ZM40.5029 2.05411L41.06 3.69054C41.084 3.76301 41.1227 3.82976 41.1736 3.88666C41.2245 3.94356 41.2866 3.98939 41.3559 4.0213L42.9401 4.70024L40.7118 6.70225L37.7349 7.01561L38.2572 4.07353L40.5029 2.05411ZM1.5073 22.4398C1.35955 22.4536 1.22336 22.5256 1.12868 22.6399C1.034 22.7541 0.988593 22.9013 1.00244 23.0491C1.0163 23.1968 1.08827 23.333 1.20254 23.4277C1.31681 23.5224 1.464 23.5678 1.61175 23.5539H3.21336C3.28718 23.555 3.36047 23.5413 3.42897 23.5138C3.49747 23.4863 3.55982 23.4454 3.61239 23.3936C3.66497 23.3417 3.70671 23.28 3.7352 23.2119C3.7637 23.1438 3.77837 23.0707 3.77837 22.9969C3.77837 22.923 3.7637 22.8499 3.7352 22.7818C3.70671 22.7137 3.66497 22.652 3.61239 22.6001C3.55982 22.5483 3.49747 22.5074 3.42897 22.4799C3.36047 22.4524 3.28718 22.4387 3.21336 22.4398H1.61175C1.57701 22.4365 1.54204 22.4365 1.5073 22.4398ZM40.59 22.4398C40.4422 22.4536 40.306 22.5256 40.2113 22.6399C40.1167 22.7541 40.0713 22.9013 40.0851 23.0491C40.099 23.1968 40.1709 23.333 40.2852 23.4277C40.3995 23.5224 40.5467 23.5678 40.6944 23.5539H42.296C42.3698 23.555 42.4431 23.5413 42.5116 23.5138C42.5801 23.4863 42.6425 23.4454 42.6951 23.3936C42.7476 23.3417 42.7894 23.28 42.8179 23.2119C42.8464 23.1438 42.861 23.0707 42.861 22.9969C42.861 22.923 42.8464 22.8499 42.8179 22.7818C42.7894 22.7137 42.7476 22.652 42.6951 22.6001C42.6425 22.5483 42.5801 22.5074 42.5116 22.4799C42.4431 22.4524 42.3698 22.4387 42.296 22.4398H40.6944C40.6597 22.4365 40.6247 22.4365 40.59 22.4398ZM21.8407 41.2586C21.7117 41.2833 21.5956 41.3527 21.5128 41.4546C21.4299 41.5565 21.3858 41.6844 21.3881 41.8157V43.4347C21.3871 43.5086 21.4007 43.5819 21.4282 43.6504C21.4558 43.7189 21.4966 43.7812 21.5485 43.8338C21.6003 43.8863 21.6621 43.9281 21.7302 43.9566C21.7983 43.9851 21.8714 43.9998 21.9452 43.9998C22.019 43.9998 22.0921 43.9851 22.1602 43.9566C22.2283 43.9281 22.2901 43.8863 22.3419 43.8338C22.3937 43.7812 22.4346 43.7189 22.4621 43.6504C22.4897 43.5819 22.5033 43.5086 22.5023 43.4347V41.8157C22.5037 41.7329 22.4867 41.6508 22.4524 41.5754C22.4181 41.4999 22.3675 41.4331 22.3041 41.3797C22.2407 41.3264 22.1662 41.2878 22.0861 41.2669C22.0059 41.2459 21.9221 41.2431 21.8407 41.2586Z" stroke="#F2B111" mask="url(#path-1-outside-1)"/>
</svg>
