<svg width="57" height="57" viewBox="0 0 57 57" fill="none" xmlns="http://www.w3.org/2000/svg">
<path d="M28.2491 1.73128e-05C23.8354 -0.00487155 19.482 1.02571 15.5389 3.00894C11.5957 4.99216 8.17281 7.87273 5.54519 11.4191C2.91756 14.9656 1.15851 19.0789 0.409391 23.4287C-0.339728 27.7784 -0.0580216 32.2432 1.23187 36.4643C2.52176 40.6854 4.78387 44.5451 7.8364 47.7331C10.8889 50.9211 14.6468 53.3486 18.8079 54.8205C22.969 56.2924 27.4174 56.7677 31.7956 56.2081C36.1737 55.6484 40.3596 54.0696 44.0167 51.5984C45.0442 52.519 46.3856 53.0107 47.7648 52.9723C49.1439 52.9338 50.4558 52.3681 51.4304 51.3916C52.4051 50.4151 52.9683 49.1022 53.0041 47.723C53.04 46.3438 52.5457 45.0033 51.6231 43.9775C54.8735 39.1821 56.5638 33.4998 56.4628 27.7075C56.3617 21.9151 54.4744 16.2952 51.0587 11.6161C48.4368 8.02384 45.0052 5.10008 41.0423 3.08188C37.0793 1.06369 32.6964 0.00785728 28.2491 1.73128e-05ZM33.4868 2.24833C33.7738 2.30664 34.0612 2.36234 34.3455 2.43009C34.5638 2.48199 34.7792 2.54372 34.9958 2.6011C35.2707 2.67396 35.5462 2.74494 35.8183 2.82642C36.036 2.89163 36.2506 2.96567 36.4663 3.03636C36.7333 3.1239 37.0008 3.2102 37.2647 3.30608C37.4798 3.38423 37.6917 3.47026 37.9046 3.55389C38.1635 3.65555 38.4226 3.75667 38.678 3.86628C38.89 3.95729 39.0988 4.05528 39.3084 4.15173C39.5593 4.26725 39.8101 4.38297 40.0573 4.5062C40.2645 4.60954 40.4686 4.71886 40.6732 4.82763C40.9159 4.95664 41.1582 5.08656 41.3969 5.22302C41.5994 5.33881 41.7988 5.45975 41.9982 5.58083C42.2323 5.72299 42.4655 5.86676 42.6953 6.01609C42.8912 6.14343 43.0842 6.27516 43.2768 6.40766C43.5022 6.56284 43.7262 6.72017 43.947 6.88231C44.1362 7.0214 44.3234 7.16331 44.5086 7.30804C44.7249 7.47596 44.9389 7.6471 45.1504 7.82146C45.3315 7.97119 45.5105 8.1235 45.6875 8.27837C45.8944 8.45895 46.0985 8.64287 46.3 8.83013C46.473 8.99095 46.6441 9.15404 46.8133 9.3194C47.0094 9.51174 47.2025 9.70751 47.3924 9.90672C47.5568 10.0783 47.7199 10.2512 47.8799 10.4274C48.0649 10.6313 48.2455 10.8395 48.4245 11.0495C48.5798 11.2319 48.7344 11.4148 48.8849 11.6017C48.9499 11.6823 49.0114 11.7661 49.0754 11.8475C45.9261 13.3712 42.5739 14.434 39.122 15.0032C37.8177 9.2178 35.6723 4.66512 33.0319 2.15567C33.1843 2.18401 33.3352 2.21754 33.4868 2.24833ZM38.2848 36.1962C37.3708 37.3618 36.2531 38.352 34.9859 39.119C33.9495 39.7606 32.8262 40.25 31.6507 40.5722C29.4238 41.1806 27.0745 41.1806 24.8476 40.5722C22.7089 39.979 20.7576 38.8482 19.1794 37.2876C18.8371 36.9423 18.5146 36.578 18.2135 36.1962C17.2967 35.0412 16.588 33.7354 16.1191 32.3373C15.2156 29.6653 15.2156 26.7704 16.1191 24.0984C16.588 22.7003 17.2967 21.3945 18.2135 20.2395C19.1275 19.0739 20.2453 18.0836 21.5127 17.3167C22.5493 16.6751 23.6727 16.1857 24.8484 15.8635C27.073 15.2424 29.4253 15.2424 31.6499 15.8635C33.7889 16.4568 35.7404 17.5875 37.3189 19.1482C37.6612 19.4934 37.9837 19.8577 38.2848 20.2395C39.2016 21.3945 39.9103 22.7003 40.3792 24.0984C41.2827 26.7704 41.2827 29.6653 40.3792 32.3373C39.9103 33.7355 39.2016 35.0413 38.2848 36.1963V36.1962ZM41.5514 39.5043L40.9933 40.062L40.5433 40.512L39.5461 41.5095L39.5356 41.5201L39.5203 41.5048L39.1807 41.1651L37.7147 39.6988L37.5204 39.5044L37.5761 39.4487L37.8051 39.2197L38.528 38.4968L39.5356 37.4891L39.8097 37.7631L41.5514 39.5043ZM19.0096 39.4358C18.9199 39.4493 18.8294 39.4615 18.7401 39.4754C18.7185 39.3633 18.6989 39.2489 18.6779 39.1361C18.7896 39.2341 18.8956 39.3418 19.0096 39.4358ZM18.6779 17.2997C18.6988 17.1869 18.7184 17.0724 18.74 16.9604C18.8294 16.9741 18.92 16.9865 19.0097 16.9999C18.8957 17.0939 18.7896 17.2017 18.6779 17.2997ZM37.4887 17C37.5783 16.9865 37.6689 16.9743 37.7582 16.9604C37.7798 17.0725 37.7994 17.1869 37.8204 17.2997C37.7087 17.2017 37.6027 17.094 37.4887 17V17ZM28.2491 1.71019C32.1121 1.71019 35.5673 7.25651 37.4037 15.2844C36.7335 15.3866 36.057 15.4804 35.3683 15.5592C33.1931 14.3416 30.742 13.7023 28.2492 13.7023C25.7564 13.7023 23.3052 14.3416 21.13 15.5592C20.4414 15.4804 19.7649 15.3866 19.0946 15.2844C20.9309 7.25643 24.3862 1.71019 28.2491 1.71019ZM7.61334 11.6018C7.76393 11.4149 7.91848 11.232 8.0738 11.0497C8.2528 10.8397 8.43343 10.6314 8.61839 10.4276C8.77837 10.2513 8.94149 10.0785 9.10584 9.90685C9.2963 9.70811 9.48937 9.51233 9.68503 9.31952C9.85398 9.1539 10.0251 8.99081 10.1983 8.83026C10.3997 8.643 10.6039 8.45907 10.8108 8.2785C10.988 8.12381 11.1671 7.9715 11.3479 7.82158C11.5592 7.64685 11.7731 7.47571 11.9897 7.30817C12.1753 7.16398 12.3626 7.02207 12.5513 6.88243C12.772 6.7203 12.9961 6.56296 13.2215 6.40778C13.4141 6.27529 13.6071 6.14356 13.803 6.01622C14.0328 5.86686 14.2659 5.72312 14.5001 5.58096C14.6995 5.45988 14.8989 5.33893 15.1014 5.22314C15.3401 5.08668 15.5824 4.95677 15.8251 4.82775C16.0297 4.71898 16.2337 4.60967 16.441 4.50633C16.6882 4.38309 16.939 4.26737 17.1899 4.15185C17.3995 4.05541 17.6083 3.95743 17.8203 3.8664C18.0757 3.75674 18.3348 3.65562 18.5936 3.55401C18.8066 3.47037 19.0185 3.38436 19.2336 3.30621C19.4975 3.21031 19.7649 3.12403 20.0319 3.03649C20.2477 2.9658 20.4623 2.8917 20.68 2.82655C20.9521 2.74507 21.2276 2.67408 21.5024 2.60123C21.7191 2.54382 21.9346 2.4821 22.1528 2.43021C22.4371 2.3625 22.7245 2.30676 23.0114 2.24845C23.1631 2.21767 23.314 2.18408 23.4663 2.1559C20.826 4.6653 18.6806 9.21809 17.3763 15.0035C13.9243 14.4343 10.5722 13.3715 7.42288 11.8477C7.4869 11.7662 7.54841 11.6825 7.61334 11.6018ZM6.41031 13.2376C9.75939 14.9057 13.3386 16.0648 17.0298 16.6766C16.8489 17.6291 16.6899 18.6087 16.5527 19.6154C14.8912 21.8729 13.9212 24.5644 13.7606 27.3628H1.77477C1.92838 22.3064 3.53796 17.4018 6.41031 13.2376V13.2376ZM1.77477 29.073H13.7606C13.9212 31.8714 14.8912 34.5629 16.5527 36.8204C16.6882 37.8278 16.8473 38.8074 17.0298 39.7592C13.3387 40.371 9.75945 41.5301 6.41035 43.1982C3.53798 39.034 1.92839 34.1294 1.77477 29.073ZM23.0114 54.1875C22.7245 54.1292 22.4371 54.0735 22.1528 54.0057C21.9345 53.9538 21.7191 53.8921 21.5025 53.8347C21.2276 53.7619 20.9521 53.6909 20.68 53.6094C20.4623 53.5442 20.2477 53.4701 20.0319 53.3994C19.7649 53.3119 19.4975 53.2256 19.2336 53.1297C19.0185 53.0516 18.8066 52.9655 18.5936 52.8819C18.3348 52.7803 18.0757 52.6791 17.8203 52.5695C17.6083 52.4785 17.3995 52.3805 17.1899 52.2841C16.939 52.1686 16.6882 52.0528 16.441 51.9296C16.2337 51.8263 16.0297 51.717 15.8251 51.6082C15.5824 51.4792 15.3401 51.3493 15.1014 51.2128C14.8989 51.097 14.6995 50.9761 14.5001 50.855C14.266 50.7128 14.0328 50.569 13.803 50.4197C13.6071 50.2924 13.4141 50.1606 13.2215 50.0282C12.9961 49.873 12.7721 49.7156 12.5513 49.5535C12.3621 49.4144 12.1749 49.2725 11.9897 49.1278C11.7734 48.9599 11.5594 48.7887 11.3479 48.6144C11.1668 48.4646 10.9878 48.3123 10.8108 48.1574C10.6039 47.9769 10.3998 47.7929 10.1983 47.6057C10.0253 47.4449 9.85423 47.2818 9.68504 47.1164C9.48887 46.9241 9.29581 46.7283 9.10586 46.5291C8.94149 46.3575 8.77838 46.1846 8.6184 46.0084C8.43344 45.8045 8.25279 45.5963 8.07381 45.3863C7.91849 45.2039 7.76394 45.021 7.61335 44.8341C7.54842 44.7535 7.48691 44.6697 7.4229 44.5883C10.5722 43.0646 13.9243 42.0018 17.3763 41.4326C18.6806 47.218 20.826 51.7707 23.4664 54.2801C23.314 54.2518 23.1631 54.2183 23.0114 54.1875ZM28.2491 54.7256C24.3862 54.7256 20.9309 49.1793 19.0946 41.1514C19.7648 41.0492 20.4412 40.9554 21.13 40.8766C23.3023 42.1028 25.7546 42.7471 28.2491 42.7471C30.7436 42.7471 33.1958 42.1028 35.3682 40.8766C35.7952 40.9255 36.2164 40.9811 36.6366 41.039L37.2805 41.6829C35.4151 49.4239 32.0265 54.7256 28.2491 54.7256ZM42.6953 50.4196C42.4655 50.5689 42.2323 50.7127 41.9982 50.8548C41.7988 50.9759 41.5994 51.0968 41.3969 51.2126C41.1582 51.3491 40.9159 51.479 40.6732 51.608C40.4686 51.7168 40.2646 51.8261 40.0573 51.9294C39.8101 52.0527 39.5593 52.1684 39.3084 52.2839C39.0988 52.3804 38.89 52.4783 38.678 52.5694C38.4226 52.679 38.1635 52.7802 37.9047 52.8818C37.6917 52.9654 37.4798 53.0514 37.2647 53.1296C37.0008 53.2255 36.7334 53.3117 36.4664 53.3993C36.2506 53.47 36.036 53.5441 35.8183 53.6092C35.5462 53.6907 35.2707 53.7617 34.9958 53.8345C34.7792 53.892 34.5637 53.9537 34.3455 54.0056C34.0612 54.0733 33.7738 54.129 33.4869 54.1873C33.3352 54.2181 33.1843 54.2517 33.0319 54.2799C35.4437 51.685 37.1911 48.5445 38.1244 45.127C38.2598 45.6679 38.5385 46.1623 38.9311 46.5582L42.7533 50.3804C42.7338 50.3933 42.7149 50.4069 42.6953 50.4196ZM50.2176 50.1863C49.5124 50.8616 48.5738 51.2386 47.5975 51.2386C46.6211 51.2386 45.6825 50.8616 44.9774 50.1863L44.1796 49.3885L44.173 49.3819L40.1402 45.3492C39.8734 45.0817 39.7235 44.7193 39.7235 44.3415C39.7235 43.9637 39.8734 43.6014 40.1402 43.3339L41.5404 41.9332L41.7524 41.7212L42.9477 40.5263L43.3652 40.109C43.6326 39.8421 43.995 39.6923 44.3728 39.6923C44.7506 39.6923 45.113 39.8421 45.3804 40.109L47.1294 41.8579L49.4178 44.1463L50.2176 44.9461C50.8933 45.651 51.2705 46.5897 51.2705 47.5662C51.2705 48.5427 50.8933 49.4814 50.2176 50.1863H50.2176ZM50.409 42.7192L46.5896 38.8999C46.0998 38.4351 45.4762 38.1364 44.8071 38.0461C44.138 37.9557 43.4574 38.0784 42.862 38.3967L40.4974 36.0326C41.8268 33.9423 42.5981 31.5462 42.7377 29.073H54.7235C54.5761 33.9334 53.0825 38.6575 50.409 42.7193L50.409 42.7192ZM42.7377 27.3628C42.5771 24.5644 41.607 21.8729 39.9455 19.6153C39.8101 18.608 39.651 17.6284 39.4685 16.6766C43.1596 16.0648 46.7388 14.9057 50.0879 13.2376C52.9603 17.4018 54.5699 22.3064 54.7235 27.3628H42.7377Z" fill="white"/>
</svg>
