<svg width="60" height="61" viewBox="0 0 60 61" fill="none" xmlns="http://www.w3.org/2000/svg">
<path d="M3 25.002C3.352 25.002 3.686 24.93 4 24.818V36.002C4 37.932 5.57 39.502 7.5 39.502C8.48 39.502 9.364 39.095 10 38.444C10.636 39.095 11.52 39.502 12.5 39.502C14.43 39.502 16 37.932 16 36.002V24.818C16.314 24.93 16.648 25.002 17 25.002C18.654 25.002 20 23.656 20 22.002V16.002C20 12.21 17.346 9.03297 13.8 8.21397C14.538 7.34197 15 6.22997 15 5.00197C15 2.24497 12.757 0.00196838 10 0.00196838C7.243 0.00196838 5 2.24497 5 5.00197C5 6.22997 5.462 7.34197 6.2 8.21397C2.654 9.03297 0 12.21 0 16.002V22.002C0 23.656 1.346 25.002 3 25.002ZM10 2.00197C11.654 2.00197 13 3.34797 13 5.00197C13 6.65597 11.654 8.00197 10 8.00197C8.346 8.00197 7 6.65597 7 5.00197C7 3.34797 8.346 2.00197 10 2.00197ZM2 16.002C2 12.693 4.691 10.002 8 10.002H12C15.309 10.002 18 12.693 18 16.002V22.002C18 22.553 17.551 23.002 17 23.002C16.449 23.002 16 22.553 16 22.002V21.002V15.002H14V21.002V22.002V36.002C14 36.829 13.327 37.502 12.5 37.502C11.673 37.502 11 36.829 11 36.002V23.002H9V36.002C9 36.829 8.327 37.502 7.5 37.502C6.673 37.502 6 36.829 6 36.002V22.002V21.002V15.002H4V21.002V22.002C4 22.553 3.551 23.002 3 23.002C2.449 23.002 2 22.553 2 22.002V16.002Z" fill="white"/>
<path d="M18 31.002V39.502C18 41.432 19.57 43.002 21.5 43.002C22.039 43.002 22.544 42.869 23 42.651V56.002C23 58.208 24.794 60.002 27 60.002C28.2 60.002 29.266 59.46 30 58.62C30.734 59.46 31.8 60.002 33 60.002C35.206 60.002 37 58.208 37 56.002V42.651C37.456 42.869 37.961 43.002 38.5 43.002C40.43 43.002 42 41.432 42 39.502V31.002C42 26.502 38.676 22.773 34.356 22.116C35.372 21.04 36 19.595 36 18.002C36 14.693 33.309 12.002 30 12.002C26.691 12.002 24 14.693 24 18.002C24 19.595 24.628 21.04 25.644 22.116C21.324 22.773 18 26.502 18 31.002ZM30 14.002C32.206 14.002 34 15.796 34 18.002C34 20.208 32.206 22.002 30 22.002C27.794 22.002 26 20.208 26 18.002C26 15.796 27.794 14.002 30 14.002ZM27 24.002H33C36.86 24.002 40 27.142 40 31.002V39.502C40 40.329 39.327 41.002 38.5 41.002C37.673 41.002 37 40.329 37 39.502V39.002V30.002H35V39.002V39.502V56.002C35 57.105 34.103 58.002 33 58.002C31.897 58.002 31 57.105 31 56.002V41.002H29V56.002C29 57.105 28.103 58.002 27 58.002C25.897 58.002 25 57.105 25 56.002V39.502V39.002V30.002H23V39.002V39.502C23 40.329 22.327 41.002 21.5 41.002C20.673 41.002 20 40.329 20 39.502V31.002C20 27.142 23.14 24.002 27 24.002Z" fill="white"/>
<path d="M53.8 8.21397C54.538 7.34197 55 6.22997 55 5.00197C55 2.24497 52.757 0.00196838 50 0.00196838C47.243 0.00196838 45 2.24497 45 5.00197C45 6.22997 45.462 7.34197 46.2 8.21397C42.654 9.03297 40 12.21 40 16.002V22.002C40 23.656 41.346 25.002 43 25.002C43.352 25.002 43.686 24.93 44 24.818V36.002C44 37.932 45.57 39.502 47.5 39.502C48.48 39.502 49.364 39.095 50 38.444C50.636 39.095 51.52 39.502 52.5 39.502C54.43 39.502 56 37.932 56 36.002V24.818C56.314 24.93 56.648 25.002 57 25.002C58.654 25.002 60 23.656 60 22.002V16.002C60 12.21 57.346 9.03297 53.8 8.21397ZM50 2.00197C51.654 2.00197 53 3.34797 53 5.00197C53 6.65597 51.654 8.00197 50 8.00197C48.346 8.00197 47 6.65597 47 5.00197C47 3.34797 48.346 2.00197 50 2.00197ZM58 22.002C58 22.553 57.551 23.002 57 23.002C56.449 23.002 56 22.553 56 22.002V21.002V15.002H54V21.002V22.002V36.002C54 36.829 53.327 37.502 52.5 37.502C51.673 37.502 51 36.829 51 36.002V23.002H49V36.002C49 36.829 48.327 37.502 47.5 37.502C46.673 37.502 46 36.829 46 36.002V22.002V21.002V15.002H44V21.002V22.002C44 22.553 43.551 23.002 43 23.002C42.449 23.002 42 22.553 42 22.002V16.002C42 12.693 44.691 10.002 48 10.002H52C55.309 10.002 58 12.693 58 16.002V22.002Z" fill="white"/>
<path d="M28.9541 3.42597L29.0001 10.009L31.0001 9.99497L30.9541 3.40597L33.2981 5.71397L34.7011 4.28897L30.6391 0.288972C30.4501 0.102972 30.1511 -0.0170282 29.9301 0.0019718C29.6651 0.0039718 29.4111 0.110972 29.2251 0.299972L25.2871 4.29997L26.7131 5.70297L28.9541 3.42597Z" fill="white"/>
<path d="M41.2922 49.2949L39.2925 51.2946L40.7067 52.7088L42.7064 50.7091L41.2922 49.2949Z" fill="white"/>
<path d="M45.2922 45.295L43.2925 47.2947L44.7067 48.7089L46.7064 46.7092L45.2922 45.295Z" fill="white"/>
<path d="M49.2922 41.295L47.2925 43.2947L48.7067 44.7089L50.7064 42.7092L49.2922 41.295Z" fill="white"/>
<path d="M18.7067 49.2948L17.2925 50.709L19.2922 52.7087L20.7064 51.2945L18.7067 49.2948Z" fill="white"/>
<path d="M14.7069 45.2948L13.2927 46.709L15.2924 48.7087L16.7066 47.2945L14.7069 45.2948Z" fill="white"/>
<path d="M10.7069 41.2948L9.29272 42.709L11.2924 44.7087L12.7066 43.2945L10.7069 41.2948Z" fill="white"/>
</svg>
