<svg width="72" height="72" viewBox="0 0 72 72" fill="none" xmlns="http://www.w3.org/2000/svg">
<path d="M14.275 20.5094H14.2752C15.7469 20.5094 17.1855 20.073 18.4092 19.2554C19.6329 18.4377 20.5866 17.2756 21.1498 15.916C21.713 14.5563 21.8603 13.0602 21.5732 11.6167C21.2861 10.1733 20.5774 8.84746 19.5368 7.80682C18.4961 6.76617 17.1703 6.05749 15.7269 5.77037C14.2834 5.48326 12.7873 5.63062 11.4276 6.19381C10.068 6.757 8.90584 7.71073 8.08822 8.9344C7.27059 10.1581 6.83418 11.5967 6.83418 13.0684L6.83418 13.0686C6.83615 15.0414 7.62072 16.9329 9.01572 18.3279C10.4107 19.7229 12.3022 20.5074 14.275 20.5094ZM14.2752 8.44107C15.1904 8.44107 16.085 8.71245 16.846 9.22091C17.607 9.72937 18.2001 10.4521 18.5503 11.2976C18.9005 12.1431 18.9922 13.0735 18.8136 13.9712C18.6351 14.8688 18.1944 15.6933 17.5472 16.3404C16.9001 16.9876 16.0756 17.4283 15.1779 17.6068C14.2803 17.7854 13.3499 17.6937 12.5044 17.3435C11.6588 16.9933 10.9362 16.4002 10.4277 15.6392C9.91924 14.8783 9.64785 13.9836 9.64785 13.0684C9.64785 11.8412 10.1354 10.6642 11.0032 9.79638C11.871 8.92859 13.0479 8.44107 14.2752 8.44107Z" fill="white" stroke="white" stroke-width="0.4"/>
<mask id="path-2-outside-1" maskUnits="userSpaceOnUse" x="0" y="0" width="72" height="72" fill="black">
<rect fill="white" width="72" height="72"/>
<path d="M68.6334 9.44784H55.3076V7.03417C55.3076 6.07396 54.9261 5.15307 54.2471 4.47409C53.5682 3.79511 52.6473 3.41367 51.6871 3.41367H32.3777V2.20683C32.3777 1.88676 32.2506 1.5798 32.0242 1.35347C31.7979 1.12715 31.4909 1 31.1709 1C30.8508 1 30.5438 1.12715 30.3175 1.35347C30.0912 1.5798 29.964 1.88676 29.964 2.20683V22.723H9.44784C7.20812 22.7256 5.06086 23.6164 3.47714 25.2002C1.89341 26.7839 1.00256 28.9311 1 31.1709V42.0324C1 43.3127 1.50859 44.5405 2.41389 45.4458C3.3192 46.3511 4.54705 46.8597 5.82734 46.8597V48.7846C5.83458 50.9871 5.84303 53.7652 5.84303 65.9748C5.83002 67.2343 6.29481 68.4519 7.14376 69.3823C7.99271 70.3128 9.16274 70.887 10.4181 70.9892C11.0722 71.0208 11.7259 70.9195 12.3397 70.6913C12.9535 70.4631 13.5146 70.1129 13.9892 69.6617C14.0917 69.5651 14.1883 69.4637 14.28 69.3599C14.7313 69.8746 15.2873 70.2868 15.9109 70.5691C16.5345 70.8513 17.2112 70.997 17.8957 70.9964C18.5159 71.0208 19.1347 70.9207 19.7156 70.7019C20.2964 70.4831 20.8276 70.1501 21.2776 69.7226C21.7276 69.2951 22.0873 68.7817 22.3356 68.2128C22.5839 67.644 22.7156 67.0311 22.723 66.4104V33.5676C22.7275 33.2505 22.8566 32.9479 23.0824 32.7252C23.3083 32.5025 23.6127 32.3777 23.9299 32.3777H29.964V56.7365C29.1588 57.0211 28.4802 57.5813 28.048 58.318C27.6159 59.0546 27.4581 59.9204 27.6025 60.7621C27.7469 61.6039 28.1843 62.3675 28.8373 62.918C29.4902 63.4685 30.3168 63.7704 31.1709 63.7704C32.0249 63.7704 32.8515 63.4685 33.5045 62.918C34.1575 62.3675 34.5948 61.6039 34.7392 60.7621C34.8837 59.9204 34.7258 59.0546 34.2937 58.318C33.8616 57.5813 33.1829 57.0211 32.3777 56.7365V32.3777H34.7914C36.0549 32.4043 37.2805 31.9451 38.2155 31.0948C39.1505 30.2445 39.7236 29.0678 39.8166 27.8074C39.8538 27.1522 39.7559 26.4964 39.529 25.8806C39.3021 25.2649 38.951 24.7023 38.4976 24.2279C38.046 23.7534 37.503 23.3754 36.9012 23.1168C36.2995 22.8581 35.6515 22.7242 34.9965 22.723H32.3777V20.3094H52.8939V22.723C52.8939 23.6832 53.2753 24.6041 53.9543 25.2831C54.6333 25.9621 55.5542 26.3435 56.5144 26.3435H68.6334C69.2599 26.3429 69.8606 26.0937 70.3036 25.6507C70.7466 25.2077 70.9958 24.6071 70.9964 23.9805V11.8108C70.9958 11.1843 70.7466 10.5837 70.3036 10.1406C69.8606 9.69764 69.2599 9.44848 68.6334 9.44784ZM31.1709 61.3417C30.9322 61.3417 30.6988 61.271 30.5004 61.1383C30.3019 61.0057 30.1472 60.8173 30.0559 60.5967C29.9646 60.3762 29.9407 60.1336 29.9872 59.8995C30.0338 59.6654 30.1487 59.4503 30.3175 59.2815C30.4863 59.1128 30.7013 58.9978 30.9354 58.9513C31.1695 58.9047 31.4122 58.9286 31.6327 59.0199C31.8532 59.1113 32.0417 59.266 32.1743 59.4644C32.3069 59.6629 32.3777 59.8962 32.3777 60.1349C32.3777 60.455 32.2506 60.7619 32.0242 60.9883C31.7979 61.2146 31.4909 61.3417 31.1709 61.3417ZM16.1542 25.1367L14.2752 30.1475L12.3961 25.1367H16.1542ZM36.7476 25.8898C36.9743 26.1272 37.1498 26.4087 37.2631 26.7168C37.3765 27.0249 37.4253 27.353 37.4066 27.6807C37.3379 28.3205 37.0305 28.9109 36.5458 29.3341C36.0611 29.7574 35.4346 29.9823 34.7914 29.964H23.9299C22.9715 29.964 22.0523 30.344 21.3736 31.0206C20.6949 31.6972 20.3122 32.6153 20.3094 33.5737V66.4165C20.3094 68.5236 17.9222 68.5888 17.8957 68.5888C17.2572 68.5862 16.6458 68.3308 16.1952 67.8784C15.7446 67.426 15.4917 66.8136 15.4917 66.1751L15.482 52.8939C15.482 52.5738 15.3549 52.2669 15.1285 52.0405C14.9022 51.8142 14.5953 51.6871 14.2752 51.6871C13.9551 51.6871 13.6481 51.8142 13.4218 52.0405C13.1955 52.2669 13.0683 52.5738 13.0683 52.8939L13.078 66.1691C13.0784 66.4965 13.0122 66.8205 12.8834 67.1215C12.7547 67.4225 12.566 67.6941 12.3289 67.9199C12.0919 68.1457 11.8113 68.3209 11.5044 68.4348C11.1975 68.5488 10.8706 68.5991 10.5436 68.5827C9.9054 68.5166 9.31578 68.2115 8.89316 67.7287C8.47054 67.2458 8.24619 66.621 8.26515 65.9796C8.26515 53.7652 8.2567 50.9847 8.24946 48.7822L8.24101 45.6529V31.1709C8.24101 30.8508 8.11386 30.5438 7.88753 30.3175C7.66121 30.0912 7.35425 29.964 7.03417 29.964C6.7141 29.964 6.40714 30.0912 6.18081 30.3175C5.95449 30.5438 5.82734 30.8508 5.82734 31.1709V44.446C5.18719 44.446 4.57327 44.1918 4.12062 43.7391C3.66797 43.2865 3.41367 42.6725 3.41367 42.0324V31.1709C3.41559 29.5711 4.05194 28.0374 5.18315 26.9062C6.31437 25.775 7.84807 25.1386 9.44784 25.1367H9.81834L13.1444 34.0093C13.2303 34.2399 13.3847 34.4387 13.5868 34.579C13.7889 34.7194 14.0291 34.7946 14.2752 34.7946C14.5212 34.7946 14.7614 34.7194 14.9635 34.579C15.1656 34.4387 15.32 34.2399 15.406 34.0093L18.732 25.1367H34.9965C35.3244 25.1356 35.649 25.2019 35.9503 25.3315C36.2515 25.461 36.5229 25.651 36.7476 25.8898ZM32.3777 17.8957V13.0683H35.9982C36.3183 13.0683 36.6252 12.9412 36.8516 12.7149C37.0779 12.4885 37.205 12.1816 37.205 11.8615C37.205 11.5414 37.0779 11.2345 36.8516 11.0082C36.6252 10.7818 36.3183 10.6547 35.9982 10.6547H32.3777V5.82734H51.6871C52.0071 5.82734 52.3141 5.95449 52.5404 6.18081C52.7667 6.40714 52.8939 6.7141 52.8939 7.03417V17.8957H32.3777ZM56.5144 23.9299C56.1943 23.9299 55.8874 23.8027 55.661 23.5764C55.4347 23.3501 55.3076 23.0431 55.3076 22.723V11.8615L68.5827 11.8157V16.6889H64.9622C64.6422 16.6889 64.3352 16.816 64.1089 17.0423C63.8825 17.2686 63.7554 17.5756 63.7554 17.8957C63.7554 18.2158 63.8825 18.5227 64.1089 18.749C64.3352 18.9754 64.6422 19.1025 64.9622 19.1025H68.5827V23.9299H56.5144Z"/>
</mask>
<path d="M68.6334 9.44784H55.3076V7.03417C55.3076 6.07396 54.9261 5.15307 54.2471 4.47409C53.5682 3.79511 52.6473 3.41367 51.6871 3.41367H32.3777V2.20683C32.3777 1.88676 32.2506 1.5798 32.0242 1.35347C31.7979 1.12715 31.4909 1 31.1709 1C30.8508 1 30.5438 1.12715 30.3175 1.35347C30.0912 1.5798 29.964 1.88676 29.964 2.20683V22.723H9.44784C7.20812 22.7256 5.06086 23.6164 3.47714 25.2002C1.89341 26.7839 1.00256 28.9311 1 31.1709V42.0324C1 43.3127 1.50859 44.5405 2.41389 45.4458C3.3192 46.3511 4.54705 46.8597 5.82734 46.8597V48.7846C5.83458 50.9871 5.84303 53.7652 5.84303 65.9748C5.83002 67.2343 6.29481 68.4519 7.14376 69.3823C7.99271 70.3128 9.16274 70.887 10.4181 70.9892C11.0722 71.0208 11.7259 70.9195 12.3397 70.6913C12.9535 70.4631 13.5146 70.1129 13.9892 69.6617C14.0917 69.5651 14.1883 69.4637 14.28 69.3599C14.7313 69.8746 15.2873 70.2868 15.9109 70.5691C16.5345 70.8513 17.2112 70.997 17.8957 70.9964C18.5159 71.0208 19.1347 70.9207 19.7156 70.7019C20.2964 70.4831 20.8276 70.1501 21.2776 69.7226C21.7276 69.2951 22.0873 68.7817 22.3356 68.2128C22.5839 67.644 22.7156 67.0311 22.723 66.4104V33.5676C22.7275 33.2505 22.8566 32.9479 23.0824 32.7252C23.3083 32.5025 23.6127 32.3777 23.9299 32.3777H29.964V56.7365C29.1588 57.0211 28.4802 57.5813 28.048 58.318C27.6159 59.0546 27.4581 59.9204 27.6025 60.7621C27.7469 61.6039 28.1843 62.3675 28.8373 62.918C29.4902 63.4685 30.3168 63.7704 31.1709 63.7704C32.0249 63.7704 32.8515 63.4685 33.5045 62.918C34.1575 62.3675 34.5948 61.6039 34.7392 60.7621C34.8837 59.9204 34.7258 59.0546 34.2937 58.318C33.8616 57.5813 33.1829 57.0211 32.3777 56.7365V32.3777H34.7914C36.0549 32.4043 37.2805 31.9451 38.2155 31.0948C39.1505 30.2445 39.7236 29.0678 39.8166 27.8074C39.8538 27.1522 39.7559 26.4964 39.529 25.8806C39.3021 25.2649 38.951 24.7023 38.4976 24.2279C38.046 23.7534 37.503 23.3754 36.9012 23.1168C36.2995 22.8581 35.6515 22.7242 34.9965 22.723H32.3777V20.3094H52.8939V22.723C52.8939 23.6832 53.2753 24.6041 53.9543 25.2831C54.6333 25.9621 55.5542 26.3435 56.5144 26.3435H68.6334C69.2599 26.3429 69.8606 26.0937 70.3036 25.6507C70.7466 25.2077 70.9958 24.6071 70.9964 23.9805V11.8108C70.9958 11.1843 70.7466 10.5837 70.3036 10.1406C69.8606 9.69764 69.2599 9.44848 68.6334 9.44784ZM31.1709 61.3417C30.9322 61.3417 30.6988 61.271 30.5004 61.1383C30.3019 61.0057 30.1472 60.8173 30.0559 60.5967C29.9646 60.3762 29.9407 60.1336 29.9872 59.8995C30.0338 59.6654 30.1487 59.4503 30.3175 59.2815C30.4863 59.1128 30.7013 58.9978 30.9354 58.9513C31.1695 58.9047 31.4122 58.9286 31.6327 59.0199C31.8532 59.1113 32.0417 59.266 32.1743 59.4644C32.3069 59.6629 32.3777 59.8962 32.3777 60.1349C32.3777 60.455 32.2506 60.7619 32.0242 60.9883C31.7979 61.2146 31.4909 61.3417 31.1709 61.3417ZM16.1542 25.1367L14.2752 30.1475L12.3961 25.1367H16.1542ZM36.7476 25.8898C36.9743 26.1272 37.1498 26.4087 37.2631 26.7168C37.3765 27.0249 37.4253 27.353 37.4066 27.6807C37.3379 28.3205 37.0305 28.9109 36.5458 29.3341C36.0611 29.7574 35.4346 29.9823 34.7914 29.964H23.9299C22.9715 29.964 22.0523 30.344 21.3736 31.0206C20.6949 31.6972 20.3122 32.6153 20.3094 33.5737V66.4165C20.3094 68.5236 17.9222 68.5888 17.8957 68.5888C17.2572 68.5862 16.6458 68.3308 16.1952 67.8784C15.7446 67.426 15.4917 66.8136 15.4917 66.1751L15.482 52.8939C15.482 52.5738 15.3549 52.2669 15.1285 52.0405C14.9022 51.8142 14.5953 51.6871 14.2752 51.6871C13.9551 51.6871 13.6481 51.8142 13.4218 52.0405C13.1955 52.2669 13.0683 52.5738 13.0683 52.8939L13.078 66.1691C13.0784 66.4965 13.0122 66.8205 12.8834 67.1215C12.7547 67.4225 12.566 67.6941 12.3289 67.9199C12.0919 68.1457 11.8113 68.3209 11.5044 68.4348C11.1975 68.5488 10.8706 68.5991 10.5436 68.5827C9.9054 68.5166 9.31578 68.2115 8.89316 67.7287C8.47054 67.2458 8.24619 66.621 8.26515 65.9796C8.26515 53.7652 8.2567 50.9847 8.24946 48.7822L8.24101 45.6529V31.1709C8.24101 30.8508 8.11386 30.5438 7.88753 30.3175C7.66121 30.0912 7.35425 29.964 7.03417 29.964C6.7141 29.964 6.40714 30.0912 6.18081 30.3175C5.95449 30.5438 5.82734 30.8508 5.82734 31.1709V44.446C5.18719 44.446 4.57327 44.1918 4.12062 43.7391C3.66797 43.2865 3.41367 42.6725 3.41367 42.0324V31.1709C3.41559 29.5711 4.05194 28.0374 5.18315 26.9062C6.31437 25.775 7.84807 25.1386 9.44784 25.1367H9.81834L13.1444 34.0093C13.2303 34.2399 13.3847 34.4387 13.5868 34.579C13.7889 34.7194 14.0291 34.7946 14.2752 34.7946C14.5212 34.7946 14.7614 34.7194 14.9635 34.579C15.1656 34.4387 15.32 34.2399 15.406 34.0093L18.732 25.1367H34.9965C35.3244 25.1356 35.649 25.2019 35.9503 25.3315C36.2515 25.461 36.5229 25.651 36.7476 25.8898ZM32.3777 17.8957V13.0683H35.9982C36.3183 13.0683 36.6252 12.9412 36.8516 12.7149C37.0779 12.4885 37.205 12.1816 37.205 11.8615C37.205 11.5414 37.0779 11.2345 36.8516 11.0082C36.6252 10.7818 36.3183 10.6547 35.9982 10.6547H32.3777V5.82734H51.6871C52.0071 5.82734 52.3141 5.95449 52.5404 6.18081C52.7667 6.40714 52.8939 6.7141 52.8939 7.03417V17.8957H32.3777ZM56.5144 23.9299C56.1943 23.9299 55.8874 23.8027 55.661 23.5764C55.4347 23.3501 55.3076 23.0431 55.3076 22.723V11.8615L68.5827 11.8157V16.6889H64.9622C64.6422 16.6889 64.3352 16.816 64.1089 17.0423C63.8825 17.2686 63.7554 17.5756 63.7554 17.8957C63.7554 18.2158 63.8825 18.5227 64.1089 18.749C64.3352 18.9754 64.6422 19.1025 64.9622 19.1025H68.5827V23.9299H56.5144Z" fill="white"/>
<path d="M68.6334 9.44784H55.3076V7.03417C55.3076 6.07396 54.9261 5.15307 54.2471 4.47409C53.5682 3.79511 52.6473 3.41367 51.6871 3.41367H32.3777V2.20683C32.3777 1.88676 32.2506 1.5798 32.0242 1.35347C31.7979 1.12715 31.4909 1 31.1709 1C30.8508 1 30.5438 1.12715 30.3175 1.35347C30.0912 1.5798 29.964 1.88676 29.964 2.20683V22.723H9.44784C7.20812 22.7256 5.06086 23.6164 3.47714 25.2002C1.89341 26.7839 1.00256 28.9311 1 31.1709V42.0324C1 43.3127 1.50859 44.5405 2.41389 45.4458C3.3192 46.3511 4.54705 46.8597 5.82734 46.8597V48.7846C5.83458 50.9871 5.84303 53.7652 5.84303 65.9748C5.83002 67.2343 6.29481 68.4519 7.14376 69.3823C7.99271 70.3128 9.16274 70.887 10.4181 70.9892C11.0722 71.0208 11.7259 70.9195 12.3397 70.6913C12.9535 70.4631 13.5146 70.1129 13.9892 69.6617C14.0917 69.5651 14.1883 69.4637 14.28 69.3599C14.7313 69.8746 15.2873 70.2868 15.9109 70.5691C16.5345 70.8513 17.2112 70.997 17.8957 70.9964C18.5159 71.0208 19.1347 70.9207 19.7156 70.7019C20.2964 70.4831 20.8276 70.1501 21.2776 69.7226C21.7276 69.2951 22.0873 68.7817 22.3356 68.2128C22.5839 67.644 22.7156 67.0311 22.723 66.4104V33.5676C22.7275 33.2505 22.8566 32.9479 23.0824 32.7252C23.3083 32.5025 23.6127 32.3777 23.9299 32.3777H29.964V56.7365C29.1588 57.0211 28.4802 57.5813 28.048 58.318C27.6159 59.0546 27.4581 59.9204 27.6025 60.7621C27.7469 61.6039 28.1843 62.3675 28.8373 62.918C29.4902 63.4685 30.3168 63.7704 31.1709 63.7704C32.0249 63.7704 32.8515 63.4685 33.5045 62.918C34.1575 62.3675 34.5948 61.6039 34.7392 60.7621C34.8837 59.9204 34.7258 59.0546 34.2937 58.318C33.8616 57.5813 33.1829 57.0211 32.3777 56.7365V32.3777H34.7914C36.0549 32.4043 37.2805 31.9451 38.2155 31.0948C39.1505 30.2445 39.7236 29.0678 39.8166 27.8074C39.8538 27.1522 39.7559 26.4964 39.529 25.8806C39.3021 25.2649 38.951 24.7023 38.4976 24.2279C38.046 23.7534 37.503 23.3754 36.9012 23.1168C36.2995 22.8581 35.6515 22.7242 34.9965 22.723H32.3777V20.3094H52.8939V22.723C52.8939 23.6832 53.2753 24.6041 53.9543 25.2831C54.6333 25.9621 55.5542 26.3435 56.5144 26.3435H68.6334C69.2599 26.3429 69.8606 26.0937 70.3036 25.6507C70.7466 25.2077 70.9958 24.6071 70.9964 23.9805V11.8108C70.9958 11.1843 70.7466 10.5837 70.3036 10.1406C69.8606 9.69764 69.2599 9.44848 68.6334 9.44784ZM31.1709 61.3417C30.9322 61.3417 30.6988 61.271 30.5004 61.1383C30.3019 61.0057 30.1472 60.8173 30.0559 60.5967C29.9646 60.3762 29.9407 60.1336 29.9872 59.8995C30.0338 59.6654 30.1487 59.4503 30.3175 59.2815C30.4863 59.1128 30.7013 58.9978 30.9354 58.9513C31.1695 58.9047 31.4122 58.9286 31.6327 59.0199C31.8532 59.1113 32.0417 59.266 32.1743 59.4644C32.3069 59.6629 32.3777 59.8962 32.3777 60.1349C32.3777 60.455 32.2506 60.7619 32.0242 60.9883C31.7979 61.2146 31.4909 61.3417 31.1709 61.3417ZM16.1542 25.1367L14.2752 30.1475L12.3961 25.1367H16.1542ZM36.7476 25.8898C36.9743 26.1272 37.1498 26.4087 37.2631 26.7168C37.3765 27.0249 37.4253 27.353 37.4066 27.6807C37.3379 28.3205 37.0305 28.9109 36.5458 29.3341C36.0611 29.7574 35.4346 29.9823 34.7914 29.964H23.9299C22.9715 29.964 22.0523 30.344 21.3736 31.0206C20.6949 31.6972 20.3122 32.6153 20.3094 33.5737V66.4165C20.3094 68.5236 17.9222 68.5888 17.8957 68.5888C17.2572 68.5862 16.6458 68.3308 16.1952 67.8784C15.7446 67.426 15.4917 66.8136 15.4917 66.1751L15.482 52.8939C15.482 52.5738 15.3549 52.2669 15.1285 52.0405C14.9022 51.8142 14.5953 51.6871 14.2752 51.6871C13.9551 51.6871 13.6481 51.8142 13.4218 52.0405C13.1955 52.2669 13.0683 52.5738 13.0683 52.8939L13.078 66.1691C13.0784 66.4965 13.0122 66.8205 12.8834 67.1215C12.7547 67.4225 12.566 67.6941 12.3289 67.9199C12.0919 68.1457 11.8113 68.3209 11.5044 68.4348C11.1975 68.5488 10.8706 68.5991 10.5436 68.5827C9.9054 68.5166 9.31578 68.2115 8.89316 67.7287C8.47054 67.2458 8.24619 66.621 8.26515 65.9796C8.26515 53.7652 8.2567 50.9847 8.24946 48.7822L8.24101 45.6529V31.1709C8.24101 30.8508 8.11386 30.5438 7.88753 30.3175C7.66121 30.0912 7.35425 29.964 7.03417 29.964C6.7141 29.964 6.40714 30.0912 6.18081 30.3175C5.95449 30.5438 5.82734 30.8508 5.82734 31.1709V44.446C5.18719 44.446 4.57327 44.1918 4.12062 43.7391C3.66797 43.2865 3.41367 42.6725 3.41367 42.0324V31.1709C3.41559 29.5711 4.05194 28.0374 5.18315 26.9062C6.31437 25.775 7.84807 25.1386 9.44784 25.1367H9.81834L13.1444 34.0093C13.2303 34.2399 13.3847 34.4387 13.5868 34.579C13.7889 34.7194 14.0291 34.7946 14.2752 34.7946C14.5212 34.7946 14.7614 34.7194 14.9635 34.579C15.1656 34.4387 15.32 34.2399 15.406 34.0093L18.732 25.1367H34.9965C35.3244 25.1356 35.649 25.2019 35.9503 25.3315C36.2515 25.461 36.5229 25.651 36.7476 25.8898ZM32.3777 17.8957V13.0683H35.9982C36.3183 13.0683 36.6252 12.9412 36.8516 12.7149C37.0779 12.4885 37.205 12.1816 37.205 11.8615C37.205 11.5414 37.0779 11.2345 36.8516 11.0082C36.6252 10.7818 36.3183 10.6547 35.9982 10.6547H32.3777V5.82734H51.6871C52.0071 5.82734 52.3141 5.95449 52.5404 6.18081C52.7667 6.40714 52.8939 6.7141 52.8939 7.03417V17.8957H32.3777ZM56.5144 23.9299C56.1943 23.9299 55.8874 23.8027 55.661 23.5764C55.4347 23.3501 55.3076 23.0431 55.3076 22.723V11.8615L68.5827 11.8157V16.6889H64.9622C64.6422 16.6889 64.3352 16.816 64.1089 17.0423C63.8825 17.2686 63.7554 17.5756 63.7554 17.8957C63.7554 18.2158 63.8825 18.5227 64.1089 18.749C64.3352 18.9754 64.6422 19.1025 64.9622 19.1025H68.5827V23.9299H56.5144Z" stroke="white" stroke-width="0.8" mask="url(#path-2-outside-1)"/>
</svg>
