<svg width="53" height="13" viewBox="0 0 53 13" fill="none" xmlns="http://www.w3.org/2000/svg">
<path d="M0.76 12C0.653333 12 0.562667 11.968 0.488 11.904C0.424 11.8293 0.392 11.7387 0.392 11.632V1.184C0.392 1.06667 0.424 0.976 0.488 0.912C0.562667 0.837333 0.653333 0.799999 0.76 0.799999H1.576C1.69333 0.799999 1.784 0.837333 1.848 0.912C1.92267 0.976 1.96 1.06667 1.96 1.184V5.6H7.464V1.184C7.464 1.06667 7.496 0.976 7.56 0.912C7.63467 0.837333 7.72533 0.799999 7.832 0.799999H8.648C8.76533 0.799999 8.856 0.837333 8.92 0.912C8.99467 0.976 9.032 1.06667 9.032 1.184V11.632C9.032 11.7387 8.99467 11.8293 8.92 11.904C8.84533 11.968 8.75467 12 8.648 12H7.832C7.72533 12 7.63467 11.968 7.56 11.904C7.496 11.8293 7.464 11.7387 7.464 11.632V7.04H1.96V11.632C1.96 11.7387 1.92267 11.8293 1.848 11.904C1.77333 11.968 1.68267 12 1.576 12H0.76ZM15.0139 12.16C13.8405 12.16 12.9285 11.8293 12.2779 11.168C11.6379 10.5067 11.2965 9.62667 11.2539 8.528L11.2379 7.84L11.2539 7.152C11.2965 6.064 11.6432 5.18933 12.2939 4.528C12.9445 3.856 13.8512 3.52 15.0139 3.52C16.1765 3.52 17.0832 3.856 17.7339 4.528C18.3845 5.18933 18.7312 6.064 18.7739 7.152C18.7845 7.26933 18.7899 7.49867 18.7899 7.84C18.7899 8.18133 18.7845 8.41067 18.7739 8.528C18.7312 9.62667 18.3845 10.5067 17.7339 11.168C17.0939 11.8293 16.1872 12.16 15.0139 12.16ZM15.0139 10.928C15.6859 10.928 16.2139 10.7147 16.5979 10.288C16.9925 9.86133 17.2059 9.248 17.2379 8.448C17.2485 8.34133 17.2539 8.13867 17.2539 7.84C17.2539 7.54133 17.2485 7.33867 17.2379 7.232C17.2059 6.432 16.9925 5.81867 16.5979 5.392C16.2139 4.96533 15.6859 4.752 15.0139 4.752C14.3419 4.752 13.8085 4.96533 13.4139 5.392C13.0192 5.81867 12.8112 6.432 12.7899 7.232L12.7739 7.84L12.7899 8.448C12.8112 9.248 13.0192 9.86133 13.4139 10.288C13.8085 10.7147 14.3419 10.928 15.0139 10.928ZM21.1614 12C21.0547 12 20.964 11.968 20.8894 11.904C20.8254 11.8293 20.7934 11.7387 20.7934 11.632V4.064C20.7934 3.95733 20.8254 3.86667 20.8894 3.792C20.964 3.71733 21.0547 3.68 21.1614 3.68H21.8974C22.004 3.68 22.0947 3.71733 22.1694 3.792C22.244 3.86667 22.2814 3.95733 22.2814 4.064V4.768C22.7187 4.04267 23.4654 3.68 24.5214 3.68H25.1454C25.252 3.68 25.3374 3.71733 25.4014 3.792C25.476 3.856 25.5134 3.94133 25.5134 4.048V4.704C25.5134 4.81067 25.476 4.896 25.4014 4.96C25.3374 5.024 25.252 5.056 25.1454 5.056H24.1854C23.6094 5.056 23.156 5.22667 22.8254 5.568C22.4947 5.89867 22.3294 6.352 22.3294 6.928V11.632C22.3294 11.7387 22.292 11.8293 22.2174 11.904C22.1427 11.968 22.052 12 21.9454 12H21.1614ZM29.0665 12.16C28.5438 12.16 28.0585 12.0533 27.6105 11.84C27.1625 11.6267 26.8052 11.3387 26.5385 10.976C26.2825 10.6027 26.1545 10.192 26.1545 9.744C26.1545 9.04 26.4425 8.464 27.0185 8.016C27.6052 7.55733 28.3945 7.25867 29.3865 7.12L31.7705 6.784V6.32C31.7705 5.232 31.1465 4.688 29.8985 4.688C29.4292 4.688 29.0452 4.78933 28.7465 4.992C28.4478 5.184 28.2238 5.41333 28.0745 5.68C28.0425 5.776 27.9998 5.84533 27.9465 5.888C27.9038 5.93067 27.8398 5.952 27.7545 5.952H27.0665C26.9705 5.952 26.8852 5.92 26.8105 5.856C26.7465 5.78133 26.7145 5.696 26.7145 5.6C26.7252 5.344 26.8425 5.056 27.0665 4.736C27.3012 4.40533 27.6585 4.12267 28.1385 3.888C28.6185 3.64267 29.2105 3.52 29.9145 3.52C31.1092 3.52 31.9678 3.80267 32.4905 4.368C33.0132 4.92267 33.2745 5.616 33.2745 6.448V11.632C33.2745 11.7387 33.2372 11.8293 33.1625 11.904C33.0985 11.968 33.0132 12 32.9065 12H32.1705C32.0638 12 31.9732 11.968 31.8985 11.904C31.8345 11.8293 31.8025 11.7387 31.8025 11.632V10.944C31.5678 11.2853 31.2265 11.5733 30.7785 11.808C30.3305 12.0427 29.7598 12.16 29.0665 12.16ZM29.4025 10.96C30.0958 10.96 30.6612 10.736 31.0985 10.288C31.5465 9.82933 31.7705 9.17333 31.7705 8.32V7.872L29.9145 8.144C29.1572 8.25067 28.5865 8.432 28.2025 8.688C27.8185 8.93333 27.6265 9.248 27.6265 9.632C27.6265 10.0587 27.8025 10.3893 28.1545 10.624C28.5065 10.848 28.9225 10.96 29.4025 10.96ZM29.2265 2.48C29.0558 2.48 28.9705 2.39467 28.9705 2.224C28.9705 2.13867 28.9972 2.06933 29.0505 2.016L30.2505 0.575999C30.3572 0.458666 30.4425 0.378666 30.5065 0.335999C30.5812 0.293333 30.6932 0.271999 30.8425 0.271999H31.9305C32.0265 0.271999 32.1012 0.303999 32.1545 0.367999C32.2078 0.421332 32.2345 0.495999 32.2345 0.591999C32.2345 0.666666 32.2078 0.730666 32.1545 0.783999L30.2985 2.304C30.2132 2.37867 30.1332 2.42667 30.0585 2.448C29.9838 2.46933 29.8878 2.48 29.7705 2.48H29.2265ZM35.9426 12C35.836 12 35.7453 11.968 35.6706 11.904C35.6066 11.8293 35.5746 11.7387 35.5746 11.632V4.064C35.5746 3.95733 35.6066 3.86667 35.6706 3.792C35.7453 3.71733 35.836 3.68 35.9426 3.68H36.6786C36.7853 3.68 36.876 3.71733 36.9506 3.792C37.0253 3.86667 37.0626 3.95733 37.0626 4.064V4.768C37.5 4.04267 38.2466 3.68 39.3026 3.68H39.9266C40.0333 3.68 40.1186 3.71733 40.1826 3.792C40.2573 3.856 40.2946 3.94133 40.2946 4.048V4.704C40.2946 4.81067 40.2573 4.896 40.1826 4.96C40.1186 5.024 40.0333 5.056 39.9266 5.056H38.9666C38.3906 5.056 37.9373 5.22667 37.6066 5.568C37.276 5.89867 37.1106 6.352 37.1106 6.928V11.632C37.1106 11.7387 37.0733 11.8293 36.9986 11.904C36.924 11.968 36.8333 12 36.7266 12H35.9426ZM41.8928 2.128C41.7861 2.128 41.6954 2.096 41.6208 2.032C41.5568 1.95733 41.5247 1.86667 41.5247 1.76V0.896C41.5247 0.789333 41.5568 0.698666 41.6208 0.624C41.6954 0.549333 41.7861 0.511999 41.8928 0.511999H42.9008C43.0074 0.511999 43.0981 0.549333 43.1728 0.624C43.2474 0.698666 43.2848 0.789333 43.2848 0.896V1.76C43.2848 1.86667 43.2474 1.95733 43.1728 2.032C43.0981 2.096 43.0074 2.128 42.9008 2.128H41.8928ZM42.0208 12C41.9141 12 41.8234 11.968 41.7488 11.904C41.6848 11.8293 41.6528 11.7387 41.6528 11.632V4.048C41.6528 3.94133 41.6848 3.856 41.7488 3.792C41.8234 3.71733 41.9141 3.68 42.0208 3.68H42.7888C42.8954 3.68 42.9808 3.71733 43.0448 3.792C43.1194 3.856 43.1568 3.94133 43.1568 4.048V11.632C43.1568 11.7387 43.1194 11.8293 43.0448 11.904C42.9808 11.968 42.8954 12 42.7888 12H42.0208ZM48.9358 12.16C47.7624 12.16 46.8504 11.8293 46.1998 11.168C45.5598 10.5067 45.2184 9.62667 45.1758 8.528L45.1598 7.84L45.1758 7.152C45.2184 6.064 45.5651 5.18933 46.2158 4.528C46.8664 3.856 47.7731 3.52 48.9358 3.52C50.0984 3.52 51.0051 3.856 51.6558 4.528C52.3064 5.18933 52.6531 6.064 52.6958 7.152C52.7064 7.26933 52.7118 7.49867 52.7118 7.84C52.7118 8.18133 52.7064 8.41067 52.6958 8.528C52.6531 9.62667 52.3064 10.5067 51.6558 11.168C51.0158 11.8293 50.1091 12.16 48.9358 12.16ZM48.9358 10.928C49.6078 10.928 50.1358 10.7147 50.5198 10.288C50.9144 9.86133 51.1278 9.248 51.1598 8.448C51.1704 8.34133 51.1758 8.13867 51.1758 7.84C51.1758 7.54133 51.1704 7.33867 51.1598 7.232C51.1278 6.432 50.9144 5.81867 50.5198 5.392C50.1358 4.96533 49.6078 4.752 48.9358 4.752C48.2638 4.752 47.7304 4.96533 47.3358 5.392C46.9411 5.81867 46.7331 6.432 46.7118 7.232L46.6957 7.84L46.7118 8.448C46.7331 9.248 46.9411 9.86133 47.3358 10.288C47.7304 10.7147 48.2638 10.928 48.9358 10.928Z" fill="#7A7C86"/>
</svg>
