<svg width="21" height="21" viewBox="0 0 21 21" fill="none" xmlns="http://www.w3.org/2000/svg">
<path d="M10.9708 0L10.694 0.247608L0.606639 10.4464L0 11.0548L0.607523 11.6915L9.0085 20.0925L9.6452 20.7L10.2554 20.0925L20.4515 10.0051L20.6982 9.72744V0H10.9708ZM11.7171 1.76863H18.9296V8.98108L9.64432 18.2115L2.48669 11.0539L11.7171 1.76863ZM16.2767 3.53725C16.0421 3.53725 15.8172 3.63042 15.6514 3.79626C15.4855 3.9621 15.3924 4.18703 15.3924 4.42157C15.3924 4.6561 15.4855 4.88103 15.6514 5.04687C15.8172 5.21271 16.0421 5.30588 16.2767 5.30588C16.5112 5.30588 16.7361 5.21271 16.902 5.04687C17.0678 4.88103 17.161 4.6561 17.161 4.42157C17.161 4.18703 17.0678 3.9621 16.902 3.79626C16.7361 3.63042 16.5112 3.53725 16.2767 3.53725Z" fill="white"/>
</svg>
