<svg width="60" height="60" viewBox="0 0 60 60" fill="none" xmlns="http://www.w3.org/2000/svg">
<path d="M59 0H11C10.7348 0 10.4804 0.105357 10.2929 0.292893C10.1054 0.48043 10 0.734784 10 1V14.09C8.64272 13.8583 7.24706 14.101 6.04772 14.7774C4.84837 15.4537 3.9185 16.5225 3.41448 17.8038C2.91047 19.0851 2.86304 20.501 3.28019 21.8132C3.69733 23.1254 4.5536 24.2539 5.705 25.009C4.17795 25.055 2.7287 25.6933 1.66393 26.7888C0.599162 27.8844 0.00242513 29.3513 1.45005e-07 30.879V39.028C-0.000100938 39.2157 0.0526487 39.3997 0.152213 39.5589C0.251778 39.718 0.394136 39.846 0.563 39.928L2 40.628V49C2 49.2652 2.10536 49.5196 2.29289 49.7071C2.48043 49.8946 2.73478 50 3 50H15C15.2652 50 15.5196 49.8946 15.7071 49.7071C15.8946 49.5196 16 49.2652 16 49V40.626L17.437 39.926C17.6059 39.844 17.7482 39.716 17.8478 39.5569C17.9474 39.3977 18.0001 39.2137 18 39.026V34H59C59.2652 34 59.5196 33.8946 59.7071 33.7071C59.8946 33.5196 60 33.2652 60 33V1C60 0.734784 59.8946 0.48043 59.7071 0.292893C59.5196 0.105357 59.2652 0 59 0ZM5 20C5 19.2089 5.2346 18.4355 5.67412 17.7777C6.11365 17.1199 6.73836 16.6072 7.46927 16.3045C8.20017 16.0017 9.00444 15.9225 9.78036 16.0769C10.5563 16.2312 11.269 16.6122 11.8284 17.1716C12.3878 17.731 12.7688 18.4437 12.9231 19.2196C13.0775 19.9956 12.9983 20.7998 12.6955 21.5307C12.3928 22.2616 11.8801 22.8864 11.2223 23.3259C10.5645 23.7654 9.79113 24 9 24C7.93913 24 6.92172 23.5786 6.17157 22.8284C5.42143 22.0783 5 21.0609 5 20ZM16.5 30.821C16.3481 30.9087 16.222 31.0348 16.1342 31.1866C16.0465 31.3384 16.0002 31.5106 16 31.686V38.4L14.563 39.1C14.3941 39.182 14.2518 39.31 14.1522 39.4691C14.0526 39.6283 13.9999 39.8123 14 40V48H4V40C4.0001 39.8123 3.94735 39.6283 3.84779 39.4691C3.74822 39.31 3.60586 39.182 3.437 39.1L2 38.4V30.879C2.00106 29.8506 2.41008 28.8645 3.1373 28.1373C3.86453 27.4101 4.85055 27.0011 5.879 27H16C16.1429 27.0004 16.2842 26.9696 16.414 26.91L24.186 23.377C24.3814 23.2881 24.596 23.2498 24.8102 23.2653C25.0243 23.2809 25.2311 23.35 25.4116 23.4662C25.5921 23.5825 25.7405 23.7421 25.8433 23.9306C25.9461 24.1191 26 24.3303 26 24.545C25.9997 24.7693 25.9407 24.9897 25.8287 25.1841C25.7168 25.3785 25.5559 25.5401 25.362 25.653L16.5 30.821ZM58 32H18.446L26.37 27.382C27.0975 26.958 27.6343 26.2707 27.8694 25.4621C28.1045 24.6536 28.0199 23.7856 27.6332 23.0376C27.2464 22.2896 26.587 21.7189 25.7914 21.4433C24.9957 21.1677 24.1245 21.2084 23.358 21.557L15.783 25H12.31C13.1625 24.4373 13.8569 23.6659 14.3272 22.7592C14.7975 21.8525 15.0281 20.8405 14.997 19.8195C14.9659 18.7985 14.6743 17.8025 14.1497 16.926C13.6251 16.0496 12.8851 15.3218 12 14.812V2H58V32Z" fill="white"/>
<path d="M56 7H38V9H56V7Z" fill="white"/>
<path d="M56 13H30V15H56V13Z" fill="white"/>
<path d="M56 20H30V22H56V20Z" fill="white"/>
<path d="M56 27H30V29H56V27Z" fill="white"/>
<path d="M18 57.8V59C18 59.2652 18.1054 59.5196 18.2929 59.7071C18.4804 59.8946 18.7348 60 19 60H37C37.2652 60 37.5196 59.8946 37.7071 59.7071C37.8946 59.5196 38 59.2652 38 59V57.8C37.9975 56.0149 37.384 54.2845 36.2615 52.8965C35.1389 51.5086 33.5751 50.5467 31.83 50.171C32.5796 49.2838 32.9937 48.1615 33 47C33 45.6739 32.4732 44.4021 31.5355 43.4645C30.5979 42.5268 29.3261 42 28 42C26.6739 42 25.4021 42.5268 24.4645 43.4645C23.5268 44.4021 23 45.6739 23 47C23.0054 48.1628 23.4195 49.2867 24.17 50.175C22.4256 50.5506 20.8622 51.5118 19.7398 52.899C18.6174 54.2861 18.0034 56.0156 18 57.8ZM28 44C28.5933 44 29.1734 44.1759 29.6667 44.5056C30.1601 44.8352 30.5446 45.3038 30.7716 45.852C30.9987 46.4001 31.0581 47.0033 30.9424 47.5853C30.8266 48.1672 30.5409 48.7018 30.1213 49.1213C29.7018 49.5409 29.1672 49.8266 28.5853 49.9424C28.0033 50.0581 27.4001 49.9987 26.8519 49.7716C26.3038 49.5446 25.8352 49.1601 25.5056 48.6667C25.1759 48.1734 25 47.5933 25 47C25 46.2044 25.3161 45.4413 25.8787 44.8787C26.4413 44.3161 27.2044 44 28 44ZM25.8 52H30.2C31.7374 52.0029 33.2109 52.6149 34.298 53.702C35.3851 54.7891 35.9971 56.2626 36 57.8V58H20V57.8C20.0029 56.2626 20.6149 54.7891 21.702 53.702C22.7891 52.6149 24.2626 52.0029 25.8 52Z" fill="white"/>
<path d="M53.83 50.175C54.5805 49.2867 54.9946 48.1628 55 47C55 45.6739 54.4732 44.4021 53.5355 43.4645C52.5979 42.5268 51.3261 42 50 42C48.6739 42 47.4021 42.5268 46.4645 43.4645C45.5268 44.4021 45 45.6739 45 47C45.0054 48.1628 45.4195 49.2867 46.17 50.175C44.4256 50.5506 42.8622 51.5118 41.7398 52.899C40.6173 54.2861 40.0034 56.0156 40 57.8V59C40 59.2652 40.1054 59.5196 40.2929 59.7071C40.4804 59.8946 40.7348 60 41 60H59C59.2652 60 59.5196 59.8946 59.7071 59.7071C59.8946 59.5196 60 59.2652 60 59V57.8C59.9966 56.0156 59.3827 54.2861 58.2602 52.899C57.1378 51.5118 55.5744 50.5506 53.83 50.175ZM50 44C50.5933 44 51.1734 44.1759 51.6667 44.5056C52.1601 44.8352 52.5446 45.3038 52.7716 45.852C52.9987 46.4001 53.0581 47.0033 52.9424 47.5853C52.8266 48.1672 52.5409 48.7018 52.1213 49.1213C51.7018 49.5409 51.1672 49.8266 50.5853 49.9424C50.0033 50.0581 49.4001 49.9987 48.852 49.7716C48.3038 49.5446 47.8352 49.1601 47.5056 48.6667C47.1759 48.1734 47 47.5933 47 47C47 46.2044 47.3161 45.4413 47.8787 44.8787C48.4413 44.3161 49.2044 44 50 44ZM58 58H42V57.8C42.0029 56.2626 42.6149 54.7891 43.702 53.702C44.7891 52.6149 46.2626 52.0029 47.8 52H52.2C53.7374 52.0029 55.2109 52.6149 56.298 53.702C57.3851 54.7891 57.9971 56.2626 58 57.8V58Z" fill="white"/>
</svg>
