<svg width="24" height="24" viewBox="0 0 24 24" fill="none" xmlns="http://www.w3.org/2000/svg">
<path d="M5.98889 18.3376V18.3365V18.1111C5.98889 17.4893 6.2359 16.893 6.67556 16.4533C7.11523 16.0137 7.71155 15.7667 8.33334 15.7667H15.6667C16.2885 15.7667 16.8848 16.0137 17.3244 16.4533C17.7641 16.893 18.0111 17.4893 18.0111 18.1111L18.0111 18.3365L18.0111 18.3376C18.0152 18.7378 17.9155 19.1322 17.7216 19.4823C17.5278 19.8322 17.2466 20.1258 16.9054 20.3346C15.4202 21.2139 13.726 21.6778 12 21.6778C10.274 21.6778 8.57981 21.2139 7.09462 20.3346C6.75344 20.1258 6.47222 19.8322 6.27842 19.4823C6.08451 19.1322 5.98475 18.7378 5.98889 18.3376ZM12 4.56667C11.1342 4.56667 10.2878 4.82342 9.56784 5.30445C8.84792 5.78549 8.28681 6.46921 7.95546 7.26914C7.62412 8.06907 7.53743 8.9493 7.70634 9.7985C7.87526 10.6477 8.2922 11.4278 8.90445 12.04C9.51669 12.6522 10.2967 13.0692 11.1459 13.2381C11.9951 13.407 12.8754 13.3203 13.6753 12.989C14.4752 12.6576 15.159 12.0965 15.64 11.3766C16.121 10.6567 16.3778 9.81028 16.3778 8.94444C16.3778 7.78338 15.9165 6.66988 15.0956 5.84889C14.2746 5.02789 13.1611 4.56667 12 4.56667ZM11.9999 11.9C11.4154 11.9 10.844 11.7266 10.358 11.4019C9.87195 11.0771 9.49312 10.6155 9.26943 10.0755C9.04573 9.53543 8.9872 8.94116 9.10124 8.36784C9.21528 7.79452 9.49677 7.26789 9.91011 6.85455C10.3235 6.44121 10.8501 6.15972 11.4234 6.04568C11.9967 5.93164 12.591 5.99017 13.131 6.21387C13.6711 6.43756 14.1327 6.81639 14.4575 7.30242C14.7822 7.78843 14.9555 8.35981 14.9556 8.94433C14.9547 9.72795 14.643 10.4792 14.0889 11.0333C13.5348 11.5874 12.7835 11.8991 11.9999 11.9ZM12 0.9C9.80463 0.9 7.65856 1.551 5.83317 2.77069C4.00779 3.99037 2.58507 5.72395 1.74494 7.75221C0.904809 9.78047 0.684992 12.0123 1.11329 14.1655C1.54158 16.3187 2.59876 18.2965 4.15112 19.8489C5.70348 21.4012 7.68131 22.4584 9.8345 22.8867C11.9877 23.315 14.2195 23.0952 16.2478 22.2551C18.276 21.4149 20.0096 19.9922 21.2293 18.1668C22.449 16.3414 23.1 14.1954 23.1 12C23.1 9.05609 21.9305 6.23277 19.8489 4.15111C17.7672 2.06946 14.9439 0.9 12 0.9ZM21.57 13.4184C21.3063 15.1714 20.5663 16.8165 19.4333 18.1755V18.1111C19.4333 17.1121 19.0365 16.1541 18.3301 15.4477C17.6237 14.7413 16.6656 14.3444 15.6667 14.3444H8.33334C7.33435 14.3444 6.37629 14.7413 5.6699 15.4477C4.96351 16.1541 4.56667 17.1121 4.56667 18.1111V18.1755C3.43367 16.8165 2.69374 15.1714 2.42996 13.4184C2.15283 11.5767 2.41302 9.69408 3.17931 7.99656C3.9456 6.29904 5.18543 4.85869 6.75003 3.84834C8.31463 2.838 10.1375 2.30059 12 2.30059C13.8625 2.30059 15.6854 2.838 17.25 3.84834C18.8146 4.85869 20.0544 6.29904 20.8207 7.99656C21.587 9.69408 21.8472 11.5767 21.57 13.4184Z" fill="#F2B111" stroke="#F2B111" stroke-width="0.2"/>
</svg>
