<svg width="57" height="62" viewBox="0 0 57 62" fill="none" xmlns="http://www.w3.org/2000/svg">
<mask id="path-1-outside-1" maskUnits="userSpaceOnUse" x="0" y="0" width="57" height="62" fill="black">
<rect fill="white" width="57" height="62"/>
<path d="M28.4997 1C20.1342 1 13.3784 7.75318 13.3784 16.116V26.5601V34.3882C13.3784 42.751 20.1342 49.503 28.4997 49.503C36.8654 49.503 43.6208 42.751 43.6208 34.3882V26.5601V16.116C43.6208 7.75318 36.8654 1 28.4997 1ZM27.8625 2.31539C27.8544 2.35741 27.8505 2.40013 27.8508 2.44291V10.1168C27.851 10.2891 27.9196 10.4542 28.0416 10.576C28.1635 10.6977 28.3288 10.7661 28.5011 10.7661C28.6734 10.7661 28.8386 10.6977 28.9605 10.576C29.0825 10.4542 29.1511 10.2891 29.1514 10.1168V2.44291C29.1516 2.40052 29.1476 2.3582 29.1396 2.31657C30.2427 2.36289 31.3107 2.54259 32.3298 2.83335V12.6754C32.3266 12.7627 32.341 12.8497 32.3722 12.9313C32.4035 13.013 32.4508 13.0875 32.5115 13.1504C32.5721 13.2133 32.6448 13.2633 32.7252 13.2975C32.8057 13.3317 32.8922 13.3493 32.9795 13.3493C33.0669 13.3493 33.1534 13.3317 33.2338 13.2975C33.3143 13.2633 33.387 13.2133 33.4476 13.1504C33.5083 13.0875 33.5556 13.013 33.5868 12.9313C33.618 12.8497 33.6325 12.7627 33.6293 12.6754V3.2749C38.7354 5.29962 42.3192 10.2671 42.3192 16.1169V25.9113H32.8253C32.4974 23.7768 30.7228 22.1044 28.4987 22.1044C26.2747 22.1044 24.5003 23.7768 24.1718 25.9113H14.678V16.1169C14.678 10.2672 18.262 5.29974 23.368 3.2749V12.6754C23.3664 12.7617 23.3821 12.8475 23.4141 12.9277C23.4461 13.008 23.4937 13.081 23.5542 13.1427C23.6147 13.2043 23.6869 13.2532 23.7666 13.2866C23.8462 13.32 23.9317 13.3372 24.0181 13.3372C24.1045 13.3372 24.19 13.32 24.2696 13.2866C24.3492 13.2532 24.4214 13.2043 24.482 13.1427C24.5425 13.081 24.5901 13.008 24.6221 12.9277C24.6541 12.8475 24.6697 12.7617 24.6682 12.6754V2.8331C25.6878 2.54227 26.7574 2.36615 27.8613 2.31632L27.8625 2.31539ZM5.10811 5.20175C4.93919 5.20553 4.77837 5.27489 4.65973 5.3952C2.4007 7.62189 1 10.7063 1 14.1053C1 17.5042 2.4007 20.589 4.65973 22.8157C4.72051 22.8761 4.79259 22.9238 4.87187 22.9562C4.95115 22.9887 5.03606 23.0051 5.12171 23.0047C5.20736 23.0042 5.29206 22.9868 5.37097 22.9535C5.44989 22.9202 5.52146 22.8716 5.58156 22.8106C5.64167 22.7496 5.68912 22.6773 5.72122 22.5979C5.75331 22.5185 5.76942 22.4335 5.76861 22.3479C5.76779 22.2623 5.75006 22.1776 5.71645 22.0988C5.68284 22.0201 5.63399 21.9487 5.57273 21.8888C3.54925 19.8942 2.30072 17.1477 2.30072 14.1053C2.30072 11.0628 3.54925 8.31557 5.57273 6.32108C5.66759 6.23055 5.73287 6.11345 5.75998 5.98515C5.7871 5.85685 5.77479 5.72335 5.72466 5.60218C5.67454 5.481 5.58895 5.37782 5.47912 5.30616C5.3693 5.23451 5.24037 5.19773 5.10927 5.20067L5.10811 5.20175ZM51.8723 5.20175C51.7428 5.20257 51.6165 5.24204 51.5096 5.31512C51.4026 5.38821 51.32 5.49158 51.2722 5.61196C51.2244 5.73234 51.2136 5.86423 51.2413 5.99076C51.2689 6.11729 51.3337 6.2327 51.4274 6.32215C53.4509 8.31664 54.6994 11.0639 54.6994 14.1064C54.6994 17.1488 53.4509 19.8952 51.4274 21.8898C51.3663 21.9497 51.3177 22.0211 51.2842 22.0998C51.2507 22.1786 51.2331 22.2631 51.2324 22.3487C51.2316 22.4342 51.2478 22.5191 51.2799 22.5984C51.312 22.6777 51.3594 22.7499 51.4194 22.8108C51.4795 22.8718 51.5509 22.9203 51.6297 22.9536C51.7085 22.9869 51.7931 23.0043 51.8787 23.0049C51.9642 23.0054 52.0491 22.9891 52.1283 22.9568C52.2075 22.9245 52.2796 22.8769 52.3404 22.8168C54.5994 20.5901 56.0001 17.5053 56 14.1064C56 10.7074 54.5994 7.62296 52.3404 5.39627C52.2793 5.33434 52.2064 5.28532 52.126 5.25208C52.0456 5.21885 51.9593 5.20207 51.8723 5.20278V5.20175ZM7.68263 7.73975C7.51387 7.74322 7.35307 7.81218 7.23424 7.93206C5.63403 9.50932 4.6414 11.6973 4.6414 14.1053C4.6414 16.5133 5.63436 18.7004 7.23424 20.2777C7.29469 20.3392 7.36677 20.388 7.44629 20.4214C7.5258 20.4548 7.61116 20.472 7.69739 20.4721C7.78363 20.4721 7.869 20.4551 7.94857 20.4218C8.02814 20.3886 8.1003 20.3398 8.16085 20.2784C8.2214 20.217 8.26913 20.1442 8.30127 20.0642C8.33341 19.9842 8.34932 19.8985 8.34806 19.8123C8.34679 19.7261 8.32837 19.641 8.2939 19.562C8.25943 19.4829 8.20958 19.4115 8.14725 19.3519C6.78259 18.0067 5.94128 16.1568 5.94128 14.1054C5.94128 12.0539 6.78247 10.2032 8.14725 8.85805C8.24169 8.76744 8.30659 8.65043 8.33345 8.52234C8.36032 8.39425 8.34792 8.26103 8.29785 8.14011C8.24777 8.01919 8.16237 7.9162 8.05281 7.8446C7.94325 7.773 7.81464 7.7361 7.68379 7.73879L7.68263 7.73975ZM49.2978 7.73975C49.1685 7.74081 49.0425 7.78039 48.9359 7.85341C48.8292 7.92644 48.7467 8.02962 48.6989 8.14975C48.6512 8.26988 48.6403 8.4015 48.6678 8.52784C48.6952 8.65417 48.7596 8.76949 48.8529 8.85901C50.2175 10.2042 51.0588 12.0549 51.0588 14.1064C51.0588 16.1578 50.2176 18.0077 48.8529 19.3529C48.7906 19.4125 48.7407 19.4839 48.7062 19.5629C48.6718 19.6419 48.6534 19.7271 48.6521 19.8133C48.6508 19.8995 48.6667 19.9851 48.6989 20.0651C48.731 20.1452 48.7787 20.218 48.8393 20.2794C48.8998 20.3408 48.972 20.3895 49.0516 20.4228C49.1311 20.456 49.2165 20.4731 49.3027 20.473C49.389 20.473 49.4743 20.4558 49.5539 20.4224C49.6334 20.389 49.7055 20.3402 49.7659 20.2787C51.366 18.7014 52.3587 16.5142 52.3587 14.1063C52.3587 11.6983 51.3658 9.51027 49.7659 7.93299C49.7047 7.87127 49.6317 7.82247 49.5513 7.78944C49.4709 7.75641 49.3847 7.73982 49.2978 7.74068V7.73975ZM10.2561 10.2766C10.0876 10.2807 9.92723 10.3501 9.80887 10.4701C8.86804 11.3982 8.28189 12.6883 8.28189 14.1053C8.28189 15.5223 8.86699 16.8118 9.80887 17.7397C9.86932 17.8011 9.9414 17.85 10.0209 17.8834C10.1004 17.9167 10.1858 17.934 10.272 17.9341C10.3583 17.9341 10.4436 17.917 10.5232 17.8838C10.6028 17.8506 10.6749 17.8018 10.7355 17.7404C10.796 17.679 10.8438 17.6062 10.8759 17.5262C10.908 17.4462 10.924 17.3605 10.9227 17.2743C10.9214 17.1881 10.903 17.103 10.8685 17.0239C10.8341 16.9449 10.7842 16.8735 10.7219 16.8139C10.0162 16.1187 9.58291 15.166 9.58291 14.1054C9.58291 13.0453 10.0162 12.0917 10.7219 11.3961C10.8168 11.3055 10.8821 11.1883 10.9092 11.0598C10.9363 10.9314 10.9239 10.7978 10.8736 10.6766C10.8234 10.5554 10.7376 10.4522 10.6276 10.3806C10.5176 10.3091 10.3885 10.2725 10.2573 10.2757L10.2561 10.2766ZM46.7233 10.2766C46.5938 10.2774 46.4675 10.3169 46.3605 10.39C46.2536 10.4631 46.1709 10.5664 46.1231 10.6868C46.0753 10.8072 46.0646 10.9391 46.0922 11.0656C46.1199 11.1922 46.1847 11.3076 46.2784 11.397C46.984 12.0922 47.4173 13.0459 47.4173 14.1064C47.4173 15.1666 46.984 16.1192 46.2784 16.8149C46.2161 16.8745 46.1662 16.9458 46.1317 17.0249C46.0973 17.1039 46.0788 17.1891 46.0776 17.2753C46.0763 17.3615 46.0922 17.4471 46.1243 17.5271C46.1565 17.6072 46.2042 17.68 46.2648 17.7414C46.3253 17.8028 46.3975 17.8515 46.4771 17.8848C46.5566 17.918 46.642 17.9351 46.7282 17.935C46.8145 17.935 46.8998 17.9177 46.9794 17.8843C47.0589 17.851 47.1309 17.8021 47.1914 17.7406C48.1322 16.8125 48.7184 15.5232 48.7184 14.1063C48.7184 12.6893 48.1333 11.3989 47.1914 10.471C47.1303 10.4091 47.0574 10.3601 46.977 10.3268C46.8966 10.2936 46.8103 10.2768 46.7233 10.2775V10.2766ZM28.4998 23.4039C30.2518 23.4039 31.6581 24.8093 31.6581 26.5601C31.6581 28.311 30.2518 29.7172 28.4998 29.7172C26.748 29.7172 25.3415 28.311 25.3415 26.5601C25.3415 24.8093 26.748 23.4039 28.4998 23.4039ZM14.6791 27.2107H24.173C24.502 29.3449 26.276 31.0168 28.4998 31.0168C30.7237 31.0168 32.4979 29.3449 32.8265 27.2107H42.3204V34.3882C42.3204 42.0529 36.168 48.2025 28.4998 48.2025C20.8318 48.2025 14.6791 42.0529 14.6791 34.3882V27.2107ZM10.9727 34.0094C10.8004 34.0119 10.636 34.0828 10.5159 34.2064C10.3957 34.3301 10.3296 34.4963 10.332 34.6687C10.332 44.6591 18.351 52.7319 28.322 52.827V60.3629H23.8541C23.7665 60.3591 23.6789 60.3731 23.5968 60.404C23.5147 60.435 23.4397 60.4822 23.3763 60.5429C23.3129 60.6036 23.2625 60.6765 23.228 60.7572C23.1936 60.8379 23.1758 60.9247 23.1758 61.0125C23.1758 61.1002 23.1936 61.1871 23.228 61.2678C23.2625 61.3485 23.3129 61.4214 23.3763 61.4821C23.4397 61.5428 23.5147 61.59 23.5968 61.621C23.6789 61.6519 23.7665 61.6659 23.8541 61.6621H34.0901C34.1777 61.6659 34.2653 61.6519 34.3474 61.621C34.4295 61.59 34.5045 61.5428 34.5679 61.4821C34.6313 61.4214 34.6817 61.3485 34.7162 61.2678C34.7507 61.1871 34.7684 61.1002 34.7684 61.0125C34.7684 60.9247 34.7507 60.8379 34.7162 60.7572C34.6817 60.6765 34.6313 60.6036 34.5679 60.5429C34.5045 60.4822 34.4295 60.435 34.3474 60.404C34.2653 60.3731 34.1777 60.3591 34.0901 60.3629H29.6226V52.7937C39.1502 52.2167 46.6672 44.3414 46.6672 34.6687C46.6682 34.5827 46.6521 34.4973 46.6199 34.4175C46.5877 34.3377 46.54 34.2652 46.4795 34.204C46.419 34.1428 46.347 34.0942 46.2676 34.061C46.1882 34.0279 46.103 34.0108 46.017 34.0108C45.9309 34.0108 45.8458 34.0279 45.7664 34.061C45.687 34.0942 45.615 34.1428 45.5545 34.204C45.494 34.2652 45.4463 34.3377 45.414 34.4175C45.3818 34.4973 45.3657 34.5827 45.3667 34.6687C45.3667 44.0205 37.8556 51.5297 28.4997 51.5297C19.144 51.5297 11.6326 44.0205 11.6326 34.6687C11.6338 34.5817 11.6175 34.4953 11.5848 34.4147C11.552 34.3341 11.5034 34.2609 11.4418 34.1994C11.3802 34.1379 11.3069 34.0894 11.2262 34.0568C11.1456 34.0241 11.0592 34.0081 10.9721 34.0094H10.9727Z"/>
</mask>
<path d="M28.4997 1C20.1342 1 13.3784 7.75318 13.3784 16.116V26.5601V34.3882C13.3784 42.751 20.1342 49.503 28.4997 49.503C36.8654 49.503 43.6208 42.751 43.6208 34.3882V26.5601V16.116C43.6208 7.75318 36.8654 1 28.4997 1ZM27.8625 2.31539C27.8544 2.35741 27.8505 2.40013 27.8508 2.44291V10.1168C27.851 10.2891 27.9196 10.4542 28.0416 10.576C28.1635 10.6977 28.3288 10.7661 28.5011 10.7661C28.6734 10.7661 28.8386 10.6977 28.9605 10.576C29.0825 10.4542 29.1511 10.2891 29.1514 10.1168V2.44291C29.1516 2.40052 29.1476 2.3582 29.1396 2.31657C30.2427 2.36289 31.3107 2.54259 32.3298 2.83335V12.6754C32.3266 12.7627 32.341 12.8497 32.3722 12.9313C32.4035 13.013 32.4508 13.0875 32.5115 13.1504C32.5721 13.2133 32.6448 13.2633 32.7252 13.2975C32.8057 13.3317 32.8922 13.3493 32.9795 13.3493C33.0669 13.3493 33.1534 13.3317 33.2338 13.2975C33.3143 13.2633 33.387 13.2133 33.4476 13.1504C33.5083 13.0875 33.5556 13.013 33.5868 12.9313C33.618 12.8497 33.6325 12.7627 33.6293 12.6754V3.2749C38.7354 5.29962 42.3192 10.2671 42.3192 16.1169V25.9113H32.8253C32.4974 23.7768 30.7228 22.1044 28.4987 22.1044C26.2747 22.1044 24.5003 23.7768 24.1718 25.9113H14.678V16.1169C14.678 10.2672 18.262 5.29974 23.368 3.2749V12.6754C23.3664 12.7617 23.3821 12.8475 23.4141 12.9277C23.4461 13.008 23.4937 13.081 23.5542 13.1427C23.6147 13.2043 23.6869 13.2532 23.7666 13.2866C23.8462 13.32 23.9317 13.3372 24.0181 13.3372C24.1045 13.3372 24.19 13.32 24.2696 13.2866C24.3492 13.2532 24.4214 13.2043 24.482 13.1427C24.5425 13.081 24.5901 13.008 24.6221 12.9277C24.6541 12.8475 24.6697 12.7617 24.6682 12.6754V2.8331C25.6878 2.54227 26.7574 2.36615 27.8613 2.31632L27.8625 2.31539ZM5.10811 5.20175C4.93919 5.20553 4.77837 5.27489 4.65973 5.3952C2.4007 7.62189 1 10.7063 1 14.1053C1 17.5042 2.4007 20.589 4.65973 22.8157C4.72051 22.8761 4.79259 22.9238 4.87187 22.9562C4.95115 22.9887 5.03606 23.0051 5.12171 23.0047C5.20736 23.0042 5.29206 22.9868 5.37097 22.9535C5.44989 22.9202 5.52146 22.8716 5.58156 22.8106C5.64167 22.7496 5.68912 22.6773 5.72122 22.5979C5.75331 22.5185 5.76942 22.4335 5.76861 22.3479C5.76779 22.2623 5.75006 22.1776 5.71645 22.0988C5.68284 22.0201 5.63399 21.9487 5.57273 21.8888C3.54925 19.8942 2.30072 17.1477 2.30072 14.1053C2.30072 11.0628 3.54925 8.31557 5.57273 6.32108C5.66759 6.23055 5.73287 6.11345 5.75998 5.98515C5.7871 5.85685 5.77479 5.72335 5.72466 5.60218C5.67454 5.481 5.58895 5.37782 5.47912 5.30616C5.3693 5.23451 5.24037 5.19773 5.10927 5.20067L5.10811 5.20175ZM51.8723 5.20175C51.7428 5.20257 51.6165 5.24204 51.5096 5.31512C51.4026 5.38821 51.32 5.49158 51.2722 5.61196C51.2244 5.73234 51.2136 5.86423 51.2413 5.99076C51.2689 6.11729 51.3337 6.2327 51.4274 6.32215C53.4509 8.31664 54.6994 11.0639 54.6994 14.1064C54.6994 17.1488 53.4509 19.8952 51.4274 21.8898C51.3663 21.9497 51.3177 22.0211 51.2842 22.0998C51.2507 22.1786 51.2331 22.2631 51.2324 22.3487C51.2316 22.4342 51.2478 22.5191 51.2799 22.5984C51.312 22.6777 51.3594 22.7499 51.4194 22.8108C51.4795 22.8718 51.5509 22.9203 51.6297 22.9536C51.7085 22.9869 51.7931 23.0043 51.8787 23.0049C51.9642 23.0054 52.0491 22.9891 52.1283 22.9568C52.2075 22.9245 52.2796 22.8769 52.3404 22.8168C54.5994 20.5901 56.0001 17.5053 56 14.1064C56 10.7074 54.5994 7.62296 52.3404 5.39627C52.2793 5.33434 52.2064 5.28532 52.126 5.25208C52.0456 5.21885 51.9593 5.20207 51.8723 5.20278V5.20175ZM7.68263 7.73975C7.51387 7.74322 7.35307 7.81218 7.23424 7.93206C5.63403 9.50932 4.6414 11.6973 4.6414 14.1053C4.6414 16.5133 5.63436 18.7004 7.23424 20.2777C7.29469 20.3392 7.36677 20.388 7.44629 20.4214C7.5258 20.4548 7.61116 20.472 7.69739 20.4721C7.78363 20.4721 7.869 20.4551 7.94857 20.4218C8.02814 20.3886 8.1003 20.3398 8.16085 20.2784C8.2214 20.217 8.26913 20.1442 8.30127 20.0642C8.33341 19.9842 8.34932 19.8985 8.34806 19.8123C8.34679 19.7261 8.32837 19.641 8.2939 19.562C8.25943 19.4829 8.20958 19.4115 8.14725 19.3519C6.78259 18.0067 5.94128 16.1568 5.94128 14.1054C5.94128 12.0539 6.78247 10.2032 8.14725 8.85805C8.24169 8.76744 8.30659 8.65043 8.33345 8.52234C8.36032 8.39425 8.34792 8.26103 8.29785 8.14011C8.24777 8.01919 8.16237 7.9162 8.05281 7.8446C7.94325 7.773 7.81464 7.7361 7.68379 7.73879L7.68263 7.73975ZM49.2978 7.73975C49.1685 7.74081 49.0425 7.78039 48.9359 7.85341C48.8292 7.92644 48.7467 8.02962 48.6989 8.14975C48.6512 8.26988 48.6403 8.4015 48.6678 8.52784C48.6952 8.65417 48.7596 8.76949 48.8529 8.85901C50.2175 10.2042 51.0588 12.0549 51.0588 14.1064C51.0588 16.1578 50.2176 18.0077 48.8529 19.3529C48.7906 19.4125 48.7407 19.4839 48.7062 19.5629C48.6718 19.6419 48.6534 19.7271 48.6521 19.8133C48.6508 19.8995 48.6667 19.9851 48.6989 20.0651C48.731 20.1452 48.7787 20.218 48.8393 20.2794C48.8998 20.3408 48.972 20.3895 49.0516 20.4228C49.1311 20.456 49.2165 20.4731 49.3027 20.473C49.389 20.473 49.4743 20.4558 49.5539 20.4224C49.6334 20.389 49.7055 20.3402 49.7659 20.2787C51.366 18.7014 52.3587 16.5142 52.3587 14.1063C52.3587 11.6983 51.3658 9.51027 49.7659 7.93299C49.7047 7.87127 49.6317 7.82247 49.5513 7.78944C49.4709 7.75641 49.3847 7.73982 49.2978 7.74068V7.73975ZM10.2561 10.2766C10.0876 10.2807 9.92723 10.3501 9.80887 10.4701C8.86804 11.3982 8.28189 12.6883 8.28189 14.1053C8.28189 15.5223 8.86699 16.8118 9.80887 17.7397C9.86932 17.8011 9.9414 17.85 10.0209 17.8834C10.1004 17.9167 10.1858 17.934 10.272 17.9341C10.3583 17.9341 10.4436 17.917 10.5232 17.8838C10.6028 17.8506 10.6749 17.8018 10.7355 17.7404C10.796 17.679 10.8438 17.6062 10.8759 17.5262C10.908 17.4462 10.924 17.3605 10.9227 17.2743C10.9214 17.1881 10.903 17.103 10.8685 17.0239C10.8341 16.9449 10.7842 16.8735 10.7219 16.8139C10.0162 16.1187 9.58291 15.166 9.58291 14.1054C9.58291 13.0453 10.0162 12.0917 10.7219 11.3961C10.8168 11.3055 10.8821 11.1883 10.9092 11.0598C10.9363 10.9314 10.9239 10.7978 10.8736 10.6766C10.8234 10.5554 10.7376 10.4522 10.6276 10.3806C10.5176 10.3091 10.3885 10.2725 10.2573 10.2757L10.2561 10.2766ZM46.7233 10.2766C46.5938 10.2774 46.4675 10.3169 46.3605 10.39C46.2536 10.4631 46.1709 10.5664 46.1231 10.6868C46.0753 10.8072 46.0646 10.9391 46.0922 11.0656C46.1199 11.1922 46.1847 11.3076 46.2784 11.397C46.984 12.0922 47.4173 13.0459 47.4173 14.1064C47.4173 15.1666 46.984 16.1192 46.2784 16.8149C46.2161 16.8745 46.1662 16.9458 46.1317 17.0249C46.0973 17.1039 46.0788 17.1891 46.0776 17.2753C46.0763 17.3615 46.0922 17.4471 46.1243 17.5271C46.1565 17.6072 46.2042 17.68 46.2648 17.7414C46.3253 17.8028 46.3975 17.8515 46.4771 17.8848C46.5566 17.918 46.642 17.9351 46.7282 17.935C46.8145 17.935 46.8998 17.9177 46.9794 17.8843C47.0589 17.851 47.1309 17.8021 47.1914 17.7406C48.1322 16.8125 48.7184 15.5232 48.7184 14.1063C48.7184 12.6893 48.1333 11.3989 47.1914 10.471C47.1303 10.4091 47.0574 10.3601 46.977 10.3268C46.8966 10.2936 46.8103 10.2768 46.7233 10.2775V10.2766ZM28.4998 23.4039C30.2518 23.4039 31.6581 24.8093 31.6581 26.5601C31.6581 28.311 30.2518 29.7172 28.4998 29.7172C26.748 29.7172 25.3415 28.311 25.3415 26.5601C25.3415 24.8093 26.748 23.4039 28.4998 23.4039ZM14.6791 27.2107H24.173C24.502 29.3449 26.276 31.0168 28.4998 31.0168C30.7237 31.0168 32.4979 29.3449 32.8265 27.2107H42.3204V34.3882C42.3204 42.0529 36.168 48.2025 28.4998 48.2025C20.8318 48.2025 14.6791 42.0529 14.6791 34.3882V27.2107ZM10.9727 34.0094C10.8004 34.0119 10.636 34.0828 10.5159 34.2064C10.3957 34.3301 10.3296 34.4963 10.332 34.6687C10.332 44.6591 18.351 52.7319 28.322 52.827V60.3629H23.8541C23.7665 60.3591 23.6789 60.3731 23.5968 60.404C23.5147 60.435 23.4397 60.4822 23.3763 60.5429C23.3129 60.6036 23.2625 60.6765 23.228 60.7572C23.1936 60.8379 23.1758 60.9247 23.1758 61.0125C23.1758 61.1002 23.1936 61.1871 23.228 61.2678C23.2625 61.3485 23.3129 61.4214 23.3763 61.4821C23.4397 61.5428 23.5147 61.59 23.5968 61.621C23.6789 61.6519 23.7665 61.6659 23.8541 61.6621H34.0901C34.1777 61.6659 34.2653 61.6519 34.3474 61.621C34.4295 61.59 34.5045 61.5428 34.5679 61.4821C34.6313 61.4214 34.6817 61.3485 34.7162 61.2678C34.7507 61.1871 34.7684 61.1002 34.7684 61.0125C34.7684 60.9247 34.7507 60.8379 34.7162 60.7572C34.6817 60.6765 34.6313 60.6036 34.5679 60.5429C34.5045 60.4822 34.4295 60.435 34.3474 60.404C34.2653 60.3731 34.1777 60.3591 34.0901 60.3629H29.6226V52.7937C39.1502 52.2167 46.6672 44.3414 46.6672 34.6687C46.6682 34.5827 46.6521 34.4973 46.6199 34.4175C46.5877 34.3377 46.54 34.2652 46.4795 34.204C46.419 34.1428 46.347 34.0942 46.2676 34.061C46.1882 34.0279 46.103 34.0108 46.017 34.0108C45.9309 34.0108 45.8458 34.0279 45.7664 34.061C45.687 34.0942 45.615 34.1428 45.5545 34.204C45.494 34.2652 45.4463 34.3377 45.414 34.4175C45.3818 34.4973 45.3657 34.5827 45.3667 34.6687C45.3667 44.0205 37.8556 51.5297 28.4997 51.5297C19.144 51.5297 11.6326 44.0205 11.6326 34.6687C11.6338 34.5817 11.6175 34.4953 11.5848 34.4147C11.552 34.3341 11.5034 34.2609 11.4418 34.1994C11.3802 34.1379 11.3069 34.0894 11.2262 34.0568C11.1456 34.0241 11.0592 34.0081 10.9721 34.0094H10.9727Z" fill="white"/>
<path d="M28.4997 1C20.1342 1 13.3784 7.75318 13.3784 16.116V26.5601V34.3882C13.3784 42.751 20.1342 49.503 28.4997 49.503C36.8654 49.503 43.6208 42.751 43.6208 34.3882V26.5601V16.116C43.6208 7.75318 36.8654 1 28.4997 1ZM27.8625 2.31539C27.8544 2.35741 27.8505 2.40013 27.8508 2.44291V10.1168C27.851 10.2891 27.9196 10.4542 28.0416 10.576C28.1635 10.6977 28.3288 10.7661 28.5011 10.7661C28.6734 10.7661 28.8386 10.6977 28.9605 10.576C29.0825 10.4542 29.1511 10.2891 29.1514 10.1168V2.44291C29.1516 2.40052 29.1476 2.3582 29.1396 2.31657C30.2427 2.36289 31.3107 2.54259 32.3298 2.83335V12.6754C32.3266 12.7627 32.341 12.8497 32.3722 12.9313C32.4035 13.013 32.4508 13.0875 32.5115 13.1504C32.5721 13.2133 32.6448 13.2633 32.7252 13.2975C32.8057 13.3317 32.8922 13.3493 32.9795 13.3493C33.0669 13.3493 33.1534 13.3317 33.2338 13.2975C33.3143 13.2633 33.387 13.2133 33.4476 13.1504C33.5083 13.0875 33.5556 13.013 33.5868 12.9313C33.618 12.8497 33.6325 12.7627 33.6293 12.6754V3.2749C38.7354 5.29962 42.3192 10.2671 42.3192 16.1169V25.9113H32.8253C32.4974 23.7768 30.7228 22.1044 28.4987 22.1044C26.2747 22.1044 24.5003 23.7768 24.1718 25.9113H14.678V16.1169C14.678 10.2672 18.262 5.29974 23.368 3.2749V12.6754C23.3664 12.7617 23.3821 12.8475 23.4141 12.9277C23.4461 13.008 23.4937 13.081 23.5542 13.1427C23.6147 13.2043 23.6869 13.2532 23.7666 13.2866C23.8462 13.32 23.9317 13.3372 24.0181 13.3372C24.1045 13.3372 24.19 13.32 24.2696 13.2866C24.3492 13.2532 24.4214 13.2043 24.482 13.1427C24.5425 13.081 24.5901 13.008 24.6221 12.9277C24.6541 12.8475 24.6697 12.7617 24.6682 12.6754V2.8331C25.6878 2.54227 26.7574 2.36615 27.8613 2.31632L27.8625 2.31539ZM5.10811 5.20175C4.93919 5.20553 4.77837 5.27489 4.65973 5.3952C2.4007 7.62189 1 10.7063 1 14.1053C1 17.5042 2.4007 20.589 4.65973 22.8157C4.72051 22.8761 4.79259 22.9238 4.87187 22.9562C4.95115 22.9887 5.03606 23.0051 5.12171 23.0047C5.20736 23.0042 5.29206 22.9868 5.37097 22.9535C5.44989 22.9202 5.52146 22.8716 5.58156 22.8106C5.64167 22.7496 5.68912 22.6773 5.72122 22.5979C5.75331 22.5185 5.76942 22.4335 5.76861 22.3479C5.76779 22.2623 5.75006 22.1776 5.71645 22.0988C5.68284 22.0201 5.63399 21.9487 5.57273 21.8888C3.54925 19.8942 2.30072 17.1477 2.30072 14.1053C2.30072 11.0628 3.54925 8.31557 5.57273 6.32108C5.66759 6.23055 5.73287 6.11345 5.75998 5.98515C5.7871 5.85685 5.77479 5.72335 5.72466 5.60218C5.67454 5.481 5.58895 5.37782 5.47912 5.30616C5.3693 5.23451 5.24037 5.19773 5.10927 5.20067L5.10811 5.20175ZM51.8723 5.20175C51.7428 5.20257 51.6165 5.24204 51.5096 5.31512C51.4026 5.38821 51.32 5.49158 51.2722 5.61196C51.2244 5.73234 51.2136 5.86423 51.2413 5.99076C51.2689 6.11729 51.3337 6.2327 51.4274 6.32215C53.4509 8.31664 54.6994 11.0639 54.6994 14.1064C54.6994 17.1488 53.4509 19.8952 51.4274 21.8898C51.3663 21.9497 51.3177 22.0211 51.2842 22.0998C51.2507 22.1786 51.2331 22.2631 51.2324 22.3487C51.2316 22.4342 51.2478 22.5191 51.2799 22.5984C51.312 22.6777 51.3594 22.7499 51.4194 22.8108C51.4795 22.8718 51.5509 22.9203 51.6297 22.9536C51.7085 22.9869 51.7931 23.0043 51.8787 23.0049C51.9642 23.0054 52.0491 22.9891 52.1283 22.9568C52.2075 22.9245 52.2796 22.8769 52.3404 22.8168C54.5994 20.5901 56.0001 17.5053 56 14.1064C56 10.7074 54.5994 7.62296 52.3404 5.39627C52.2793 5.33434 52.2064 5.28532 52.126 5.25208C52.0456 5.21885 51.9593 5.20207 51.8723 5.20278V5.20175ZM7.68263 7.73975C7.51387 7.74322 7.35307 7.81218 7.23424 7.93206C5.63403 9.50932 4.6414 11.6973 4.6414 14.1053C4.6414 16.5133 5.63436 18.7004 7.23424 20.2777C7.29469 20.3392 7.36677 20.388 7.44629 20.4214C7.5258 20.4548 7.61116 20.472 7.69739 20.4721C7.78363 20.4721 7.869 20.4551 7.94857 20.4218C8.02814 20.3886 8.1003 20.3398 8.16085 20.2784C8.2214 20.217 8.26913 20.1442 8.30127 20.0642C8.33341 19.9842 8.34932 19.8985 8.34806 19.8123C8.34679 19.7261 8.32837 19.641 8.2939 19.562C8.25943 19.4829 8.20958 19.4115 8.14725 19.3519C6.78259 18.0067 5.94128 16.1568 5.94128 14.1054C5.94128 12.0539 6.78247 10.2032 8.14725 8.85805C8.24169 8.76744 8.30659 8.65043 8.33345 8.52234C8.36032 8.39425 8.34792 8.26103 8.29785 8.14011C8.24777 8.01919 8.16237 7.9162 8.05281 7.8446C7.94325 7.773 7.81464 7.7361 7.68379 7.73879L7.68263 7.73975ZM49.2978 7.73975C49.1685 7.74081 49.0425 7.78039 48.9359 7.85341C48.8292 7.92644 48.7467 8.02962 48.6989 8.14975C48.6512 8.26988 48.6403 8.4015 48.6678 8.52784C48.6952 8.65417 48.7596 8.76949 48.8529 8.85901C50.2175 10.2042 51.0588 12.0549 51.0588 14.1064C51.0588 16.1578 50.2176 18.0077 48.8529 19.3529C48.7906 19.4125 48.7407 19.4839 48.7062 19.5629C48.6718 19.6419 48.6534 19.7271 48.6521 19.8133C48.6508 19.8995 48.6667 19.9851 48.6989 20.0651C48.731 20.1452 48.7787 20.218 48.8393 20.2794C48.8998 20.3408 48.972 20.3895 49.0516 20.4228C49.1311 20.456 49.2165 20.4731 49.3027 20.473C49.389 20.473 49.4743 20.4558 49.5539 20.4224C49.6334 20.389 49.7055 20.3402 49.7659 20.2787C51.366 18.7014 52.3587 16.5142 52.3587 14.1063C52.3587 11.6983 51.3658 9.51027 49.7659 7.93299C49.7047 7.87127 49.6317 7.82247 49.5513 7.78944C49.4709 7.75641 49.3847 7.73982 49.2978 7.74068V7.73975ZM10.2561 10.2766C10.0876 10.2807 9.92723 10.3501 9.80887 10.4701C8.86804 11.3982 8.28189 12.6883 8.28189 14.1053C8.28189 15.5223 8.86699 16.8118 9.80887 17.7397C9.86932 17.8011 9.9414 17.85 10.0209 17.8834C10.1004 17.9167 10.1858 17.934 10.272 17.9341C10.3583 17.9341 10.4436 17.917 10.5232 17.8838C10.6028 17.8506 10.6749 17.8018 10.7355 17.7404C10.796 17.679 10.8438 17.6062 10.8759 17.5262C10.908 17.4462 10.924 17.3605 10.9227 17.2743C10.9214 17.1881 10.903 17.103 10.8685 17.0239C10.8341 16.9449 10.7842 16.8735 10.7219 16.8139C10.0162 16.1187 9.58291 15.166 9.58291 14.1054C9.58291 13.0453 10.0162 12.0917 10.7219 11.3961C10.8168 11.3055 10.8821 11.1883 10.9092 11.0598C10.9363 10.9314 10.9239 10.7978 10.8736 10.6766C10.8234 10.5554 10.7376 10.4522 10.6276 10.3806C10.5176 10.3091 10.3885 10.2725 10.2573 10.2757L10.2561 10.2766ZM46.7233 10.2766C46.5938 10.2774 46.4675 10.3169 46.3605 10.39C46.2536 10.4631 46.1709 10.5664 46.1231 10.6868C46.0753 10.8072 46.0646 10.9391 46.0922 11.0656C46.1199 11.1922 46.1847 11.3076 46.2784 11.397C46.984 12.0922 47.4173 13.0459 47.4173 14.1064C47.4173 15.1666 46.984 16.1192 46.2784 16.8149C46.2161 16.8745 46.1662 16.9458 46.1317 17.0249C46.0973 17.1039 46.0788 17.1891 46.0776 17.2753C46.0763 17.3615 46.0922 17.4471 46.1243 17.5271C46.1565 17.6072 46.2042 17.68 46.2648 17.7414C46.3253 17.8028 46.3975 17.8515 46.4771 17.8848C46.5566 17.918 46.642 17.9351 46.7282 17.935C46.8145 17.935 46.8998 17.9177 46.9794 17.8843C47.0589 17.851 47.1309 17.8021 47.1914 17.7406C48.1322 16.8125 48.7184 15.5232 48.7184 14.1063C48.7184 12.6893 48.1333 11.3989 47.1914 10.471C47.1303 10.4091 47.0574 10.3601 46.977 10.3268C46.8966 10.2936 46.8103 10.2768 46.7233 10.2775V10.2766ZM28.4998 23.4039C30.2518 23.4039 31.6581 24.8093 31.6581 26.5601C31.6581 28.311 30.2518 29.7172 28.4998 29.7172C26.748 29.7172 25.3415 28.311 25.3415 26.5601C25.3415 24.8093 26.748 23.4039 28.4998 23.4039ZM14.6791 27.2107H24.173C24.502 29.3449 26.276 31.0168 28.4998 31.0168C30.7237 31.0168 32.4979 29.3449 32.8265 27.2107H42.3204V34.3882C42.3204 42.0529 36.168 48.2025 28.4998 48.2025C20.8318 48.2025 14.6791 42.0529 14.6791 34.3882V27.2107ZM10.9727 34.0094C10.8004 34.0119 10.636 34.0828 10.5159 34.2064C10.3957 34.3301 10.3296 34.4963 10.332 34.6687C10.332 44.6591 18.351 52.7319 28.322 52.827V60.3629H23.8541C23.7665 60.3591 23.6789 60.3731 23.5968 60.404C23.5147 60.435 23.4397 60.4822 23.3763 60.5429C23.3129 60.6036 23.2625 60.6765 23.228 60.7572C23.1936 60.8379 23.1758 60.9247 23.1758 61.0125C23.1758 61.1002 23.1936 61.1871 23.228 61.2678C23.2625 61.3485 23.3129 61.4214 23.3763 61.4821C23.4397 61.5428 23.5147 61.59 23.5968 61.621C23.6789 61.6519 23.7665 61.6659 23.8541 61.6621H34.0901C34.1777 61.6659 34.2653 61.6519 34.3474 61.621C34.4295 61.59 34.5045 61.5428 34.5679 61.4821C34.6313 61.4214 34.6817 61.3485 34.7162 61.2678C34.7507 61.1871 34.7684 61.1002 34.7684 61.0125C34.7684 60.9247 34.7507 60.8379 34.7162 60.7572C34.6817 60.6765 34.6313 60.6036 34.5679 60.5429C34.5045 60.4822 34.4295 60.435 34.3474 60.404C34.2653 60.3731 34.1777 60.3591 34.0901 60.3629H29.6226V52.7937C39.1502 52.2167 46.6672 44.3414 46.6672 34.6687C46.6682 34.5827 46.6521 34.4973 46.6199 34.4175C46.5877 34.3377 46.54 34.2652 46.4795 34.204C46.419 34.1428 46.347 34.0942 46.2676 34.061C46.1882 34.0279 46.103 34.0108 46.017 34.0108C45.9309 34.0108 45.8458 34.0279 45.7664 34.061C45.687 34.0942 45.615 34.1428 45.5545 34.204C45.494 34.2652 45.4463 34.3377 45.414 34.4175C45.3818 34.4973 45.3657 34.5827 45.3667 34.6687C45.3667 44.0205 37.8556 51.5297 28.4997 51.5297C19.144 51.5297 11.6326 44.0205 11.6326 34.6687C11.6338 34.5817 11.6175 34.4953 11.5848 34.4147C11.552 34.3341 11.5034 34.2609 11.4418 34.1994C11.3802 34.1379 11.3069 34.0894 11.2262 34.0568C11.1456 34.0241 11.0592 34.0081 10.9721 34.0094H10.9727Z" stroke="white" stroke-width="0.6" mask="url(#path-1-outside-1)"/>
</svg>
