<svg width="17" height="22" viewBox="0 0 17 22" fill="none" xmlns="http://www.w3.org/2000/svg">
<path d="M15.3894 4.6L15.3893 4.60032C15.5971 4.61394 15.7918 4.70618 15.934 4.85827C16.0761 5.01037 16.155 5.21089 16.1545 5.41907M15.3894 4.6L16.0045 5.41875M15.3894 4.6H15.3795H3.41812C3.27923 4.59789 3.1422 4.56775 3.01524 4.51137C2.88797 4.45485 2.77346 4.37314 2.67862 4.27116C2.58378 4.16919 2.51058 4.04906 2.46343 3.91803C2.41628 3.78699 2.39616 3.64777 2.40428 3.50875L2.40456 3.50876L2.40453 3.49963C2.40385 3.22076 2.50911 2.95203 2.69903 2.74782C2.88779 2.54485 3.14618 2.42067 3.42246 2.4M15.3894 4.6L3.42246 2.4M16.1545 5.41907L16.0045 5.41875M16.1545 5.41907V5.41875H16.0045M16.1545 5.41907V5.475V5.53125V20.375C16.1545 20.5805 16.0729 20.7777 15.9275 20.923C15.7822 21.0683 15.5851 21.15 15.3795 21.15H3.41703H3.41178L3.41178 21.1499C2.72516 21.1259 2.07471 20.8361 1.59763 20.3417C1.12055 19.8473 0.854127 19.187 0.854535 18.5M16.0045 5.41875V5.475V5.53125V20.375C16.0045 20.5408 15.9387 20.6997 15.8215 20.8169C15.7043 20.9342 15.5453 21 15.3795 21H3.41703C2.76928 20.9773 2.15565 20.7039 1.70557 20.2375C1.25549 19.7711 1.00414 19.1482 1.00453 18.5M0.854535 18.5H1.00453M0.854535 18.5L0.854535 3.9648C0.848675 3.91076 0.848517 3.85625 0.854062 3.80219C0.848492 3.70007 0.84865 3.59771 0.854536 3.4956C0.855276 2.81017 1.12158 2.15162 1.59763 1.6583C2.07471 1.16391 2.72516 0.874138 3.41178 0.850092L3.41703 0.849908V0.85H15.3795C15.5851 0.85 15.7822 0.931651 15.9275 1.07699C16.0729 1.22233 16.1545 1.41946 16.1545 1.625C16.1545 1.83054 16.0729 2.02767 15.9275 2.17301C15.7822 2.31835 15.5851 2.4 15.3795 2.4H3.42246M0.854535 18.5C0.854535 18.5 0.854535 18.4999 0.854535 18.4999L1.00453 18.5M1.00453 18.5L3.42246 2.4M2.40453 18.5004V18.5V5.95836C2.72413 6.09416 3.07017 6.15993 3.4192 6.15H14.6045V19.6H3.42246C3.14618 19.5793 2.88779 19.4551 2.69903 19.2522C2.50911 19.048 2.40385 18.7792 2.40453 18.5004Z" fill="white" stroke="white" stroke-width="0.3"/>
</svg>
