<svg width="61" height="13" viewBox="0 0 61 13" fill="none" xmlns="http://www.w3.org/2000/svg">
<path d="M0.76 12C0.653333 12 0.562667 11.968 0.488 11.904C0.424 11.8293 0.392 11.7387 0.392 11.632V1.184C0.392 1.06667 0.424 0.976 0.488 0.912C0.562667 0.837333 0.653333 0.799999 0.76 0.799999H1.56C1.73067 0.799999 1.86933 0.885333 1.976 1.056L5.352 7.52L8.76 1.056C8.78133 0.991999 8.824 0.933332 8.888 0.879999C8.96267 0.826666 9.05333 0.799999 9.16 0.799999H9.944C10.0613 0.799999 10.152 0.837333 10.216 0.912C10.2907 0.976 10.328 1.06667 10.328 1.184V11.632C10.328 11.7387 10.2907 11.8293 10.216 11.904C10.1413 11.968 10.0507 12 9.944 12H9.16C9.05333 12 8.96267 11.968 8.888 11.904C8.824 11.8293 8.792 11.7387 8.792 11.632V3.76L6.12 8.976C6.01333 9.2 5.84267 9.312 5.608 9.312H5.112C4.87733 9.312 4.70667 9.2 4.6 8.976L1.912 3.76V11.632C1.912 11.7387 1.87467 11.8293 1.8 11.904C1.736 11.968 1.65067 12 1.544 12H0.76ZM16.2951 12.16C15.1218 12.16 14.2098 11.8293 13.5591 11.168C12.9191 10.5067 12.5778 9.62667 12.5351 8.528L12.5191 7.84L12.5351 7.152C12.5778 6.064 12.9245 5.18933 13.5751 4.528C14.2258 3.856 15.1325 3.52 16.2951 3.52C17.4578 3.52 18.3645 3.856 19.0151 4.528C19.6658 5.18933 20.0125 6.064 20.0551 7.152C20.0658 7.26933 20.0711 7.49867 20.0711 7.84C20.0711 8.18133 20.0658 8.41067 20.0551 8.528C20.0125 9.62667 19.6658 10.5067 19.0151 11.168C18.3751 11.8293 17.4685 12.16 16.2951 12.16ZM16.2951 10.928C16.9671 10.928 17.4951 10.7147 17.8791 10.288C18.2738 9.86133 18.4871 9.248 18.5191 8.448C18.5298 8.34133 18.5351 8.13867 18.5351 7.84C18.5351 7.54133 18.5298 7.33867 18.5191 7.232C18.4871 6.432 18.2738 5.81867 17.8791 5.392C17.4951 4.96533 16.9671 4.752 16.2951 4.752C15.6231 4.752 15.0898 4.96533 14.6951 5.392C14.3005 5.81867 14.0925 6.432 14.0711 7.232L14.0551 7.84L14.0711 8.448C14.0925 9.248 14.3005 9.86133 14.6951 10.288C15.0898 10.7147 15.6231 10.928 16.2951 10.928ZM15.8151 2.48C15.6445 2.48 15.5591 2.39467 15.5591 2.224C15.5591 2.13867 15.5858 2.06933 15.6391 2.016L16.8391 0.575999C16.9458 0.458666 17.0311 0.378666 17.0951 0.335999C17.1698 0.293333 17.2818 0.271999 17.4311 0.271999H18.5191C18.6151 0.271999 18.6898 0.303999 18.7431 0.367999C18.7965 0.421332 18.8231 0.495999 18.8231 0.591999C18.8231 0.666666 18.7965 0.730666 18.7431 0.783999L16.8871 2.304C16.8018 2.37867 16.7218 2.42667 16.6471 2.448C16.5725 2.46933 16.4765 2.48 16.3591 2.48H15.8151ZM25.1146 12.16C24.0053 12.16 23.168 11.7973 22.6026 11.072C22.0373 10.3467 21.7386 9.42933 21.7066 8.32L21.6906 7.84L21.7066 7.36C21.7386 6.26133 22.0373 5.34933 22.6026 4.624C23.168 3.888 24.0053 3.52 25.1146 3.52C26.2133 3.52 27.0773 3.90933 27.7066 4.688V1.008C27.7066 0.901333 27.7386 0.816 27.8026 0.752C27.8773 0.677333 27.968 0.639999 28.0746 0.639999H28.8426C28.9493 0.639999 29.0346 0.677333 29.0986 0.752C29.1733 0.816 29.2106 0.901333 29.2106 1.008V11.632C29.2106 11.7387 29.1733 11.8293 29.0986 11.904C29.0346 11.968 28.9493 12 28.8426 12H28.1226C28.016 12 27.9253 11.968 27.8506 11.904C27.7866 11.8293 27.7546 11.7387 27.7546 11.632V10.96C27.136 11.76 26.256 12.16 25.1146 12.16ZM25.4506 10.864C26.1866 10.864 26.736 10.624 27.0986 10.144C27.472 9.65333 27.6746 9.072 27.7066 8.4C27.7173 8.28267 27.7226 8.08 27.7226 7.792C27.7226 7.49333 27.7173 7.28533 27.7066 7.168C27.6853 6.53867 27.4826 5.98933 27.0986 5.52C26.7146 5.05067 26.1653 4.816 25.4506 4.816C24.6933 4.816 24.1386 5.05067 23.7866 5.52C23.4453 5.98933 23.2586 6.608 23.2266 7.376L23.2106 7.84C23.2106 9.856 23.9573 10.864 25.4506 10.864ZM34.6943 12.16C33.6809 12.16 32.8969 11.8347 32.3423 11.184C31.7876 10.5227 31.5103 9.648 31.5103 8.56V4.048C31.5103 3.94133 31.5423 3.856 31.6063 3.792C31.6809 3.71733 31.7716 3.68 31.8783 3.68H32.6783C32.7849 3.68 32.8703 3.71733 32.9343 3.792C33.0089 3.856 33.0463 3.94133 33.0463 4.048V8.48C33.0463 10.0693 33.7396 10.864 35.1263 10.864C35.7983 10.864 36.3316 10.656 36.7263 10.24C37.1209 9.81333 37.3183 9.22667 37.3183 8.48V4.048C37.3183 3.94133 37.3503 3.856 37.4143 3.792C37.4889 3.71733 37.5796 3.68 37.6863 3.68H38.4862C38.5929 3.68 38.6783 3.71733 38.7423 3.792C38.8063 3.856 38.8383 3.94133 38.8383 4.048V11.632C38.8383 11.7387 38.8063 11.8293 38.7423 11.904C38.6783 11.968 38.5929 12 38.4862 12H37.7343C37.6276 12 37.5369 11.968 37.4623 11.904C37.3983 11.8293 37.3663 11.7387 37.3663 11.632V10.928C37.0676 11.3333 36.7049 11.6427 36.2783 11.856C35.8516 12.0587 35.3236 12.16 34.6943 12.16ZM41.5993 12C41.4926 12 41.4019 11.968 41.3273 11.904C41.2633 11.8293 41.2313 11.7387 41.2313 11.632V1.008C41.2313 0.901333 41.2633 0.816 41.3273 0.752C41.4019 0.677333 41.4926 0.639999 41.5993 0.639999H42.3513C42.4579 0.639999 42.5433 0.677333 42.6073 0.752C42.6819 0.816 42.7193 0.901333 42.7193 1.008V11.632C42.7193 11.7387 42.6819 11.8293 42.6073 11.904C42.5433 11.968 42.4579 12 42.3513 12H41.5993ZM48.5139 12.16C47.3405 12.16 46.4285 11.8293 45.7779 11.168C45.1379 10.5067 44.7965 9.62667 44.7539 8.528L44.7379 7.84L44.7539 7.152C44.7965 6.064 45.1432 5.18933 45.7939 4.528C46.4445 3.856 47.3512 3.52 48.5139 3.52C49.6765 3.52 50.5832 3.856 51.2339 4.528C51.8845 5.18933 52.2312 6.064 52.2739 7.152C52.2845 7.26933 52.2899 7.49867 52.2899 7.84C52.2899 8.18133 52.2845 8.41067 52.2739 8.528C52.2312 9.62667 51.8845 10.5067 51.2339 11.168C50.5939 11.8293 49.6872 12.16 48.5139 12.16ZM48.5139 10.928C49.1859 10.928 49.7139 10.7147 50.0979 10.288C50.4925 9.86133 50.7059 9.248 50.7379 8.448C50.7485 8.34133 50.7539 8.13867 50.7539 7.84C50.7539 7.54133 50.7485 7.33867 50.7379 7.232C50.7059 6.432 50.4925 5.81867 50.0979 5.392C49.7139 4.96533 49.1859 4.752 48.5139 4.752C47.8419 4.752 47.3085 4.96533 46.9139 5.392C46.5192 5.81867 46.3112 6.432 46.2899 7.232L46.2739 7.84L46.2899 8.448C46.3112 9.248 46.5192 9.86133 46.9139 10.288C47.3085 10.7147 47.8419 10.928 48.5139 10.928ZM57.1734 12.16C56.4267 12.16 55.7974 12.0427 55.2854 11.808C54.784 11.5627 54.4054 11.2853 54.1494 10.976C53.904 10.6667 53.7814 10.4107 53.7814 10.208C53.7814 10.1013 53.8187 10.0213 53.8934 9.968C53.9787 9.904 54.064 9.872 54.1494 9.872H54.8694C54.976 9.872 55.072 9.92533 55.1574 10.032C55.4134 10.3307 55.6907 10.5653 55.9894 10.736C56.288 10.9067 56.688 10.992 57.1894 10.992C57.744 10.992 58.192 10.8853 58.5334 10.672C58.8854 10.448 59.0614 10.144 59.0614 9.76C59.0614 9.504 58.9867 9.296 58.8374 9.136C58.6987 8.96533 58.4534 8.82133 58.1014 8.704C57.76 8.576 57.248 8.43733 56.5654 8.288C55.6374 8.08533 54.976 7.792 54.5814 7.408C54.1974 7.024 54.0054 6.528 54.0054 5.92C54.0054 5.51467 54.1227 5.13067 54.3574 4.768C54.6027 4.39467 54.9547 4.096 55.4134 3.872C55.8827 3.63733 56.4427 3.52 57.0934 3.52C57.776 3.52 58.3574 3.632 58.8374 3.856C59.3174 4.08 59.6747 4.34667 59.9094 4.656C60.1547 4.95467 60.2774 5.20533 60.2774 5.408C60.2774 5.504 60.24 5.584 60.1654 5.648C60.1014 5.712 60.0214 5.744 59.9254 5.744H59.2534C59.1254 5.744 59.0187 5.69067 58.9334 5.584C58.7627 5.38133 58.6134 5.22667 58.4854 5.12C58.368 5.00267 58.192 4.90133 57.9574 4.816C57.7334 4.73067 57.4454 4.688 57.0934 4.688C56.5814 4.688 56.1867 4.8 55.9094 5.024C55.632 5.23733 55.4934 5.52 55.4934 5.872C55.4934 6.096 55.552 6.288 55.6694 6.448C55.7867 6.59733 56.0107 6.736 56.3414 6.864C56.6827 6.992 57.1734 7.12533 57.8134 7.264C58.8267 7.47733 59.5414 7.78667 59.9574 8.192C60.384 8.58667 60.5974 9.09333 60.5974 9.712C60.5974 10.1707 60.464 10.5867 60.1974 10.96C59.9307 11.3333 59.536 11.6267 59.0134 11.84C58.5014 12.0533 57.888 12.16 57.1734 12.16Z" fill="#7A7C86"/>
</svg>
