<svg width="61" height="12" viewBox="0 0 61 12" fill="none" xmlns="http://www.w3.org/2000/svg">
<path d="M5.205 11.15C3.845 11.15 2.785 10.805 2.025 10.115C1.265 9.425 0.865 8.4 0.825 7.04C0.815 6.75 0.81 6.325 0.81 5.765C0.81 5.195 0.815 4.765 0.825 4.475C0.865 3.145 1.275 2.125 2.055 1.415C2.835 0.704999 3.885 0.349999 5.205 0.349999C6.525 0.349999 7.575 0.704999 8.355 1.415C9.145 2.125 9.56 3.145 9.6 4.475C9.62 5.055 9.63 5.485 9.63 5.765C9.63 6.035 9.62 6.46 9.6 7.04C9.55 8.4 9.145 9.425 8.385 10.115C7.625 10.805 6.565 11.15 5.205 11.15ZM5.205 9.425C5.875 9.425 6.41 9.225 6.81 8.825C7.21 8.415 7.425 7.795 7.455 6.965C7.475 6.365 7.485 5.96 7.485 5.75C7.485 5.52 7.475 5.115 7.455 4.535C7.425 3.705 7.21 3.09 6.81 2.69C6.41 2.28 5.875 2.075 5.205 2.075C4.545 2.075 4.015 2.28 3.615 2.69C3.215 3.09 3 3.705 2.97 4.535C2.96 4.825 2.955 5.23 2.955 5.75C2.955 6.26 2.96 6.665 2.97 6.965C3 7.795 3.21 8.415 3.6 8.825C4 9.225 4.535 9.425 5.205 9.425ZM11.9597 11C11.8597 11 11.7747 10.965 11.7047 10.895C11.6347 10.825 11.5997 10.74 11.5997 10.64V0.875C11.5997 0.764999 11.6297 0.674999 11.6897 0.605C11.7597 0.534999 11.8497 0.499999 11.9597 0.499999H13.1147C13.2347 0.499999 13.3247 0.524999 13.3847 0.574999C13.4447 0.614999 13.4997 0.669999 13.5497 0.74L17.8697 7.46V0.875C17.8697 0.764999 17.8997 0.674999 17.9597 0.605C18.0297 0.534999 18.1197 0.499999 18.2297 0.499999H19.4897C19.5997 0.499999 19.6897 0.534999 19.7597 0.605C19.8297 0.674999 19.8647 0.764999 19.8647 0.875V10.625C19.8647 10.735 19.8297 10.825 19.7597 10.895C19.6897 10.965 19.6047 11 19.5047 11H18.3347C18.1647 11 18.0197 10.92 17.8997 10.76L13.5947 4.19V10.64C13.5947 10.75 13.5597 10.84 13.4897 10.91C13.4197 10.97 13.3297 11 13.2197 11H11.9597ZM22.2669 7.355C22.1669 7.355 22.0819 7.32 22.0119 7.25C21.9419 7.18 21.9069 7.095 21.9069 6.995V6.005C21.9069 5.895 21.9419 5.81 22.0119 5.75C22.0819 5.68 22.1669 5.645 22.2669 5.645H26.8719C26.9819 5.645 27.0669 5.68 27.1269 5.75C27.1969 5.81 27.2319 5.895 27.2319 6.005V6.995C27.2319 7.095 27.1969 7.18 27.1269 7.25C27.0669 7.32 26.9819 7.355 26.8719 7.355H22.2669ZM29.6404 11C29.5404 11 29.4554 10.965 29.3854 10.895C29.3154 10.825 29.2804 10.74 29.2804 10.64V0.859999C29.2804 0.749999 29.3154 0.665 29.3854 0.605C29.4554 0.534999 29.5404 0.499999 29.6404 0.499999H31.0354C31.1454 0.499999 31.2304 0.534999 31.2904 0.605C31.3604 0.665 31.3954 0.749999 31.3954 0.859999V9.215H36.1504C36.2604 9.215 36.3504 9.25 36.4204 9.32C36.4904 9.39 36.5254 9.48 36.5254 9.59V10.64C36.5254 10.75 36.4904 10.84 36.4204 10.91C36.3504 10.97 36.2604 11 36.1504 11H29.6404ZM38.3415 11C38.2415 11 38.1565 10.965 38.0865 10.895C38.0165 10.825 37.9815 10.74 37.9815 10.64V0.859999C37.9815 0.749999 38.0165 0.665 38.0865 0.605C38.1565 0.534999 38.2415 0.499999 38.3415 0.499999H39.7515C39.8615 0.499999 39.9465 0.534999 40.0065 0.605C40.0765 0.665 40.1115 0.749999 40.1115 0.859999V10.64C40.1115 10.74 40.0765 10.825 40.0065 10.895C39.9465 10.965 39.8615 11 39.7515 11H38.3415ZM42.8239 11C42.7239 11 42.6389 10.965 42.5689 10.895C42.4989 10.825 42.4639 10.74 42.4639 10.64V0.875C42.4639 0.764999 42.4939 0.674999 42.5539 0.605C42.6239 0.534999 42.7139 0.499999 42.8239 0.499999H43.9789C44.0989 0.499999 44.1889 0.524999 44.2489 0.574999C44.3089 0.614999 44.3639 0.669999 44.4139 0.74L48.7339 7.46V0.875C48.7339 0.764999 48.7639 0.674999 48.8239 0.605C48.8939 0.534999 48.9839 0.499999 49.0939 0.499999H50.3539C50.4639 0.499999 50.5539 0.534999 50.6239 0.605C50.6939 0.674999 50.7289 0.764999 50.7289 0.875V10.625C50.7289 10.735 50.6939 10.825 50.6239 10.895C50.5539 10.965 50.4689 11 50.3689 11H49.1989C49.0289 11 48.8839 10.92 48.7639 10.76L44.4589 4.19V10.64C44.4589 10.75 44.4239 10.84 44.3539 10.91C44.2839 10.97 44.1939 11 44.0839 11H42.8239ZM53.4294 11C53.3294 11 53.2444 10.965 53.1744 10.895C53.1044 10.825 53.0694 10.74 53.0694 10.64V0.875C53.0694 0.764999 53.0994 0.674999 53.1594 0.605C53.2294 0.534999 53.3194 0.499999 53.4294 0.499999H60.0294C60.1394 0.499999 60.2294 0.534999 60.2994 0.605C60.3694 0.674999 60.4044 0.764999 60.4044 0.875V1.865C60.4044 1.975 60.3694 2.065 60.2994 2.135C60.2294 2.195 60.1394 2.225 60.0294 2.225H55.0944V4.88H59.6994C59.8094 4.88 59.8994 4.915 59.9694 4.985C60.0394 5.045 60.0744 5.13 60.0744 5.24V6.17C60.0744 6.28 60.0394 6.37 59.9694 6.44C59.8994 6.5 59.8094 6.53 59.6994 6.53H55.0944V9.275H60.1494C60.2594 9.275 60.3494 9.31 60.4194 9.38C60.4894 9.45 60.5244 9.54 60.5244 9.65V10.64C60.5244 10.75 60.4894 10.84 60.4194 10.91C60.3494 10.97 60.2594 11 60.1494 11H53.4294Z" fill="#2E3235"/>
</svg>
