<svg width="18" height="21" viewBox="0 0 18 21" fill="none" xmlns="http://www.w3.org/2000/svg">
<path fill-rule="evenodd" clip-rule="evenodd" d="M2.66487 14.8008C1.43529 13.6301 0.580479 12.1211 0.208534 10.4646C-0.163411 8.80808 -0.035787 7.07846 0.575268 5.49448C1.18632 3.91049 2.25336 2.54328 3.64145 1.56573C5.02955 0.588177 6.67634 0.044198 8.3736 0.00258037C10.0709 -0.0390373 11.7423 0.423575 13.1767 1.33192C14.611 2.24026 15.7438 3.55353 16.4317 5.10567C17.1197 6.6578 17.3319 8.37908 17.0416 10.0518C16.7513 11.7246 15.9715 13.2737 14.8008 14.5033L8.8816 20.72L2.66487 14.8008ZM13.4197 13.188L8.81579 18.0237L3.98013 13.4198C3.02384 12.5092 2.35902 11.3356 2.06975 10.0472C1.78048 8.7588 1.87975 7.41358 2.355 6.18162C2.83024 4.94966 3.66013 3.88629 4.73972 3.12597C5.8193 2.36566 7.1001 1.94254 8.42016 1.91013C9.74021 1.87772 11.0402 2.23747 12.1558 2.94389C13.2714 3.65031 14.1525 4.67167 14.6876 5.87882C15.2228 7.08597 15.3879 8.4247 15.1622 9.72572C14.9366 11.0267 14.3301 12.2316 13.4197 13.188Z" fill="white"/>
</svg>
