<svg width="20" height="20" viewBox="0 0 20 20" fill="none" xmlns="http://www.w3.org/2000/svg">
<path d="M18.76 2.565H14.975V1.185C14.975 1.02802 14.847 0.9 14.69 0.9H13.395C13.238 0.9 13.11 1.02802 13.11 1.185V2.565H7.39V1.185C7.39 1.02802 7.26198 0.9 7.105 0.9H5.81C5.65302 0.9 5.525 1.02802 5.525 1.185V2.565H1.74C1.27546 2.565 0.9 2.94046 0.9 3.405V18.76C0.9 19.2245 1.27546 19.6 1.74 19.6H18.76C19.2245 19.6 19.6 19.2245 19.6 18.76V3.405C19.6 2.94046 19.2245 2.565 18.76 2.565ZM17.735 17.735H2.765V9.1475H17.735V17.735ZM2.765 7.375V4.43H5.525V5.44C5.525 5.59698 5.65302 5.725 5.81 5.725H7.105C7.26198 5.725 7.39 5.59698 7.39 5.44V4.43H13.11V5.44C13.11 5.59698 13.238 5.725 13.395 5.725H14.69C14.847 5.725 14.975 5.59698 14.975 5.44V4.43H17.735V7.375H2.765Z" fill="white" stroke="white" stroke-width="0.2"/>
</svg>
