<svg width="19" height="21" viewBox="0 0 19 21" fill="none" xmlns="http://www.w3.org/2000/svg">
<path d="M15.0161 12.878C14.4815 12.8807 13.9543 13.0034 13.4735 13.237C12.9926 13.4706 12.5704 13.8093 12.2378 14.2279L7.01705 10.964C7.20733 10.3499 7.20733 9.69258 7.01705 9.07849L12.2378 5.81461C12.7677 6.47075 13.5128 6.91817 14.341 7.0776C15.1691 7.23703 16.027 7.09819 16.7627 6.68566C17.4983 6.27314 18.0641 5.61356 18.36 4.82376C18.6559 4.03397 18.6627 3.16495 18.3792 2.37063C18.0957 1.57631 17.5402 0.907969 16.8111 0.484001C16.082 0.0600319 15.2264 -0.0922 14.3958 0.054272C13.5652 0.200744 12.8133 0.636466 12.2732 1.28425C11.7331 1.93204 11.4398 2.75007 11.4451 3.59345C11.4484 3.91283 11.4965 4.23016 11.5879 4.53619L6.36713 7.80008C5.90622 7.21985 5.27622 6.79738 4.56446 6.59122C3.8527 6.38507 3.09444 6.40544 2.39477 6.64951C1.69511 6.89359 1.08871 7.34928 0.659614 7.95342C0.230522 8.55756 0 9.28022 0 10.0212C0 10.7622 0.230522 11.4849 0.659614 12.089C1.08871 12.6932 1.69511 13.1489 2.39477 13.393C3.09444 13.637 3.8527 13.6574 4.56446 13.4512C5.27622 13.2451 5.90622 12.8226 6.36713 12.2424L11.5879 15.5063C11.4965 15.8123 11.4484 16.1296 11.4451 16.449C11.4451 17.1553 11.6545 17.8457 12.0469 18.4329C12.4393 19.0202 12.997 19.4779 13.6495 19.7482C14.302 20.0185 15.02 20.0892 15.7127 19.9514C16.4054 19.8136 17.0417 19.4735 17.5411 18.9741C18.0405 18.4747 18.3806 17.8384 18.5184 17.1457C18.6562 16.453 18.5855 15.735 18.3152 15.0825C18.0449 14.4299 17.5872 13.8722 17 13.4798C16.4128 13.0875 15.7223 12.878 15.0161 12.878ZM15.0161 1.45086C15.4398 1.45086 15.8541 1.57652 16.2064 1.81195C16.5588 2.04738 16.8334 2.38201 16.9956 2.77352C17.1577 3.16503 17.2002 3.59583 17.1175 4.01145C17.0348 4.42707 16.8308 4.80885 16.5311 5.1085C16.2315 5.40814 15.8497 5.6122 15.4341 5.69488C15.0184 5.77755 14.5876 5.73512 14.1961 5.57295C13.8046 5.41078 13.47 5.13616 13.2346 4.78381C12.9991 4.43147 12.8735 4.01722 12.8735 3.59345C12.8735 3.0252 13.0992 2.48023 13.501 2.07841C13.9028 1.6766 14.4478 1.45086 15.0161 1.45086ZM3.5889 12.1638C3.16514 12.1638 2.75089 12.0382 2.39854 11.8027C2.0462 11.5673 1.77157 11.2327 1.60941 10.8412C1.44724 10.4497 1.40481 10.0189 1.48748 9.60323C1.57015 9.18761 1.77422 8.80584 2.07386 8.50619C2.37351 8.20654 2.75528 8.00248 3.17091 7.91981C3.58653 7.83714 4.01733 7.87957 4.40884 8.04173C4.80035 8.2039 5.13497 8.47852 5.37041 8.83087C5.60584 9.18322 5.7315 9.59747 5.7315 10.0212C5.7315 10.5895 5.50576 11.1345 5.10395 11.5363C4.70213 11.9381 4.15716 12.1638 3.5889 12.1638ZM15.0161 18.5916C14.5923 18.5916 14.1781 18.4659 13.8257 18.2305C13.4734 17.9951 13.1987 17.6605 13.0366 17.2689C12.8744 16.8774 12.832 16.4466 12.9146 16.031C12.9973 15.6154 13.2014 15.2336 13.501 14.934C13.8007 14.6343 14.1824 14.4303 14.5981 14.3476C15.0137 14.2649 15.4445 14.3073 15.836 14.4695C16.2275 14.6317 16.5621 14.9063 16.7976 15.2587C17.033 15.611 17.1587 16.0252 17.1587 16.449C17.1587 17.0173 16.9329 17.5622 16.5311 17.9641C16.1293 18.3659 15.5843 18.5916 15.0161 18.5916Z" fill="white"/>
</svg>
