<svg width="20" height="20" viewBox="0 0 20 20" fill="none" xmlns="http://www.w3.org/2000/svg">
<path d="M18.9461 6.30496C18.936 5.54758 18.7942 4.79773 18.5271 4.08896C18.2954 3.49111 17.9416 2.94816 17.4883 2.49479C17.0349 2.04142 16.4919 1.68761 15.8941 1.45596C15.1944 1.19331 14.4553 1.0513 13.7081 1.03596C12.7461 0.992957 12.4411 0.980957 9.99909 0.980957C7.55709 0.980957 7.24409 0.980957 6.28909 1.03596C5.54225 1.05141 4.80344 1.19343 4.10409 1.45596C3.50615 1.68745 2.96311 2.0412 2.50973 2.49459C2.05634 2.94798 1.70258 3.49102 1.47109 4.08896C1.20792 4.78809 1.06622 5.52707 1.05209 6.27396C1.00909 7.23696 0.996094 7.54196 0.996094 9.98396C0.996094 12.426 0.996094 12.738 1.05209 13.694C1.06709 14.442 1.20809 15.18 1.47109 15.881C1.70297 16.4787 2.05699 17.0215 2.51053 17.4747C2.96407 17.9279 3.50716 18.2815 4.10509 18.513C4.80253 18.7862 5.54147 18.9383 6.29009 18.963C7.25309 19.006 7.55809 19.019 10.0001 19.019C12.4421 19.019 12.7551 19.019 13.7101 18.963C14.4572 18.9482 15.1965 18.8066 15.8961 18.544C16.4938 18.312 17.0366 17.9581 17.4899 17.5048C17.9433 17.0515 18.2972 16.5086 18.5291 15.911C18.7921 15.211 18.9331 14.473 18.9481 13.724C18.9911 12.762 19.0041 12.457 19.0041 10.014C19.0021 7.57196 19.0021 7.26196 18.9461 6.30496ZM9.99309 14.602C7.43909 14.602 5.37009 12.533 5.37009 9.97896C5.37009 7.42496 7.43909 5.35596 9.99309 5.35596C11.2192 5.35596 12.3951 5.84302 13.262 6.71C14.129 7.57698 14.6161 8.75286 14.6161 9.97896C14.6161 11.2051 14.129 12.3809 13.262 13.2479C12.3951 14.1149 11.2192 14.602 9.99309 14.602ZM14.8001 6.26296C14.2031 6.26296 13.7221 5.78096 13.7221 5.18496C13.7221 5.04346 13.75 4.90334 13.8041 4.77262C13.8583 4.64189 13.9376 4.5231 14.0377 4.42305C14.1377 4.32299 14.2565 4.24363 14.3873 4.18948C14.518 4.13533 14.6581 4.10746 14.7996 4.10746C14.9411 4.10746 15.0812 4.13533 15.2119 4.18948C15.3427 4.24363 15.4614 4.32299 15.5615 4.42305C15.6616 4.5231 15.7409 4.64189 15.7951 4.77262C15.8492 4.90334 15.8771 5.04346 15.8771 5.18496C15.8771 5.78096 15.3951 6.26296 14.8001 6.26296Z" fill="#F2B111"/>
<path d="M9.99323 12.9821C11.6517 12.9821 12.9962 11.6376 12.9962 9.97907C12.9962 8.32056 11.6517 6.97607 9.99323 6.97607C8.33472 6.97607 6.99023 8.32056 6.99023 9.97907C6.99023 11.6376 8.33472 12.9821 9.99323 12.9821Z" fill="#F2B111"/>
</svg>
