<svg width="19" height="18" viewBox="0 0 19 18" fill="none" xmlns="http://www.w3.org/2000/svg">
<path opacity="0.5" d="M16.3525 0H1.72754C0.799414 0 0.0400391 0.759375 0.0400391 1.6875V16.3125C0.0400391 17.2406 0.799414 18 1.72754 18H16.3525C17.2807 18 18.04 17.2406 18.04 16.3125V1.6875C18.04 0.759375 17.2807 0 16.3525 0ZM6.79004 14.625H4.54004V6.75H6.79004V14.625ZM5.66504 5.625C5.36667 5.625 5.08052 5.50647 4.86954 5.2955C4.65857 5.08452 4.54004 4.79837 4.54004 4.5C4.54004 4.20163 4.65857 3.91548 4.86954 3.7045C5.08052 3.49353 5.36667 3.375 5.66504 3.375C5.96341 3.375 6.24956 3.49353 6.46053 3.7045C6.67151 3.91548 6.79004 4.20163 6.79004 4.5C6.79004 4.79837 6.67151 5.08452 6.46053 5.2955C6.24956 5.50647 5.96341 5.625 5.66504 5.625ZM14.665 14.625H12.415V10.125C12.415 9.82663 12.2965 9.54048 12.0855 9.3295C11.8746 9.11853 11.5884 9 11.29 9C10.9917 9 10.7055 9.11853 10.4945 9.3295C10.2836 9.54048 10.165 9.82663 10.165 10.125V14.625H7.91504V6.75H10.165V8.14612C10.6285 7.50938 11.3395 6.75 12.1338 6.75C13.5333 6.75 14.665 8.00887 14.665 9.5625V14.625Z" fill="#838383"/>
</svg>
