<svg width="18" height="18" viewBox="0 0 18 18" fill="none" xmlns="http://www.w3.org/2000/svg">
<path d="M7.8375 7.31563L10.8125 9.00625L7.8375 10.6969V7.31563ZM18 1.5V16.5C18 17.3281 17.3281 18 16.5 18H1.5C0.671875 18 0 17.3281 0 16.5V1.5C0 0.671875 0.671875 0 1.5 0H16.5C17.3281 0 18 0.671875 18 1.5ZM14.6875 9.00937C14.6875 9.00937 14.6875 7.14688 14.45 6.25313C14.3187 5.75938 13.9344 5.37187 13.4438 5.24062C12.5594 5 9 5 9 5C9 5 5.44063 5 4.55625 5.24062C4.06563 5.37187 3.68125 5.75938 3.55 6.25313C3.3125 7.14375 3.3125 9.00937 3.3125 9.00937C3.3125 9.00937 3.3125 10.8719 3.55 11.7656C3.68125 12.2594 4.06563 12.6312 4.55625 12.7625C5.44063 13 9 13 9 13C9 13 12.5594 13 13.4438 12.7594C13.9344 12.6281 14.3187 12.2562 14.45 11.7625C14.6875 10.8719 14.6875 9.00937 14.6875 9.00937Z" fill="#F2B111"/>
</svg>
