<svg width="19" height="18" viewBox="0 0 19 18" fill="none" xmlns="http://www.w3.org/2000/svg">
<path opacity="0.5" d="M9.07782 5.99872C7.42521 5.99872 6.07655 7.34738 6.07655 9C6.07655 10.6526 7.42521 12.0013 9.07782 12.0013C10.7304 12.0013 12.0791 10.6526 12.0791 9C12.0791 7.34738 10.7304 5.99872 9.07782 5.99872ZM18.0794 9C18.0794 7.75716 18.0907 6.52558 18.0209 5.28499C17.9511 3.84402 17.6223 2.56515 16.5686 1.51144C15.5127 0.455477 14.2361 0.129006 12.7951 0.0592092C11.5522 -0.0105879 10.3207 0.000669702 9.08008 0.000669702C7.83724 0.000669702 6.60566 -0.0105879 5.36507 0.0592092C3.92409 0.129006 2.64523 0.457728 1.59152 1.51144C0.535555 2.5674 0.209084 3.84402 0.139287 5.28499C0.0694902 6.52783 0.0807478 7.75941 0.0807478 9C0.0807478 10.2406 0.0694902 11.4744 0.139287 12.715C0.209084 14.156 0.537807 15.4348 1.59152 16.4886C2.64748 17.5445 3.92409 17.871 5.36507 17.9408C6.60791 18.0106 7.83949 17.9993 9.08008 17.9993C10.3229 17.9993 11.5545 18.0106 12.7951 17.9408C14.2361 17.871 15.5149 17.5423 16.5686 16.4886C17.6246 15.4326 17.9511 14.156 18.0209 12.715C18.0929 11.4744 18.0794 10.2428 18.0794 9ZM9.07782 13.6179C6.52235 13.6179 4.45996 11.5555 4.45996 9C4.45996 6.44452 6.52235 4.38213 9.07782 4.38213C11.6333 4.38213 13.6957 6.44452 13.6957 9C13.6957 11.5555 11.6333 13.6179 9.07782 13.6179ZM13.8848 5.27148C13.2882 5.27148 12.8063 4.78966 12.8063 4.193C12.8063 3.59635 13.2882 3.11452 13.8848 3.11452C14.4815 3.11452 14.9633 3.59635 14.9633 4.193C14.9635 4.33468 14.9357 4.475 14.8816 4.60593C14.8274 4.73686 14.748 4.85582 14.6478 4.956C14.5476 5.05618 14.4287 5.13561 14.2977 5.18975C14.1668 5.24388 14.0265 5.27166 13.8848 5.27148Z" fill="#838383"/>
</svg>
