<svg width="18" height="18" viewBox="0 0 18 18" fill="none" xmlns="http://www.w3.org/2000/svg">
<path d="M16.82 0.5H1.18C0.803875 0.5 0.5 0.803875 0.5 1.18V16.82C0.5 17.1961 0.803875 17.5 1.18 17.5H16.82C17.1961 17.5 17.5 17.1961 17.5 16.82V1.18C17.5 0.803875 17.1961 0.5 16.82 0.5ZM14.8565 5.46187H13.4986C12.434 5.46187 12.2279 5.96762 12.2279 6.71137V8.34975H14.7694L14.4379 10.9146H12.2279V17.5H9.578V10.9167H7.36162V8.34975H9.578V6.4585C9.578 4.26337 10.9189 3.067 12.8781 3.067C13.8174 3.067 14.6228 3.13713 14.8586 3.169V5.46187H14.8565Z" fill="#F2B111"/>
</svg>
