<svg width="18" height="18" viewBox="0 0 18 18" fill="none" xmlns="http://www.w3.org/2000/svg">
<path opacity="0.5" d="M17.01 0H0.99C0.727436 0 0.475625 0.104303 0.289964 0.289964C0.104303 0.475625 0 0.727436 0 0.99V17.01C0 17.2726 0.104303 17.5244 0.289964 17.71C0.475625 17.8957 0.727436 18 0.99 18H9.612V11.025H7.272V8.325H9.612V6.3C9.56353 5.82458 9.61965 5.34431 9.77644 4.89288C9.93323 4.44145 10.1869 4.02979 10.5196 3.68677C10.8523 3.34375 11.2561 3.07768 11.7025 2.90721C12.149 2.73675 12.6273 2.66603 13.104 2.7C13.8045 2.69569 14.5047 2.73175 15.201 2.808V5.238H13.77C12.636 5.238 12.42 5.778 12.42 6.561V8.298H15.12L14.769 10.998H12.42V18H17.01C17.14 18 17.2687 17.9744 17.3889 17.9246C17.509 17.8749 17.6181 17.802 17.71 17.71C17.802 17.6181 17.8749 17.509 17.9246 17.3889C17.9744 17.2687 18 17.14 18 17.01V0.99C18 0.859991 17.9744 0.731256 17.9246 0.611143C17.8749 0.491031 17.802 0.381894 17.71 0.289964C17.6181 0.198034 17.509 0.125112 17.3889 0.0753593C17.2687 0.0256072 17.14 0 17.01 0Z" fill="#838383"/>
</svg>
